SplineFontDB: 3.0
FontName: Bailleul-Roman
FullName: Bailleul Roman
FamilyName: Bailleul Roman
Weight: Book
Copyright: Copyright (c) 2019 Yomli\nCopyright (c) 1850 Bailleul et Cie\nCopyright (c) 1800 Justus Erich Walbaum
Version: 1
ItalicAngle: 0
UnderlinePosition: -125
UnderlineWidth: 50
Ascent: 800
Descent: 200
InvalidEm: 0
sfntRevision: 0x00013333
LayerCount: 2
Layer: 0 1 "Arri+AOgA-re" 1
Layer: 1 1 "Avant" 0
XUID: [1021 871 2113692927 15650]
StyleMap: 0x0040
FSType: 0
OS2Version: 2
OS2_WeightWidthSlopeOnly: 0
OS2_UseTypoMetrics: 0
CreationTime: 1201742810
ModificationTime: 1551992271
PfmFamily: 17
TTFWeight: 400
TTFWidth: 5
LineGap: 0
VLineGap: 0
Panose: 2 0 5 3 8 0 0 2 0 3
OS2TypoAscent: 715
OS2TypoAOffset: 0
OS2TypoDescent: -220
OS2TypoDOffset: 0
OS2TypoLinegap: 70
OS2WinAscent: 951
OS2WinAOffset: 0
OS2WinDescent: 261
OS2WinDOffset: 0
HheadAscent: 951
HheadAOffset: 0
HheadDescent: -261
HheadDOffset: 0
OS2SubXSize: 204
OS2SubYSize: 204
OS2SubXOff: 0
OS2SubYOff: 286
OS2SupXSize: 204
OS2SupYSize: 204
OS2SupXOff: 0
OS2SupYOff: 286
OS2StrikeYSize: 50
OS2StrikeYPos: 250
OS2Vendor: 'YOM '
OS2CodePages: 60000001.80d40000
OS2UnicodeRanges: 8000002f.40000048.00000000.00000000
Lookup: 1 0 0 "'smcp' Bas-de-casse vers petites capitales dans Latin lookup 0" { "sous-table 'smcp' Bas-de-casse vers petites capitales dans Latin lookup 0"  } ['smcp' ('latn' <'dflt' > ) ]
Lookup: 1 0 0 "'c2sc' Capitales vers petites capitales dans Latin lookup 0" { "sous-table 'c2sc' Capitales vers petites capitales dans Latin lookup 0"  } ['c2sc' ('latn' <'dflt' > ) ]
Lookup: 1 0 0 "'sinf' Indices scientifiques lookups0" { "sous-table 'sinf' Indices scientifiques lookups0"  } ['sinf' ('DFLT' <'dflt' > ) ]
Lookup: 1 0 0 "'numr' Num+AOkA-rateurs lookups0" { "sous-table 'numr' Num+AOkA-rateurs lookups0"  } ['numr' ('DFLT' <'dflt' > ) ]
Lookup: 1 0 0 "'dnom' D+AOkA-nominateurs lookups0" { "sous-table 'dnom' D+AOkA-nominateurs lookups0"  } ['dnom' ('DFLT' <'dflt' > ) ]

StartChar: .notdef
Encoding: 229 -1 0
Width: 432
Flags: W
TeX: 0 0
HStem: 0 33<66 333> 633 33<66 333>
VStem: 33 33<33 633> 333 33<33 633>
LayerCount: 2
Fore
SplineSet
33 0 m 1,0,-1
 33 666 l 1,1,-1
 366 666 l 1,2,-1
 366 0 l 1,3,-1
 33 0 l 1,0,-1
66 33 m 1,4,-1
 333 33 l 1,5,-1
 333 633 l 1,6,-1
 66 633 l 1,7,-1
 66 33 l 1,4,-1
EndSplineSet
EndChar

StartChar: exclam
Encoding: 1 33 4
Width: 296
Flags: W
TeX: 721 6
HStem: -6 138<100.142 195.858> 701 20G<130.5 165.5>
VStem: 79 138<14.627 112.292 470.057 698.825> 134 28<193 328.075>
LayerCount: 2
Fore
SplineSet
162 193 m 1,0,-1
 134 193 l 1,1,2
 131 259 131 259 105 437.5 c 128,-1,3
 79 616 79 616 79 644 c 0,4,5
 79 678 79 678 96 699.5 c 128,-1,6
 113 721 113 721 148 721 c 128,-1,7
 183 721 183 721 200 699.5 c 128,-1,8
 217 678 217 678 217 644 c 0,9,10
 217 616 217 616 191 438 c 128,-1,11
 165 260 165 260 162 193 c 1,0,-1
217 62 m 128,-1,13
 217 34 217 34 196.5 14 c 128,-1,14
 176 -6 176 -6 148 -6 c 128,-1,15
 120 -6 120 -6 99.5 14 c 128,-1,16
 79 34 79 34 79 62 c 128,-1,17
 79 90 79 90 99.5 111 c 128,-1,18
 120 132 120 132 148 132 c 128,-1,19
 176 132 176 132 196.5 111 c 128,-1,12
 217 90 217 90 217 62 c 128,-1,13
EndSplineSet
EndChar

StartChar: quotedbl
Encoding: 2 34 5
Width: 464
Flags: W
TeX: 727 -403
HStem: 403 324<137.312 176.688 287.312 326.688>
VStem: 112 90<447.375 720.652> 262 90<447.375 720.652>
LayerCount: 2
Fore
SplineSet
285 436 m 2,0,-1
 266 618 l 2,1,2
 262 652 262 652 262 662 c 0,3,4
 262 727 262 727 307 727 c 128,-1,5
 352 727 352 727 352 662 c 0,6,7
 352 652 352 652 348 618 c 2,8,-1
 329 436 l 2,9,10
 326 403 326 403 307 403 c 128,-1,11
 288 403 288 403 285 436 c 2,0,-1
135 436 m 2,12,-1
 116 618 l 2,13,14
 112 652 112 652 112 662 c 0,15,16
 112 727 112 727 157 727 c 128,-1,17
 202 727 202 727 202 662 c 0,18,19
 202 652 202 652 198 618 c 2,20,-1
 179 436 l 2,21,22
 176 403 176 403 157 403 c 128,-1,23
 138 403 138 403 135 436 c 2,12,-1
EndSplineSet
EndChar

StartChar: numbersign
Encoding: 3 35 6
Width: 556
Flags: W
TeX: 694 0
HStem: 0 21G<100 164.802 290 354.802> 207 60<27 129 200 319 390 492> 427 60<52 160 231 350 421 529> 674 20G<195.198 260 385.198 450>
LayerCount: 2
Fore
SplineSet
492 267 m 1,0,-1
 492 207 l 1,1,-1
 381 207 l 1,2,-1
 352 0 l 1,3,-1
 290 0 l 1,4,-1
 319 207 l 1,5,-1
 191 207 l 1,6,-1
 162 0 l 1,7,-1
 100 0 l 1,8,-1
 129 207 l 1,9,-1
 27 207 l 1,10,-1
 27 267 l 1,11,-1
 138 267 l 1,12,-1
 160 427 l 1,13,-1
 52 427 l 1,14,-1
 52 487 l 1,15,-1
 169 487 l 1,16,-1
 198 694 l 1,17,-1
 260 694 l 1,18,-1
 231 487 l 1,19,-1
 359 487 l 1,20,-1
 388 694 l 1,21,-1
 450 694 l 1,22,-1
 421 487 l 1,23,-1
 529 487 l 1,24,-1
 529 427 l 1,25,-1
 412 427 l 1,26,-1
 390 267 l 1,27,-1
 492 267 l 1,0,-1
350 427 m 1,28,-1
 222 427 l 1,29,-1
 200 267 l 1,30,-1
 328 267 l 1,31,-1
 350 427 l 1,28,-1
EndSplineSet
EndChar

StartChar: dollar
Encoding: 4 36 7
Width: 556
Flags: W
TeX: 800 106
HStem: -12 31<200.103 262 304 349.955> 681 25<216.018 262 304 349.094>
VStem: 52 108<63.0579 185.403> 71 84<507.43 610.497> 262 42<-106 -10.5142 22 296 448 681 706 800> 378 100<553.471 645.414> 438 66<101.849 218.46>
LayerCount: 2
Fore
SplineSet
262 706 m 1,0,-1
 262 800 l 1,1,-1
 304 800 l 1,2,-1
 304 706 l 1,3,4
 341 704 341 704 378 693 c 128,-1,5
 415 682 415 682 446.5 655 c 128,-1,6
 478 628 478 628 478 591 c 0,7,8
 478 568 478 568 465.5 553 c 128,-1,9
 453 538 453 538 430 538 c 0,10,11
 403 538 403 538 391.5 552.5 c 128,-1,12
 380 567 380 567 378 588 c 128,-1,13
 376 609 376 609 373 630 c 128,-1,14
 370 651 370 651 353.5 665.5 c 128,-1,15
 337 680 337 680 304 681 c 1,16,-1
 304 431 l 1,17,18
 419 377 419 377 461.5 333 c 128,-1,19
 504 289 504 289 504 208 c 0,20,21
 504 112 504 112 453 61 c 128,-1,22
 402 10 402 10 304 -10 c 1,23,-1
 304 -106 l 1,24,-1
 262 -106 l 1,25,-1
 262 -12 l 1,26,27
 224 -10 224 -10 190 -2 c 128,-1,28
 156 6 156 6 123.5 21.5 c 128,-1,29
 91 37 91 37 71.5 66.5 c 128,-1,30
 52 96 52 96 52 136 c 0,31,32
 52 167 52 167 66 186 c 128,-1,33
 80 205 80 205 108 205 c 0,34,35
 135 205 135 205 147.5 189 c 128,-1,36
 160 173 160 173 160 150 c 0,37,38
 160 139 160 139 158 119.5 c 128,-1,39
 156 100 156 100 156 91 c 0,40,41
 156 58 156 58 189.5 39.5 c 128,-1,42
 223 21 223 21 262 19 c 1,43,-1
 262 310 l 1,44,45
 147 359 147 359 109 408.5 c 128,-1,46
 71 458 71 458 71 532 c 0,47,48
 71 605 71 605 132.5 655 c 128,-1,49
 194 705 194 705 262 706 c 1,0,-1
262 448 m 1,50,-1
 262 681 l 1,51,52
 155 665 155 665 155 578 c 0,53,54
 155 532 155 532 178.5 505 c 128,-1,55
 202 478 202 478 262 448 c 1,50,-1
304 296 m 1,56,-1
 304 22 l 1,57,58
 363 32 363 32 400.5 64 c 128,-1,59
 438 96 438 96 438 148 c 0,60,61
 438 194 438 194 409 229 c 128,-1,62
 380 264 380 264 304 296 c 1,56,-1
EndSplineSet
EndChar

StartChar: percent
Encoding: 5 37 8
Width: 1000
Flags: W
TeX: 712 18
HStem: -12 25<684.996 778.498> 294 25<690.289 780.13> 375 25<221.996 315.498> 681 25<227.289 317.13>
VStem: 104 66<449.725 626.054> 367 66<460.144 631.604> 567 66<62.7249 239.054> 830 66<73.1437 244.604>
LayerCount: 2
Fore
SplineSet
633 142 m 0,0,1
 633 92 633 92 658 52.5 c 128,-1,2
 683 13 683 13 730 13 c 0,3,4
 784 13 784 13 807 55 c 128,-1,5
 830 97 830 97 830 156 c 0,6,7
 830 209 830 209 807.5 251.5 c 128,-1,8
 785 294 785 294 736 294 c 0,9,10
 684 294 684 294 658.5 246.5 c 128,-1,11
 633 199 633 199 633 142 c 0,0,1
567 156 m 0,12,13
 567 228 567 228 618 273.5 c 128,-1,14
 669 319 669 319 741 319 c 0,15,16
 810 319 810 319 853 273.5 c 128,-1,17
 896 228 896 228 896 159 c 0,18,19
 896 86 896 86 847 37 c 128,-1,20
 798 -12 798 -12 725 -12 c 0,21,22
 651 -12 651 -12 609 34.5 c 128,-1,23
 567 81 567 81 567 156 c 0,12,13
104 543 m 0,24,25
 104 615 104 615 155 660.5 c 128,-1,26
 206 706 206 706 278 706 c 0,27,28
 347 706 347 706 390 660.5 c 128,-1,29
 433 615 433 615 433 546 c 0,30,31
 433 473 433 473 384 424 c 128,-1,32
 335 375 335 375 262 375 c 0,33,34
 188 375 188 375 146 421.5 c 128,-1,35
 104 468 104 468 104 543 c 0,24,25
170 529 m 0,36,37
 170 479 170 479 195 439.5 c 128,-1,38
 220 400 220 400 267 400 c 0,39,40
 321 400 321 400 344 442 c 128,-1,41
 367 484 367 484 367 543 c 0,42,43
 367 596 367 596 344.5 638.5 c 128,-1,44
 322 681 322 681 273 681 c 0,45,46
 221 681 221 681 195.5 633.5 c 128,-1,47
 170 586 170 586 170 529 c 0,36,37
251 -18 m 1,48,-1
 699 712 l 1,49,-1
 745 712 l 1,50,-1
 296 -18 l 1,51,-1
 251 -18 l 1,48,-1
EndSplineSet
EndChar

StartChar: ampersand
Encoding: 6 38 9
Width: 760
Flags: W
TeX: 721 12
HStem: -12 42<248.835 352.258> -6 84<542.852 637.277> 477 25<400 471.785 629.481 693> 696 25<270.091 350.991>
VStem: 45 84<180.748 294.428> 161 78<553.855 645.037> 375 54<574.761 679.668> 685 30<123.439 262.155>
LayerCount: 2
Fore
SplineSet
400 502 m 1,0,-1
 693 502 l 1,1,-1
 693 477 l 1,2,3
 586 477 586 477 564 379 c 0,4,5
 536 255 536 255 486 167 c 1,6,7
 540 78 540 78 600 78 c 0,8,9
 639 78 639 78 662 110 c 128,-1,10
 685 142 685 142 685 183 c 0,11,12
 685 229 685 229 664 294 c 1,13,-1
 690 302 l 1,14,15
 715 210 715 210 715 168 c 0,16,17
 715 97 715 97 671.5 45.5 c 128,-1,18
 628 -6 628 -6 557 -6 c 0,19,20
 517 -6 517 -6 489 12.5 c 128,-1,21
 461 31 461 31 431 68 c 1,22,23
 361 -12 361 -12 254 -12 c 0,24,25
 163 -12 163 -12 104 48.5 c 128,-1,26
 45 109 45 109 45 201 c 0,27,28
 45 275 45 275 87.5 326 c 128,-1,29
 130 377 130 377 208 428 c 1,30,31
 161 521 161 521 161 578 c 0,32,33
 161 627 161 627 205.5 674 c 128,-1,34
 250 721 250 721 322 721 c 0,35,36
 429 721 429 721 429 644 c 0,37,38
 429 618 429 618 416.5 592 c 128,-1,39
 404 566 404 566 385.5 546 c 128,-1,40
 367 526 367 526 344.5 505 c 128,-1,41
 322 484 322 484 303 469 c 1,42,43
 430 253 430 253 470 193 c 1,44,45
 524 290 524 290 524 372 c 0,46,47
 524 430 524 430 492 453.5 c 128,-1,48
 460 477 460 477 400 477 c 1,49,-1
 400 502 l 1,0,-1
129 265 m 0,50,51
 129 228 129 228 153.5 173.5 c 128,-1,52
 178 119 178 119 221 74.5 c 128,-1,53
 264 30 264 30 308 30 c 0,54,55
 372 30 372 30 413 91 c 1,56,57
 271 318 271 318 221 406 c 1,58,59
 129 350 129 350 129 265 c 0,50,51
239 625 m 128,-1,61
 239 591 239 591 291 491 c 1,62,63
 326 511 326 511 350.5 554 c 128,-1,64
 375 597 375 597 375 627 c 0,65,66
 375 658 375 658 359 677 c 128,-1,67
 343 696 343 696 315 696 c 0,68,69
 284 696 284 696 261.5 677.5 c 128,-1,60
 239 659 239 659 239 625 c 128,-1,61
EndSplineSet
EndChar

StartChar: quoteright
Encoding: 212 8217 10
Width: 260
Flags: W
TeX: 727 -403
HStem: 589 138<72.1425 158.468>
VStem: 161 48<524.431 629>
LayerCount: 2
Fore
SplineSet
62 403 m 1,0,-1
 51 423 l 1,1,2
 161 500 161 500 161 582 c 0,3,4
 161 591 161 591 159 601 c 1,5,6
 142 589 142 589 120 589 c 0,7,8
 92 589 92 589 71.5 609 c 128,-1,9
 51 629 51 629 51 657 c 128,-1,10
 51 685 51 685 71.5 706 c 128,-1,11
 92 727 92 727 120 727 c 0,12,13
 164 727 164 727 186.5 689.5 c 128,-1,14
 209 652 209 652 209 606 c 0,15,16
 209 546 209 546 164.5 489.5 c 128,-1,17
 120 433 120 433 62 403 c 1,0,-1
EndSplineSet
EndChar

StartChar: parenleft
Encoding: 8 40 11
Width: 407
Flags: W
TeX: 727 261
HStem: 707 20G<311.5 393.538>
VStem: 89 102<66.6321 399.368>
LayerCount: 2
Fore
SplineSet
397 -235 m 1,0,-1
 382 -261 l 1,1,2
 241 -183 241 -183 165 -58.5 c 128,-1,3
 89 66 89 66 89 233 c 128,-1,4
 89 400 89 400 165 524.5 c 128,-1,5
 241 649 241 649 382 727 c 1,6,-1
 397 701 l 1,7,8
 331 664 331 664 288.5 614.5 c 128,-1,9
 246 565 246 565 225.5 501.5 c 128,-1,10
 205 438 205 438 198 377.5 c 128,-1,11
 191 317 191 317 191 233 c 128,-1,12
 191 149 191 149 198 88.5 c 128,-1,13
 205 28 205 28 225.5 -35.5 c 128,-1,14
 246 -99 246 -99 288.5 -148.5 c 128,-1,15
 331 -198 331 -198 397 -235 c 1,0,-1
EndSplineSet
EndChar

StartChar: parenright
Encoding: 9 41 12
Width: 407
Flags: W
TeX: 727 261
HStem: 707 20G<13.4615 95.5>
VStem: 216 102<66.6321 399.368>
LayerCount: 2
Fore
SplineSet
10 701 m 1,0,-1
 25 727 l 1,1,2
 166 649 166 649 242 524.5 c 128,-1,3
 318 400 318 400 318 233 c 128,-1,4
 318 66 318 66 242 -58.5 c 128,-1,5
 166 -183 166 -183 25 -261 c 1,6,-1
 10 -235 l 1,7,8
 76 -198 76 -198 118.5 -148.5 c 128,-1,9
 161 -99 161 -99 181.5 -35.5 c 128,-1,10
 202 28 202 28 209 88.5 c 128,-1,11
 216 149 216 149 216 233 c 128,-1,12
 216 317 216 317 209 377.5 c 128,-1,13
 202 438 202 438 181.5 501.5 c 128,-1,14
 161 565 161 565 118.5 614.5 c 128,-1,15
 76 664 76 664 10 701 c 1,0,-1
EndSplineSet
EndChar

StartChar: asterisk
Encoding: 10 42 13
Width: 389
Flags: W
TeX: 715 -391
HStem: 542 84<50.7358 152 237.5 338.264> 695 20G<184.5 204>
VStem: 72 86.5<405.439 475.634> 150 93<613.328 701.593> 229.5 86.5<405.439 475.634>
LayerCount: 2
Fore
SplineSet
27 580 m 0,0,1
 27 598 27 598 39 612 c 128,-1,2
 51 626 51 626 68 626 c 0,3,4
 96 626 96 626 128 594 c 128,-1,5
 160 562 160 562 184 557 c 1,6,7
 182 587 182 587 166 622 c 128,-1,8
 150 657 150 657 150 671 c 0,9,10
 150 689 150 689 162.5 702 c 128,-1,11
 175 715 175 715 194 715 c 0,12,13
 214 715 214 715 228.5 703 c 128,-1,14
 243 691 243 691 243 671 c 0,15,16
 243 663 243 663 223.5 618.5 c 128,-1,17
 204 574 204 574 205 557 c 1,18,19
 229 562 229 562 261 594 c 128,-1,20
 293 626 293 626 321 626 c 0,21,22
 338 626 338 626 350 612 c 128,-1,23
 362 598 362 598 362 580 c 0,24,25
 362 556 362 556 348.5 543 c 128,-1,26
 335 530 335 530 312 530 c 0,27,28
 300 530 300 530 277 536 c 128,-1,29
 254 542 254 542 242 542 c 0,30,31
 233 542 233 542 213 536 c 1,32,33
 230 517 230 517 257.5 500.5 c 128,-1,34
 285 484 285 484 300.5 470.5 c 128,-1,35
 316 457 316 457 316 438 c 128,-1,36
 316 419 316 419 302.5 405 c 128,-1,37
 289 391 289 391 270 391 c 0,38,39
 242 391 242 391 229.5 415 c 128,-1,40
 217 439 217 439 210.5 473.5 c 128,-1,41
 204 508 204 508 194 520 c 1,42,43
 184 508 184 508 177.5 473.5 c 128,-1,44
 171 439 171 439 158.5 415 c 128,-1,45
 146 391 146 391 118 391 c 0,46,47
 99 391 99 391 85.5 405 c 128,-1,48
 72 419 72 419 72 438 c 128,-1,49
 72 457 72 457 87.5 470.5 c 128,-1,50
 103 484 103 484 130.5 500.5 c 128,-1,51
 158 517 158 517 175 536 c 1,52,53
 157 542 157 542 147 542 c 0,54,55
 136 542 136 542 112 536 c 128,-1,56
 88 530 88 530 77 530 c 0,57,58
 54 530 54 530 40.5 543 c 128,-1,59
 27 556 27 556 27 580 c 0,0,1
EndSplineSet
EndChar

StartChar: plus
Encoding: 11 43 14
Width: 600
Flags: W
TeX: 502 0
HStem: 0 21G<267 333> 218 66<49 267 333 551> 482 20G<267 333>
VStem: 267 66<0 218 284 502>
LayerCount: 2
Fore
SplineSet
267 284 m 1,0,-1
 267 502 l 1,1,-1
 333 502 l 1,2,-1
 333 284 l 1,3,-1
 551 284 l 1,4,-1
 551 218 l 1,5,-1
 333 218 l 1,6,-1
 333 0 l 1,7,-1
 267 0 l 1,8,-1
 267 218 l 1,9,-1
 49 218 l 1,10,-1
 49 284 l 1,11,-1
 267 284 l 1,0,-1
EndSplineSet
EndChar

StartChar: comma
Encoding: 12 44 15
Width: 278
Flags: W
TeX: 132 192
HStem: -6 138<91.1425 177.468>
VStem: 180 48<-70.5687 34>
LayerCount: 2
Fore
SplineSet
81 -192 m 1,0,-1
 70 -172 l 1,1,2
 180 -95 180 -95 180 -13 c 0,3,4
 180 -4 180 -4 178 6 c 1,5,6
 161 -6 161 -6 139 -6 c 0,7,8
 111 -6 111 -6 90.5 14 c 128,-1,9
 70 34 70 34 70 62 c 128,-1,10
 70 90 70 90 90.5 111 c 128,-1,11
 111 132 111 132 139 132 c 0,12,13
 183 132 183 132 205.5 94.5 c 128,-1,14
 228 57 228 57 228 11 c 0,15,16
 228 -49 228 -49 183.5 -105.5 c 128,-1,17
 139 -162 139 -162 81 -192 c 1,0,-1
EndSplineSet
EndChar

StartChar: hyphen
Encoding: 13 45 16
Width: 389
Flags: W
TeX: 266 -206
HStem: 206 60<49 340>
VStem: 49 291<206 266>
LayerCount: 2
Fore
SplineSet
340 206 m 1,0,-1
 49 206 l 1,1,-1
 49 266 l 1,2,-1
 340 266 l 1,3,-1
 340 206 l 1,0,-1
EndSplineSet
EndChar

StartChar: period
Encoding: 14 46 17
Width: 278
Flags: W
TeX: 132 6
HStem: -6 138<91.1425 186.858>
VStem: 70 138<14.627 112.292>
LayerCount: 2
Fore
SplineSet
208 62 m 128,-1,1
 208 34 208 34 187.5 14 c 128,-1,2
 167 -6 167 -6 139 -6 c 128,-1,3
 111 -6 111 -6 90.5 14 c 128,-1,4
 70 34 70 34 70 62 c 128,-1,5
 70 90 70 90 90.5 111 c 128,-1,6
 111 132 111 132 139 132 c 128,-1,7
 167 132 167 132 187.5 111 c 128,-1,0
 208 90 208 90 208 62 c 128,-1,1
EndSplineSet
EndChar

StartChar: slash
Encoding: 15 47 18
Width: 426
Flags: W
TeX: 727 12
HStem: 707 20G<356.824 435>
LayerCount: 2
Fore
SplineSet
-9 -12 m 1,0,-1
 367 727 l 1,1,-1
 435 727 l 1,2,-1
 59 -12 l 1,3,-1
 -9 -12 l 1,0,-1
EndSplineSet
EndChar

StartChar: zero
Encoding: 16 48 19
Width: 556
Flags: W
TeX: 706 12
HStem: -12 31<225.358 330.642> 675 31<225.358 330.642>
VStem: 34 120<188.709 505.291> 402 120<188.709 505.291>
LayerCount: 2
Fore
SplineSet
522 347 m 128,-1,1
 522 257 522 257 497.5 178 c 128,-1,2
 473 99 473 99 416 43.5 c 128,-1,3
 359 -12 359 -12 278 -12 c 128,-1,4
 197 -12 197 -12 140 43.5 c 128,-1,5
 83 99 83 99 58.5 178 c 128,-1,6
 34 257 34 257 34 347 c 128,-1,7
 34 437 34 437 58.5 516 c 128,-1,8
 83 595 83 595 140 650.5 c 128,-1,9
 197 706 197 706 278 706 c 128,-1,10
 359 706 359 706 416 650.5 c 128,-1,11
 473 595 473 595 497.5 516 c 128,-1,0
 522 437 522 437 522 347 c 128,-1,1
402 347 m 128,-1,13
 402 521 402 521 374.5 598 c 128,-1,14
 347 675 347 675 278 675 c 128,-1,15
 209 675 209 675 181.5 598 c 128,-1,16
 154 521 154 521 154 347 c 128,-1,17
 154 173 154 173 181.5 96 c 128,-1,18
 209 19 209 19 278 19 c 128,-1,19
 347 19 347 19 374.5 96 c 128,-1,12
 402 173 402 173 402 347 c 128,-1,13
EndSplineSet
Substitution2: "sous-table 'sinf' Indices scientifiques lookups0" zero.inferior
Substitution2: "sous-table 'numr' Num+AOkA-rateurs lookups0" zero.numerator
Substitution2: "sous-table 'dnom' D+AOkA-nominateurs lookups0" zero.denominator
Substitution2: "sous-table 'subs' Indice lookups0" zero.subscript
Substitution2: "sous-table 'sups' Exposant lookups0" zero.superior
EndChar

StartChar: one
Encoding: 17 49 20
Width: 556
Flags: W
TeX: 715 0
HStem: 0 25<127 237 351 460> 695 20G<275.5 351>
VStem: 237 114<25 576> 302 49<675.254 715>
LayerCount: 2
Fore
SplineSet
115 476 m 1,0,-1
 96 497 l 1,1,2
 249 598 249 598 302 715 c 1,3,-1
 351 715 l 1,4,-1
 351 25 l 1,5,-1
 460 25 l 1,6,-1
 460 0 l 1,7,-1
 127 0 l 1,8,-1
 127 25 l 1,9,-1
 237 25 l 1,10,-1
 237 576 l 1,11,-1
 235 576 l 1,12,13
 200 533 200 533 115 476 c 1,0,-1
EndSplineSet
Substitution2: "sous-table 'sinf' Indices scientifiques lookups0" one.inferior
Substitution2: "sous-table 'numr' Num+AOkA-rateurs lookups0" one.numerator
Substitution2: "sous-table 'dnom' D+AOkA-nominateurs lookups0" one.denominator
Substitution2: "sous-table 'subs' Indice lookups0" one.subscript
Substitution2: "sous-table 'sups' Exposant lookups0" one.superior
EndChar

StartChar: two
Encoding: 18 50 21
Width: 556
Flags: W
TeX: 706 0
HStem: 0 96<137 427.126> 449 120<99.1898 190.404> 664 42<153.505 309.896>
VStem: 56 34.2539<551.384 618.025> 375 120<417.498 592.053>
LayerCount: 2
Fore
SplineSet
90.25390625 567.72265625 m 5,0,1
 91.1236586222 547.062622153 91.1236586222 547.062622153 99.126953125 550.861328125 c 0,2,3
 100.955709336 554.367580514 100.955709336 554.367580514 126 564 c 0,4,5
 139 569 139 569 154 569 c 0,6,7
 210 569 210 569 210 512 c 0,8,9
 210 480 210 480 191 464.5 c 128,-1,10
 172 449 172 449 142 449 c 0,11,12
 99 449 99 449 77.5 479 c 0,13,14
 54 512 54 512 56 554 c 0,15,16
 60 638 60 638 124.5 672.5 c 0,17,18
 187 706 187 706 287 706 c 0,19,20
 379 706 379 706 437 651.5 c 128,-1,21
 495 597 495 597 495 506 c 0,22,23
 495 444 495 444 453.5 384 c 128,-1,24
 412 324 412 324 351 278 c 0,25,26
 196 162 196 162 137 96 c 1,27,-1
 349 96 l 2,28,29
 405 96 405 96 438 126.5 c 128,-1,30
 471 157 471 157 485 199 c 1,31,-1
 509 190 l 1,32,-1
 434 0 l 1,33,-1
 15 0 l 1,34,-1
 12 24 l 1,35,-1
 170 168 l 2,36,37
 215 209 215 209 242.5 237 c 0,38,39
 269 264 269 264 304.5 308.5 c 128,-1,40
 340 353 340 353 357.5 398.5 c 128,-1,41
 375 444 375 444 375 492 c 0,42,43
 375 565 375 565 340 614.5 c 128,-1,44
 305 664 305 664 235 664 c 128,-1,45
 165 664 165 664 129 640 c 0,46,47
 94 617 94 617 90.25390625 567.72265625 c 5,0,1
EndSplineSet
Substitution2: "sous-table 'sinf' Indices scientifiques lookups0" two.inferior
Substitution2: "sous-table 'numr' Num+AOkA-rateurs lookups0" two.numerator
Substitution2: "sous-table 'dnom' D+AOkA-nominateurs lookups0" two.denominator
Substitution2: "sous-table 'subs' Indice lookups0" two.subscript
Substitution2: "sous-table 'sups' Exposant lookups0" two.superior
EndChar

StartChar: three
Encoding: 19 51 22
Width: 528
Flags: W
TeX: 694 12
HStem: -8.40039 28.5<137.293 280.54> 355.45 28.5<122.9 248.294> 669.9 28.5<158.037 280.919>
VStem: 26 82.6504<57.7094 135.525> 62.0996 77.9004<569.2 636.558> 322.4 123.5<471.809 616.385> 353.75 133<109.766 274.86>
LayerCount: 2
Fore
SplineSet
290.099609375 377.299804688 m 1,0,1
 378.450195312 366.849609375 378.450195312 366.849609375 432.599609375 315.549804688 c 128,-1,2
 486.75 264.25 486.75 264.25 486.75 193 c 0,3,4
 486.75 111.299804688 486.75 111.299804688 415.974609375 51.4501953125 c 128,-1,5
 345.200195312 -8.400390625 345.200195312 -8.400390625 227.400390625 -8.400390625 c 0,6,7
 138.099609375 -8.400390625 138.099609375 -8.400390625 82.0498046875 27.7001953125 c 128,-1,8
 26 63.7998046875 26 63.7998046875 26 119.849609375 c 0,9,10
 26 151.200195312 26 151.200195312 43.099609375 169.724609375 c 128,-1,11
 60.2001953125 188.25 60.2001953125 188.25 87.75 188.25 c 0,12,13
 113.400390625 188.25 113.400390625 188.25 130.974609375 172.099609375 c 128,-1,14
 148.549804688 155.950195312 148.549804688 155.950195312 148.549804688 131.25 c 0,15,16
 148.549804688 108.450195312 148.549804688 108.450195312 128.599609375 93.25 c 128,-1,17
 108.650390625 78.0498046875 108.650390625 78.0498046875 108.650390625 66.650390625 c 0,18,19
 108.650390625 43.849609375 108.650390625 43.849609375 143.325195312 31.974609375 c 128,-1,20
 178 20.099609375 178 20.099609375 216 20.099609375 c 0,21,22
 282.5 20.099609375 282.5 20.099609375 318.125 64.75 c 128,-1,23
 353.75 109.400390625 353.75 109.400390625 353.75 193 c 0,24,25
 353.75 274.700195312 353.75 274.700195312 316.700195312 315.075195312 c 128,-1,26
 279.650390625 355.450195312 279.650390625 355.450195312 197 355.450195312 c 2,27,-1
 122.900390625 355.450195312 l 1,28,-1
 122.900390625 383.950195312 l 1,29,-1
 178.950195312 383.950195312 l 2,30,31
 322.400390625 383.950195312 322.400390625 383.950195312 322.400390625 546.400390625 c 0,32,33
 322.400390625 615.75 322.400390625 615.75 297.700195312 642.825195312 c 128,-1,34
 273 669.900390625 273 669.900390625 222.650390625 669.900390625 c 0,35,36
 187.5 669.900390625 187.5 669.900390625 163.75 658.974609375 c 128,-1,37
 140 648.049804688 140 648.049804688 140 630.950195312 c 0,38,39
 140 622.400390625 140 622.400390625 155.200195312 606.724609375 c 128,-1,40
 170.400390625 591.049804688 170.400390625 591.049804688 170.400390625 571.099609375 c 0,41,42
 170.400390625 547.349609375 170.400390625 547.349609375 155.200195312 535 c 128,-1,43
 140 522.650390625 140 522.650390625 119.099609375 522.650390625 c 0,44,45
 95.349609375 522.650390625 95.349609375 522.650390625 78.724609375 539.75 c 128,-1,46
 62.099609375 556.849609375 62.099609375 556.849609375 62.099609375 581.549804688 c 0,47,48
 62.099609375 626.200195312 62.099609375 626.200195312 112.450195312 662.299804688 c 128,-1,49
 162.799804688 698.400390625 162.799804688 698.400390625 244.5 698.400390625 c 0,50,51
 335.700195312 698.400390625 335.700195312 698.400390625 390.799804688 652.799804688 c 128,-1,52
 445.900390625 607.200195312 445.900390625 607.200195312 445.900390625 544.5 c 0,53,54
 445.900390625 490.349609375 445.900390625 490.349609375 404.099609375 446.650390625 c 128,-1,55
 362.299804688 402.950195312 362.299804688 402.950195312 290.099609375 383.950195312 c 1,56,-1
 290.099609375 377.299804688 l 1,0,1
EndSplineSet
Substitution2: "sous-table 'sinf' Indices scientifiques lookups0" three.inferior
Substitution2: "sous-table 'numr' Num+AOkA-rateurs lookups0" three.numerator
Substitution2: "sous-table 'dnom' D+AOkA-nominateurs lookups0" three.denominator
Substitution2: "sous-table 'subs' Indice lookups0" three.subscript
Substitution2: "sous-table 'sups' Exposant lookups0" three.superior
EndChar

StartChar: four
Encoding: 20 52 23
Width: 556
Flags: W
TeX: 715 0
HStem: 0 21G<278 386> 224 36<59 278 386 469> 695 20G<329.5 386>
VStem: 278 108<0 224 260 563> 469 36<135 224 260 348>
LayerCount: 2
Fore
SplineSet
278 0 m 1,0,-1
 278 224 l 1,1,-1
 17 224 l 1,2,-1
 17 257 l 1,3,-1
 254 585 l 2,4,5
 320 676 320 676 339 715 c 1,6,-1
 386 715 l 1,7,-1
 386 260 l 1,8,-1
 469 260 l 1,9,-1
 469 348 l 1,10,-1
 505 348 l 1,11,-1
 505 135 l 1,12,-1
 469 135 l 1,13,-1
 469 224 l 1,14,-1
 386 224 l 1,15,-1
 386 0 l 1,16,-1
 278 0 l 1,0,-1
59 260 m 1,17,-1
 278 260 l 1,18,-1
 278 563 l 1,19,-1
 276 563 l 1,20,-1
 59 260 l 1,17,-1
EndSplineSet
Substitution2: "sous-table 'sinf' Indices scientifiques lookups0" four.inferior
Substitution2: "sous-table 'numr' Num+AOkA-rateurs lookups0" four.numerator
Substitution2: "sous-table 'dnom' D+AOkA-nominateurs lookups0" four.denominator
Substitution2: "sous-table 'subs' Indice lookups0" four.subscript
Substitution2: "sous-table 'sups' Exposant lookups0" four.superior
EndChar

StartChar: five
Encoding: 21 53 24
Width: 556
Flags: W
TeX: 762 12
HStem: -12 31<172.709 300.693> 442 42<183.881 314.867> 592 102<161 390.983>
VStem: 35 31<138.828 186.129> 375 120<125.42 362.053> 447 26<734.977 755.423>
LayerCount: 2
Fore
SplineSet
68 309 m 1,0,-1
 152 694 l 1,1,-1
 328 694 l 2,2,3
 378 694 378 694 405 707 c 128,-1,4
 432 720 432 720 447 762 c 1,5,-1
 473 753 l 1,6,7
 456 679 456 679 417.5 635.5 c 128,-1,8
 379 592 379 592 299 592 c 2,9,-1
 161 592 l 1,10,-1
 122 416 l 1,11,-1
 124 414 l 1,12,13
 180 484 180 484 280 484 c 0,14,15
 374 484 374 484 434.5 422 c 128,-1,16
 495 360 495 360 495 240 c 0,17,18
 495 126 495 126 430.5 57 c 128,-1,19
 366 -12 366 -12 260 -12 c 0,20,21
 82 -12 82 -12 35 185 c 1,22,-1
 66 190 l 1,23,24
 80 113 80 113 125.5 66 c 128,-1,25
 171 19 171 19 236 19 c 0,26,27
 375 19 375 19 375 225 c 0,28,29
 375 259 375 259 373.5 283.5 c 128,-1,30
 372 308 372 308 364.5 340 c 128,-1,31
 357 372 357 372 344 392.5 c 128,-1,32
 331 413 331 413 306 427.5 c 128,-1,33
 281 442 281 442 246 442 c 0,34,35
 186 442 186 442 148 402.5 c 128,-1,36
 110 363 110 363 95 302 c 1,37,-1
 68 309 l 1,0,-1
EndSplineSet
Substitution2: "sous-table 'sinf' Indices scientifiques lookups0" five.inferior
Substitution2: "sous-table 'numr' Num+AOkA-rateurs lookups0" five.numerator
Substitution2: "sous-table 'dnom' D+AOkA-nominateurs lookups0" five.denominator
Substitution2: "sous-table 'subs' Indice lookups0" five.subscript
Substitution2: "sous-table 'sups' Exposant lookups0" five.superior
EndChar

StartChar: six
Encoding: 22 54 25
Width: 556
Flags: W
TeX: 706 12
HStem: -12 31<231.531 337.235> 433 42<233.46 340.75> 675 31<260.153 366.982>
VStem: 51 114<152.347 490.823> 386 102<541.051 646.242> 391 114<122.409 364.965>
LayerCount: 2
Fore
SplineSet
165 246 m 0,0,1
 165 19 165 19 283 19 c 0,2,3
 340 19 340 19 365.5 67 c 128,-1,4
 391 115 391 115 391 221 c 0,5,6
 391 252 391 252 390 274.5 c 128,-1,7
 389 297 389 297 383 329.5 c 128,-1,8
 377 362 377 362 366 382.5 c 128,-1,9
 355 403 355 403 334 418 c 128,-1,10
 313 433 313 433 283 433 c 0,11,12
 165 433 165 433 165 246 c 0,0,1
505 238 m 0,13,14
 505 196 505 196 494.5 156 c 128,-1,15
 484 116 484 116 461 76.5 c 128,-1,16
 438 37 438 37 393 12.5 c 128,-1,17
 348 -12 348 -12 287 -12 c 0,18,19
 51 -12 51 -12 51 321 c 0,20,21
 51 392 51 392 64 455.5 c 128,-1,22
 77 519 77 519 106 577.5 c 128,-1,23
 135 636 135 636 190 671 c 128,-1,24
 245 706 245 706 320 706 c 0,25,26
 391 706 391 706 439.5 672 c 128,-1,27
 488 638 488 638 488 572 c 0,28,29
 488 551 488 551 476 537 c 128,-1,30
 464 523 464 523 442 523 c 0,31,32
 412 523 412 523 400.5 540.5 c 128,-1,33
 389 558 389 558 386 594 c 0,34,35
 383 639 383 639 370 657 c 128,-1,36
 357 675 357 675 318 675 c 0,37,38
 273 675 273 675 241 645.5 c 128,-1,39
 209 616 209 616 193.5 569 c 128,-1,40
 178 522 178 522 172 479 c 128,-1,41
 166 436 166 436 166 394 c 1,42,-1
 165 394 l 1,43,-1
 167 394 l 1,44,45
 224 475 224 475 316 475 c 0,46,47
 382 475 382 475 426 440 c 128,-1,48
 470 405 470 405 487.5 354 c 128,-1,49
 505 303 505 303 505 238 c 0,13,14
EndSplineSet
Substitution2: "sous-table 'sinf' Indices scientifiques lookups0" six.inferior
Substitution2: "sous-table 'numr' Num+AOkA-rateurs lookups0" six.numerator
Substitution2: "sous-table 'dnom' D+AOkA-nominateurs lookups0" six.denominator
Substitution2: "sous-table 'subs' Indice lookups0" six.subscript
Substitution2: "sous-table 'sups' Exposant lookups0" six.superior
EndChar

StartChar: seven
Encoding: 23 55 26
Width: 556
Flags: W
TeX: 694 0
HStem: 0 21G<177 307.5> 592 102<140 449>
VStem: 177 125<0 86.8267>
LayerCount: 2
Fore
SplineSet
59 489 m 1,0,-1
 140 694 l 1,1,-1
 561 694 l 1,2,3
 435 526 435 526 374 364.5 c 128,-1,4
 313 203 313 203 302 0 c 1,5,-1
 177 0 l 1,6,7
 232 284 232 284 449 592 c 1,8,-1
 130 592 l 1,9,-1
 83 478 l 1,10,-1
 59 489 l 1,0,-1
EndSplineSet
Substitution2: "sous-table 'sinf' Indices scientifiques lookups0" seven.inferior
Substitution2: "sous-table 'numr' Num+AOkA-rateurs lookups0" seven.numerator
Substitution2: "sous-table 'dnom' D+AOkA-nominateurs lookups0" seven.denominator
Substitution2: "sous-table 'subs' Indice lookups0" seven.subscript
Substitution2: "sous-table 'sups' Exposant lookups0" seven.superior
EndChar

StartChar: eight
Encoding: 24 56 27
Width: 556
Flags: W
TeX: 706 12
HStem: -12 31<204.118 355.525> 675 31<220.4 356.268>
VStem: 40 78<95.6167 269.184> 73 84<500.873 601.099> 415 72<469.001 626.231> 432 84<106.83 228.356>
LayerCount: 2
Fore
SplineSet
40 184 m 0,0,1
 40 247 40 247 80 296 c 128,-1,2
 120 345 120 345 182 366 c 1,3,4
 135 386 135 386 104 424.5 c 128,-1,5
 73 463 73 463 73 510 c 0,6,7
 73 599 73 599 137.5 652.5 c 128,-1,8
 202 706 202 706 293 706 c 0,9,10
 368 706 368 706 427.5 664.5 c 128,-1,11
 487 623 487 623 487 550 c 0,12,13
 487 440 487 440 371 402 c 1,14,-1
 371 400 l 1,15,16
 438 376 438 376 477 325.5 c 128,-1,17
 516 275 516 275 516 205 c 0,18,19
 516 106 516 106 447 47 c 128,-1,20
 378 -12 378 -12 279 -12 c 0,21,22
 173 -12 173 -12 114 34 c 0,23,24
 40 93 40 93 40 184 c 0,0,1
432 154 m 0,25,26
 432 178 432 178 424 199 c 128,-1,27
 416 220 416 220 405.5 236 c 128,-1,28
 395 252 395 252 374.5 268 c 128,-1,29
 354 284 354 284 339 293.5 c 128,-1,30
 324 303 324 303 295.5 316 c 128,-1,31
 267 329 267 329 253 334.5 c 128,-1,32
 239 340 239 340 209 351 c 1,33,34
 158 325 158 325 138 283 c 128,-1,35
 118 241 118 241 118 179 c 0,36,37
 118 107 118 107 161.5 63 c 128,-1,38
 205 19 205 19 286 19 c 0,39,40
 347 19 347 19 389.5 56.5 c 128,-1,41
 432 94 432 94 432 154 c 0,25,26
157 566 m 0,42,43
 157 538 157 538 168.5 516 c 128,-1,44
 180 494 180 494 203 479 c 128,-1,45
 226 464 226 464 245.5 454 c 128,-1,46
 265 444 265 444 296 432.5 c 128,-1,47
 327 421 327 421 341 414 c 1,48,49
 415 454 415 454 415 550 c 0,50,51
 415 608 415 608 381.5 641.5 c 128,-1,52
 348 675 348 675 290 675 c 0,53,54
 236 675 236 675 196.5 646 c 128,-1,55
 157 617 157 617 157 566 c 0,42,43
EndSplineSet
Substitution2: "sous-table 'sinf' Indices scientifiques lookups0" eight.inferior
Substitution2: "sous-table 'numr' Num+AOkA-rateurs lookups0" eight.numerator
Substitution2: "sous-table 'dnom' D+AOkA-nominateurs lookups0" eight.denominator
Substitution2: "sous-table 'subs' Indice lookups0" eight.subscript
Substitution2: "sous-table 'sups' Exposant lookups0" eight.superior
EndChar

StartChar: nine
Encoding: 25 57 28
Width: 556
Flags: W
TeX: 706 12
HStem: -12 31<189.018 295.847> 219 42<215.25 322.54> 675 31<218.765 324.469>
VStem: 51 114<329.035 571.591> 68 102<47.7578 152.949> 391 114<203.177 541.653>
LayerCount: 2
Fore
SplineSet
390 300 m 1,0,-1
 389 300 l 1,1,2
 332 219 332 219 240 219 c 0,3,4
 174 219 174 219 130 254 c 128,-1,5
 86 289 86 289 68.5 340 c 128,-1,6
 51 391 51 391 51 456 c 0,7,8
 51 498 51 498 61.5 538 c 128,-1,9
 72 578 72 578 95 617.5 c 128,-1,10
 118 657 118 657 163 681.5 c 128,-1,11
 208 706 208 706 269 706 c 0,12,13
 505 706 505 706 505 373 c 0,14,15
 505 302 505 302 492 238.5 c 128,-1,16
 479 175 479 175 450 116.5 c 128,-1,17
 421 58 421 58 366 23 c 128,-1,18
 311 -12 311 -12 236 -12 c 0,19,20
 165 -12 165 -12 116.5 22 c 128,-1,21
 68 56 68 56 68 122 c 0,22,23
 68 143 68 143 80 157 c 128,-1,24
 92 171 92 171 114 171 c 0,25,26
 144 171 144 171 155.5 153.5 c 128,-1,27
 167 136 167 136 170 100 c 0,28,29
 173 55 173 55 186 37 c 128,-1,30
 199 19 199 19 238 19 c 0,31,32
 283 19 283 19 315 48.5 c 128,-1,33
 347 78 347 78 362.5 125 c 128,-1,34
 378 172 378 172 384 215 c 128,-1,35
 390 258 390 258 390 300 c 1,0,-1
165 473 m 0,36,37
 165 442 165 442 166 419.5 c 128,-1,38
 167 397 167 397 173 364.5 c 128,-1,39
 179 332 179 332 190 311.5 c 128,-1,40
 201 291 201 291 222 276 c 128,-1,41
 243 261 243 261 273 261 c 0,42,43
 391 261 391 261 391 448 c 0,44,45
 391 675 391 675 273 675 c 0,46,47
 216 675 216 675 190.5 627 c 128,-1,48
 165 579 165 579 165 473 c 0,36,37
EndSplineSet
Substitution2: "sous-table 'sinf' Indices scientifiques lookups0" nine.inferior
Substitution2: "sous-table 'numr' Num+AOkA-rateurs lookups0" nine.numerator
Substitution2: "sous-table 'dnom' D+AOkA-nominateurs lookups0" nine.denominator
Substitution2: "sous-table 'subs' Indice lookups0" nine.subscript
Substitution2: "sous-table 'sups' Exposant lookups0" nine.superior
EndChar

StartChar: colon
Encoding: 26 58 29
Width: 278
Flags: W
TeX: 461 6
HStem: -6 138<91.1425 186.858> 323 138<91.1425 186.858>
VStem: 70 138<14.627 112.292 343.627 441.292>
LayerCount: 2
Fore
SplineSet
208 62 m 128,-1,1
 208 34 208 34 187.5 14 c 128,-1,2
 167 -6 167 -6 139 -6 c 128,-1,3
 111 -6 111 -6 90.5 14 c 128,-1,4
 70 34 70 34 70 62 c 128,-1,5
 70 90 70 90 90.5 111 c 128,-1,6
 111 132 111 132 139 132 c 128,-1,7
 167 132 167 132 187.5 111 c 128,-1,0
 208 90 208 90 208 62 c 128,-1,1
208 391 m 128,-1,9
 208 363 208 363 187.5 343 c 128,-1,10
 167 323 167 323 139 323 c 128,-1,11
 111 323 111 323 90.5 343 c 128,-1,12
 70 363 70 363 70 391 c 128,-1,13
 70 419 70 419 90.5 440 c 128,-1,14
 111 461 111 461 139 461 c 128,-1,15
 167 461 167 461 187.5 440 c 128,-1,8
 208 419 208 419 208 391 c 128,-1,9
EndSplineSet
EndChar

StartChar: semicolon
Encoding: 27 59 30
Width: 278
Flags: W
TeX: 461 192
HStem: -6 138<91.1425 177.468> 323 138<91.1425 186.858>
VStem: 70 138<14.627 111.776 343.627 441.292> 180 48<-70.5687 34>
LayerCount: 2
Fore
SplineSet
81 -192 m 1,0,-1
 70 -172 l 1,1,2
 180 -95 180 -95 180 -13 c 0,3,4
 180 -4 180 -4 178 6 c 1,5,6
 161 -6 161 -6 139 -6 c 0,7,8
 111 -6 111 -6 90.5 14 c 128,-1,9
 70 34 70 34 70 62 c 128,-1,10
 70 90 70 90 90.5 111 c 128,-1,11
 111 132 111 132 139 132 c 0,12,13
 183 132 183 132 205.5 94.5 c 128,-1,14
 228 57 228 57 228 11 c 0,15,16
 228 -49 228 -49 183.5 -105.5 c 128,-1,17
 139 -162 139 -162 81 -192 c 1,0,-1
208 391 m 128,-1,19
 208 363 208 363 187.5 343 c 128,-1,20
 167 323 167 323 139 323 c 128,-1,21
 111 323 111 323 90.5 343 c 128,-1,22
 70 363 70 363 70 391 c 128,-1,23
 70 419 70 419 90.5 440 c 128,-1,24
 111 461 111 461 139 461 c 128,-1,25
 167 461 167 461 187.5 440 c 128,-1,18
 208 419 208 419 208 391 c 128,-1,19
EndSplineSet
EndChar

StartChar: less
Encoding: 28 60 31
Width: 600
Flags: W
TeX: 514 12
LayerCount: 2
Fore
SplineSet
551 514 m 1,0,-1
 551 481 l 1,1,-1
 94 268 l 1,2,-1
 551 56 l 1,3,-1
 551 -12 l 1,4,-1
 49 217 l 1,5,-1
 49 285 l 1,6,-1
 551 514 l 1,0,-1
EndSplineSet
EndChar

StartChar: equal
Encoding: 29 61 32
Width: 600
Flags: W
TeX: 384 -118
HStem: 118 66<49 551> 318 66<49 551>
LayerCount: 2
Fore
SplineSet
551 384 m 1,0,-1
 551 318 l 1,1,-1
 49 318 l 1,2,-1
 49 384 l 1,3,-1
 551 384 l 1,0,-1
551 184 m 1,4,-1
 551 118 l 1,5,-1
 49 118 l 1,6,-1
 49 184 l 1,7,-1
 551 184 l 1,4,-1
EndSplineSet
EndChar

StartChar: greater
Encoding: 30 62 33
Width: 600
Flags: W
TeX: 514 12
LayerCount: 2
Fore
SplineSet
49 -12 m 1,0,-1
 49 62 l 1,1,-1
 506 267 l 1,2,-1
 49 479 l 1,3,-1
 49 514 l 1,4,-1
 551 285 l 1,5,-1
 551 217 l 1,6,-1
 49 -12 l 1,0,-1
EndSplineSet
EndChar

StartChar: question
Encoding: 31 63 34
Width: 444
Flags: W
TeX: 721 6
HStem: -6 138<139.142 234.858> 696 25<186.305 273.512>
VStem: 76 92<562.806 659.938> 118 138<14.627 112.292> 172 30<185 292.716> 314 102<421.361 627.993>
LayerCount: 2
Fore
SplineSet
202 263 m 2,0,-1
 202 185 l 1,1,-1
 172 185 l 1,2,-1
 172 264 l 2,3,4
 172 328 172 328 218 349 c 0,5,6
 277 375 277 375 295.5 409.5 c 128,-1,7
 314 444 314 444 314 522 c 0,8,9
 314 566 314 566 311 594 c 128,-1,10
 308 622 308 622 299.5 647 c 128,-1,11
 291 672 291 672 273.5 684 c 128,-1,12
 256 696 256 696 228 696 c 0,13,14
 204 696 204 696 186 683.5 c 128,-1,15
 168 671 168 671 168 648 c 0,16,17
 168 636 168 636 179 616 c 128,-1,18
 190 596 190 596 190 579 c 0,19,20
 190 558 190 558 173 542.5 c 128,-1,21
 156 527 156 527 135 527 c 0,22,23
 108 527 108 527 92 545.5 c 128,-1,24
 76 564 76 564 76 592 c 0,25,26
 76 652 76 652 126 686.5 c 128,-1,27
 176 721 176 721 238 721 c 0,28,29
 322 721 322 721 369 666.5 c 128,-1,30
 416 612 416 612 416 526 c 0,31,32
 416 486 416 486 408.5 457 c 128,-1,33
 401 428 401 428 385.5 408 c 128,-1,34
 370 388 370 388 347 372.5 c 128,-1,35
 324 357 324 357 293.5 342 c 128,-1,36
 263 327 263 327 224 308 c 0,37,38
 211 302 211 302 206.5 293 c 128,-1,39
 202 284 202 284 202 263 c 2,0,-1
256 62 m 128,-1,41
 256 34 256 34 235.5 14 c 128,-1,42
 215 -6 215 -6 187 -6 c 128,-1,43
 159 -6 159 -6 138.5 14 c 128,-1,44
 118 34 118 34 118 62 c 128,-1,45
 118 90 118 90 138.5 111 c 128,-1,46
 159 132 159 132 187 132 c 128,-1,47
 215 132 215 132 235.5 111 c 128,-1,40
 256 90 256 90 256 62 c 128,-1,41
EndSplineSet
EndChar

StartChar: at
Encoding: 32 64 35
Width: 800
Flags: W
TeX: 727 12
HStem: -12 42<312.339 552.602> 156 50<343.396 418.631> 156 36<550.625 643.888> 499 48<411.63 506.902> 691 36<318.877 527.801>
VStem: 30 90<229.59 475.454> 248 78<222.842 385.66> 728 42<302.321 506.437>
LayerCount: 2
Fore
SplineSet
326 298 m 0,0,1
 326 206 326 206 391 206 c 0,2,3
 430 206 430 206 473 273 c 128,-1,4
 516 340 516 340 516 431 c 0,5,6
 516 499 516 499 469 499 c 0,7,8
 423 499 423 499 374.5 441.5 c 128,-1,9
 326 384 326 384 326 298 c 0,0,1
536 493 m 1,10,-1
 545 535 l 1,11,-1
 619 535 l 1,12,-1
 551 266 l 2,13,14
 545 240 545 240 545 231 c 0,15,16
 545 223 545 223 547.5 215.5 c 128,-1,17
 550 208 550 208 560.5 200 c 128,-1,18
 571 192 571 192 588 192 c 0,19,20
 649 192 649 192 688.5 262.5 c 128,-1,21
 728 333 728 333 728 411 c 0,22,23
 728 458 728 458 707 506.5 c 128,-1,24
 686 555 686 555 648 596.5 c 128,-1,25
 610 638 610 638 550 664.5 c 128,-1,26
 490 691 490 691 420 691 c 0,27,28
 291 691 291 691 205.5 596 c 128,-1,29
 120 501 120 501 120 330 c 0,30,31
 120 210 120 210 207.5 120 c 128,-1,32
 295 30 295 30 430 30 c 0,33,34
 495 30 495 30 540.5 42.5 c 128,-1,35
 586 55 586 55 641 80 c 1,36,-1
 655 49 l 1,37,38
 525 -12 525 -12 431 -12 c 0,39,40
 351 -12 351 -12 282.5 11 c 128,-1,41
 214 34 214 34 168.5 71 c 128,-1,42
 123 108 123 108 91 155 c 128,-1,43
 59 202 59 202 44.5 249 c 128,-1,44
 30 296 30 296 30 341 c 0,45,46
 30 510 30 510 144 618.5 c 128,-1,47
 258 727 258 727 420 727 c 0,48,49
 568 727 568 727 669 636.5 c 128,-1,50
 770 546 770 546 770 412 c 0,51,52
 770 354 770 354 747.5 296.5 c 128,-1,53
 725 239 725 239 678 197.5 c 128,-1,54
 631 156 631 156 571 156 c 0,55,56
 485 156 485 156 479 232 c 1,57,-1
 477 232 l 1,58,59
 441 190 441 190 411.5 173 c 128,-1,60
 382 156 382 156 346 156 c 0,61,62
 306 156 306 156 277 189.5 c 128,-1,63
 248 223 248 223 248 280 c 0,64,65
 248 307 248 307 256 341 c 128,-1,66
 264 375 264 375 281 411.5 c 128,-1,67
 298 448 298 448 322 478 c 128,-1,68
 346 508 346 508 381.5 527.5 c 128,-1,69
 417 547 417 547 458 547 c 0,70,71
 520 547 520 547 534 493 c 1,72,-1
 536 493 l 1,10,-1
EndSplineSet
EndChar

StartChar: A
Encoding: 33 65 36
Width: 667
Flags: W
TeX: 727 0
HStem: 0 25<5 89 123 228 346 450 576 668> 249 31<206 373> 707 20G<318.276 351.581>
LayerCount: 2
Fore
SplineSet
89 25 m 1,0,-1
 325 727 l 1,1,-1
 345 727 l 1,2,-1
 576 25 l 1,3,-1
 668 25 l 1,4,-1
 668 0 l 1,5,-1
 346 0 l 1,6,-1
 346 25 l 1,7,-1
 450 25 l 1,8,-1
 382 249 l 1,9,-1
 196 249 l 1,10,-1
 123 25 l 1,11,-1
 228 25 l 1,12,-1
 228 0 l 1,13,-1
 5 0 l 1,14,-1
 5 25 l 1,15,-1
 89 25 l 1,0,-1
373 280 m 1,16,-1
 294 536 l 1,17,-1
 292 536 l 1,18,-1
 206 280 l 1,19,-1
 373 280 l 1,16,-1
EndSplineSet
Substitution2: "sous-table 'c2sc' Capitales vers petites capitales dans Latin lookup 0" a.sc
EndChar

StartChar: B
Encoding: 34 66 37
Width: 667
Flags: W
TeX: 715 0
HStem: 0 25<34 128 242 414.2> 375 31<242 394.332> 690 25<34 128 242 388.75>
VStem: 128 114<25 375 406 690> 440 120<468.69 645.811> 494 120<89.8853 293.408>
LayerCount: 2
Fore
SplineSet
242 375 m 1,0,-1
 242 25 l 1,1,-1
 338 25 l 2,2,3
 426 25 426 25 460 70 c 128,-1,4
 494 115 494 115 494 200 c 0,5,6
 494 375 494 375 354 375 c 2,7,-1
 242 375 l 1,0,-1
242 690 m 1,8,-1
 242 406 l 1,9,-1
 326 406 l 2,10,11
 387 406 387 406 413.5 435.5 c 128,-1,12
 440 465 440 465 440 540 c 0,13,14
 440 610 440 610 418 650 c 128,-1,15
 396 690 396 690 335 690 c 2,16,-1
 242 690 l 1,8,-1
128 25 m 1,17,-1
 128 690 l 1,18,-1
 34 690 l 1,19,-1
 34 715 l 1,20,-1
 376 715 l 2,21,22
 480 715 480 715 520 671 c 128,-1,23
 560 627 560 627 560 552 c 0,24,25
 560 423 560 423 406 391 c 1,26,-1
 406 389 l 1,27,28
 508 377 508 377 561 333 c 128,-1,29
 614 289 614 289 614 192 c 0,30,31
 614 85 614 85 554.5 42.5 c 128,-1,32
 495 0 495 0 384 0 c 2,33,-1
 34 0 l 1,34,-1
 34 25 l 1,35,-1
 128 25 l 1,17,-1
EndSplineSet
Substitution2: "sous-table 'c2sc' Capitales vers petites capitales dans Latin lookup 0" b.sc
EndChar

StartChar: C
Encoding: 35 67 38
Width: 722
Flags: W
TeX: 727 12
HStem: -12 31<319.721 480.324> 696 31<328.66 500.214>
VStem: 60 132<210.332 498.714> 615 30<176.989 257 481 555.801>
LayerCount: 2
Fore
SplineSet
646 669 m 1,0,-1
 646 481 l 1,1,-1
 616 481 l 1,2,3
 603 582 603 582 557.5 639 c 128,-1,4
 512 696 512 696 416 696 c 0,5,6
 359 696 359 696 317 676 c 128,-1,7
 275 656 275 656 251.5 625.5 c 128,-1,8
 228 595 228 595 214 548.5 c 128,-1,9
 200 502 200 502 196 458 c 128,-1,10
 192 414 192 414 192 358 c 0,11,12
 192 307 192 307 195 267.5 c 128,-1,13
 198 228 198 228 210 178.5 c 128,-1,14
 222 129 222 129 243.5 96.5 c 128,-1,15
 265 64 265 64 304.5 41.5 c 128,-1,16
 344 19 344 19 399 19 c 0,17,18
 497 19 497 19 552.5 87 c 128,-1,19
 608 155 608 155 615 257 c 1,20,-1
 645 257 l 1,21,-1
 645 59 l 1,22,23
 515 -12 515 -12 396 -12 c 0,24,25
 237 -12 237 -12 148.5 90 c 128,-1,26
 60 192 60 192 60 358 c 0,27,28
 60 521 60 521 155 624 c 128,-1,29
 250 727 250 727 410 727 c 0,30,31
 521 727 521 727 646 669 c 1,0,-1
EndSplineSet
Substitution2: "sous-table 'c2sc' Capitales vers petites capitales dans Latin lookup 0" c.sc
EndChar

StartChar: D
Encoding: 36 68 39
Width: 796
Flags: W
TeX: 715 0
HStem: 0 25<26 118 232 468.625> 690 25<26 118 232 474.668>
VStem: 118 114<25 690> 610 126<204.406 510.31>
LayerCount: 2
Fore
SplineSet
232 690 m 1,0,-1
 232 25 l 1,1,-1
 401 25 l 2,2,3
 507 25 507 25 558.5 119.5 c 128,-1,4
 610 214 610 214 610 357 c 0,5,6
 610 690 610 690 405 690 c 2,7,-1
 232 690 l 1,0,-1
118 25 m 1,8,-1
 118 690 l 1,9,-1
 26 690 l 1,10,-1
 26 715 l 1,11,-1
 425 715 l 2,12,13
 578 715 578 715 657 619.5 c 128,-1,14
 736 524 736 524 736 357 c 0,15,16
 736 285 736 285 720 223.5 c 128,-1,17
 704 162 704 162 670 110.5 c 128,-1,18
 636 59 636 59 574 29.5 c 128,-1,19
 512 0 512 0 428 0 c 2,20,-1
 26 0 l 1,21,-1
 26 25 l 1,22,-1
 118 25 l 1,8,-1
EndSplineSet
Substitution2: "sous-table 'c2sc' Capitales vers petites capitales dans Latin lookup 0" d.sc
EndChar

StartChar: E
Encoding: 37 69 40
Width: 704
Flags: W
TeX: 715 0
HStem: 0 25<34 128 242 484.517> 349 31<242 381.148> 495 21G<583 612> 690 25<34 128 242 468.192>
VStem: 128 114<25 349 380 690> 419 30<191 312.031 420.866 531> 586 26<495 558.307> 617 27<182.689 245>
LayerCount: 2
Fore
SplineSet
128 25 m 1,0,-1
 128 690 l 1,1,-1
 34 690 l 1,2,-1
 34 715 l 1,3,-1
 606 715 l 1,4,-1
 612 495 l 1,5,-1
 586 495 l 1,6,7
 580 530 580 530 574 554.5 c 128,-1,8
 568 579 568 579 558.5 600 c 128,-1,9
 549 621 549 621 539 634.5 c 128,-1,10
 529 648 529 648 511.5 659 c 128,-1,11
 494 670 494 670 476 675.5 c 128,-1,12
 458 681 458 681 428 684.5 c 128,-1,13
 398 688 398 688 367 689 c 128,-1,14
 336 690 336 690 290 690 c 2,15,-1
 242 690 l 1,16,-1
 242 380 l 1,17,-1
 296 380 l 2,18,19
 378 380 378 380 399 411 c 128,-1,20
 420 442 420 442 419 531 c 1,21,-1
 449 531 l 1,22,-1
 449 191 l 1,23,-1
 419 191 l 1,24,25
 419 227 419 227 418 246.5 c 128,-1,26
 417 266 417 266 412.5 287 c 128,-1,27
 408 308 408 308 400.5 317.5 c 128,-1,28
 393 327 393 327 379 335.5 c 128,-1,29
 365 344 365 344 345.5 346.5 c 128,-1,30
 326 349 326 349 296 349 c 2,31,-1
 242 349 l 1,32,-1
 242 25 l 1,33,-1
 393 25 l 2,34,35
 502 25 502 25 551 78 c 128,-1,36
 600 131 600 131 617 245 c 1,37,-1
 644 245 l 1,38,-1
 635 0 l 1,39,-1
 34 0 l 1,40,-1
 34 25 l 1,41,-1
 128 25 l 1,0,-1
EndSplineSet
Substitution2: "sous-table 'c2sc' Capitales vers petites capitales dans Latin lookup 0" e.sc
EndChar

StartChar: F
Encoding: 38 70 41
Width: 611
Flags: W
TeX: 715 0
HStem: 0 25<34 128 242 336> 349 31<242 381.148> 495 21G<583 612> 689 26<34 128 242 474.286>
VStem: 128 114<28 349 380 689> 419 30<191 312.031 420.866 531> 586 26<495 558.307>
LayerCount: 2
Fore
SplineSet
128 25 m 1,0,-1
 128 689 l 1,1,-1
 34 689 l 1,2,-1
 34 715 l 1,3,-1
 606 715 l 1,4,-1
 612 495 l 1,5,-1
 586 495 l 1,6,7
 580 530 580 530 574 554.5 c 128,-1,8
 568 579 568 579 558.5 600 c 128,-1,9
 549 621 549 621 539 634.5 c 128,-1,10
 529 648 529 648 511.5 659 c 128,-1,11
 494 670 494 670 476 675.5 c 128,-1,12
 458 681 458 681 428 684.5 c 128,-1,13
 398 688 398 688 367 689 c 128,-1,14
 336 690 336 690 290 690 c 2,15,-1
 242 690 l 1,16,-1
 242 380 l 1,17,-1
 296 380 l 2,18,19
 378 380 378 380 399 411 c 128,-1,20
 420 442 420 442 419 531 c 1,21,-1
 449 531 l 1,22,-1
 449 191 l 1,23,-1
 419 191 l 1,24,25
 419 227 419 227 418 246.5 c 128,-1,26
 417 266 417 266 412.5 287 c 128,-1,27
 408 308 408 308 400.5 317.5 c 128,-1,28
 393 327 393 327 379 335.5 c 128,-1,29
 365 344 365 344 345.5 346.5 c 128,-1,30
 326 349 326 349 296 349 c 2,31,-1
 242 349 l 1,32,-1
 242 28 l 1,33,-1
 336 28 l 1,34,-1
 336 0 l 1,35,-1
 34 0 l 1,36,-1
 34 25 l 1,37,-1
 128 25 l 1,0,-1
EndSplineSet
Substitution2: "sous-table 'c2sc' Capitales vers petites capitales dans Latin lookup 0" f.sc
EndChar

StartChar: G
Encoding: 39 71 42
Width: 778
Flags: W
TeX: 727 12
HStem: -12 31<319.721 486.566> 318 25<455 560 668 752> 696 31<321.453 476.704>
VStem: 60 132<210.332 497.75> 560 108<72.5559 318> 622 24<469 525.158>
LayerCount: 2
Fore
SplineSet
455 318 m 1,0,-1
 455 343 l 1,1,-1
 752 343 l 1,2,-1
 752 318 l 1,3,-1
 668 318 l 1,4,-1
 668 59 l 1,5,6
 534 -12 534 -12 396 -12 c 0,7,8
 237 -12 237 -12 148.5 90 c 128,-1,9
 60 192 60 192 60 358 c 0,10,11
 60 521 60 521 155 624 c 128,-1,12
 250 727 250 727 410 727 c 0,13,14
 521 727 521 727 646 669 c 1,15,-1
 646 469 l 1,16,-1
 622 469 l 1,17,18
 610 569 610 569 547.5 632.5 c 128,-1,19
 485 696 485 696 397 696 c 0,20,21
 192 696 192 696 192 358 c 0,22,23
 192 307 192 307 195 267.5 c 128,-1,24
 198 228 198 228 210 178.5 c 128,-1,25
 222 129 222 129 243.5 96.5 c 128,-1,26
 265 64 265 64 304.5 41.5 c 128,-1,27
 344 19 344 19 399 19 c 0,28,29
 474 19 474 19 517 51 c 128,-1,30
 560 83 560 83 560 144 c 2,31,-1
 560 318 l 1,32,-1
 455 318 l 1,0,-1
EndSplineSet
Substitution2: "sous-table 'c2sc' Capitales vers petites capitales dans Latin lookup 0" g.sc
EndChar

StartChar: H
Encoding: 40 72 43
Width: 778
Flags: W
TeX: 715 0
HStem: 0 25<26 120 234 324 454 544 658 752> 355 25<234 544> 690 25<26 120 234 324 454 544 658 752>
VStem: 120 114<25 355 380 690> 544 114<25 355 380 690>
LayerCount: 2
Fore
SplineSet
544 380 m 1,0,-1
 544 690 l 1,1,-1
 454 690 l 1,2,-1
 454 715 l 1,3,-1
 752 715 l 1,4,-1
 752 690 l 1,5,-1
 658 690 l 1,6,-1
 658 25 l 1,7,-1
 752 25 l 1,8,-1
 752 0 l 1,9,-1
 454 0 l 1,10,-1
 454 25 l 1,11,-1
 544 25 l 1,12,-1
 544 355 l 1,13,-1
 234 355 l 1,14,-1
 234 25 l 1,15,-1
 324 25 l 1,16,-1
 324 0 l 1,17,-1
 26 0 l 1,18,-1
 26 25 l 1,19,-1
 120 25 l 1,20,-1
 120 690 l 1,21,-1
 26 690 l 1,22,-1
 26 715 l 1,23,-1
 324 715 l 1,24,-1
 324 690 l 1,25,-1
 234 690 l 1,26,-1
 234 380 l 1,27,-1
 544 380 l 1,0,-1
EndSplineSet
Substitution2: "sous-table 'c2sc' Capitales vers petites capitales dans Latin lookup 0" h.sc
EndChar

StartChar: I
Encoding: 41 73 44
Width: 370
Flags: W
TeX: 715 0
HStem: 0 25<34 128 242 336> 690 25<34 128 242 336>
VStem: 128 114<25 690>
LayerCount: 2
Fore
SplineSet
128 25 m 1,0,-1
 128 690 l 1,1,-1
 34 690 l 1,2,-1
 34 715 l 1,3,-1
 336 715 l 1,4,-1
 336 690 l 1,5,-1
 242 690 l 1,6,-1
 242 25 l 1,7,-1
 336 25 l 1,8,-1
 336 0 l 1,9,-1
 34 0 l 1,10,-1
 34 25 l 1,11,-1
 128 25 l 1,0,-1
EndSplineSet
Substitution2: "sous-table 'c2sc' Capitales vers petites capitales dans Latin lookup 0" i.sc
EndChar

StartChar: J
Encoding: 42 74 45
Width: 463
Flags: W
TeX: 715 12
HStem: -12 31<101.408 206.769> 690 25<143 233 347 437>
VStem: 26 73<37.4707 115> 233 114<49.3525 690>
LayerCount: 2
Fore
SplineSet
143 690 m 1,0,-1
 143 715 l 1,1,-1
 437 715 l 1,2,-1
 437 690 l 1,3,-1
 347 690 l 1,4,-1
 347 127 l 2,5,6
 347 64 347 64 306 26 c 128,-1,7
 265 -12 265 -12 173 -12 c 0,8,9
 118 -12 118 -12 72 17 c 128,-1,10
 26 46 26 46 26 100 c 0,11,12
 26 130 26 130 41.5 149.5 c 128,-1,13
 57 169 57 169 90 169 c 0,14,15
 109 169 109 169 124.5 154 c 128,-1,16
 140 139 140 139 140 117 c 0,17,18
 140 96 140 96 130 82 c 128,-1,19
 120 68 120 68 109.5 59 c 128,-1,20
 99 50 99 50 99 43 c 0,21,22
 99 19 99 19 152 19 c 0,23,24
 179 19 179 19 196 27 c 128,-1,25
 213 35 213 35 220.5 50.5 c 128,-1,26
 228 66 228 66 230.5 80.5 c 128,-1,27
 233 95 233 95 233 117 c 2,28,-1
 233 690 l 1,29,-1
 143 690 l 1,0,-1
EndSplineSet
Substitution2: "sous-table 'c2sc' Capitales vers petites capitales dans Latin lookup 0" j.sc
EndChar

StartChar: K
Encoding: 43 75 46
Width: 704
Flags: W
TeX: 715 0
HStem: 0 25<34 128 242 332 412 490 625 709> 380 31<242 312> 690 25<34 128 242 334 391 481 517 607>
VStem: 128 114<25 380 411 690>
LayerCount: 2
Fore
SplineSet
128 25 m 1,0,-1
 128 690 l 1,1,-1
 34 690 l 1,2,-1
 34 715 l 1,3,-1
 334 715 l 1,4,-1
 334 690 l 1,5,-1
 242 690 l 1,6,-1
 242 411 l 1,7,-1
 312 411 l 1,8,-1
 481 690 l 1,9,-1
 391 690 l 1,10,-1
 391 715 l 1,11,-1
 607 715 l 1,12,-1
 607 690 l 1,13,-1
 517 690 l 1,14,-1
 388 476 l 1,15,-1
 625 25 l 1,16,-1
 709 25 l 1,17,-1
 709 0 l 1,18,-1
 412 0 l 1,19,-1
 412 25 l 1,20,-1
 490 25 l 1,21,-1
 312 380 l 1,22,-1
 242 380 l 1,23,-1
 242 25 l 1,24,-1
 332 25 l 1,25,-1
 332 0 l 1,26,-1
 34 0 l 1,27,-1
 34 25 l 1,28,-1
 128 25 l 1,0,-1
EndSplineSet
Substitution2: "sous-table 'c2sc' Capitales vers petites capitales dans Latin lookup 0" k.sc
EndChar

StartChar: L
Encoding: 44 76 47
Width: 667
Flags: W
TeX: 715 0
HStem: 0 25<34 128 242 488.125> 690 25<34 128 242 333>
VStem: 128 114<25 690> 617 24<206.715 264>
LayerCount: 2
Fore
SplineSet
128 25 m 1,0,-1
 128 690 l 1,1,-1
 34 690 l 1,2,-1
 34 715 l 1,3,-1
 333 715 l 1,4,-1
 333 690 l 1,5,-1
 242 690 l 1,6,-1
 242 25 l 1,7,-1
 408 25 l 2,8,9
 499 25 499 25 546.5 74 c 128,-1,10
 594 123 594 123 617 264 c 1,11,-1
 641 264 l 1,12,-1
 641 0 l 1,13,-1
 34 0 l 1,14,-1
 34 25 l 1,15,-1
 128 25 l 1,0,-1
EndSplineSet
Substitution2: "sous-table 'c2sc' Capitales vers petites capitales dans Latin lookup 0" l.sc
EndChar

StartChar: M
Encoding: 45 77 48
Width: 944
Flags: W
TeX: 715 12
HStem: 0 25<26 123 153 261 601 713 821 918> 690 25<26 123 821 918>
VStem: 123 30<25 673> 713 108<25 673>
LayerCount: 2
Fore
SplineSet
123 25 m 1,0,-1
 123 690 l 1,1,-1
 26 690 l 1,2,-1
 26 715 l 1,3,-1
 256 715 l 1,4,-1
 474 159 l 1,5,-1
 698 715 l 1,6,-1
 918 715 l 1,7,-1
 918 690 l 1,8,-1
 821 690 l 1,9,-1
 821 25 l 1,10,-1
 918 25 l 1,11,-1
 918 0 l 1,12,-1
 601 0 l 1,13,-1
 601 25 l 1,14,-1
 713 25 l 1,15,-1
 713 673 l 1,16,-1
 711 673 l 1,17,-1
 437 -12 l 1,18,-1
 422 -12 l 1,19,-1
 155 673 l 1,20,-1
 153 673 l 1,21,-1
 153 25 l 1,22,-1
 261 25 l 1,23,-1
 261 0 l 1,24,-1
 26 0 l 1,25,-1
 26 25 l 1,26,-1
 123 25 l 1,0,-1
EndSplineSet
Substitution2: "sous-table 'c2sc' Capitales vers petites capitales dans Latin lookup 0" m.sc
EndChar

StartChar: N
Encoding: 46 78 49
Width: 759
Flags: W
TeX: 715 12
HStem: 0 25<26 118 148 258> 690 25<26 118 503 611 641 733>
VStem: 118 30<25 667> 611 30<206 690>
LayerCount: 2
Fore
SplineSet
118 25 m 1,0,-1
 118 690 l 1,1,-1
 26 690 l 1,2,-1
 26 715 l 1,3,-1
 255 715 l 1,4,-1
 609 206 l 1,5,-1
 611 206 l 1,6,-1
 611 690 l 1,7,-1
 503 690 l 1,8,-1
 503 715 l 1,9,-1
 733 715 l 1,10,-1
 733 690 l 1,11,-1
 641 690 l 1,12,-1
 641 -7 l 1,13,-1
 622 -12 l 1,14,-1
 150 667 l 1,15,-1
 148 667 l 1,16,-1
 148 25 l 1,17,-1
 258 25 l 1,18,-1
 258 0 l 1,19,-1
 26 0 l 1,20,-1
 26 25 l 1,21,-1
 118 25 l 1,0,-1
EndSplineSet
Substitution2: "sous-table 'c2sc' Capitales vers petites capitales dans Latin lookup 0" n.sc
EndChar

StartChar: O
Encoding: 47 79 50
Width: 778
Flags: W
TeX: 727 12
HStem: -12 31<307.862 470.138> 696 31<310.375 467.625>
VStem: 60 132<217.724 496.818> 586 132<217.724 496.818>
LayerCount: 2
Fore
SplineSet
60 357 m 128,-1,1
 60 426 60 426 79.5 490 c 128,-1,2
 99 554 99 554 137.5 608 c 128,-1,3
 176 662 176 662 241 694.5 c 128,-1,4
 306 727 306 727 389 727 c 128,-1,5
 472 727 472 727 537 694.5 c 128,-1,6
 602 662 602 662 640.5 608 c 128,-1,7
 679 554 679 554 698.5 490 c 128,-1,8
 718 426 718 426 718 357 c 128,-1,9
 718 288 718 288 698.5 224 c 128,-1,10
 679 160 679 160 640.5 106.5 c 128,-1,11
 602 53 602 53 537 20.5 c 128,-1,12
 472 -12 472 -12 389 -12 c 128,-1,13
 306 -12 306 -12 241 20.5 c 128,-1,14
 176 53 176 53 137.5 106.5 c 128,-1,15
 99 160 99 160 79.5 224 c 128,-1,0
 60 288 60 288 60 357 c 128,-1,1
586 357 m 0,16,17
 586 416 586 416 582.5 460 c 128,-1,18
 579 504 579 504 566.5 551 c 128,-1,19
 554 598 554 598 533.5 627.5 c 128,-1,20
 513 657 513 657 476 676.5 c 128,-1,21
 439 696 439 696 389 696 c 128,-1,22
 339 696 339 696 302 676.5 c 128,-1,23
 265 657 265 657 244.5 627.5 c 128,-1,24
 224 598 224 598 211.5 551 c 128,-1,25
 199 504 199 504 195.5 460 c 128,-1,26
 192 416 192 416 192 357 c 0,27,28
 192 282 192 282 199 229 c 128,-1,29
 206 176 206 176 225 124.5 c 128,-1,30
 244 73 244 73 285.5 46 c 128,-1,31
 327 19 327 19 389 19 c 128,-1,32
 451 19 451 19 492.5 46 c 128,-1,33
 534 73 534 73 553 124.5 c 128,-1,34
 572 176 572 176 579 229 c 128,-1,35
 586 282 586 282 586 357 c 0,16,17
EndSplineSet
Substitution2: "sous-table 'c2sc' Capitales vers petites capitales dans Latin lookup 0" o.sc
EndChar

StartChar: P
Encoding: 48 80 51
Width: 593
Flags: W
TeX: 715 0
HStem: 0 25<34 128 242 332> 319 31<242 401.703> 690 25<34 128 242 388.961>
VStem: 128 114<25 319 350 690> 452 120<409.913 622.578>
LayerCount: 2
Fore
SplineSet
242 690 m 1,0,-1
 242 350 l 1,1,-1
 321 350 l 2,2,3
 404 350 404 350 428 389.5 c 128,-1,4
 452 429 452 429 452 525 c 0,5,6
 452 603 452 603 424 646.5 c 128,-1,7
 396 690 396 690 328 690 c 2,8,-1
 242 690 l 1,0,-1
128 25 m 1,9,-1
 128 690 l 1,10,-1
 34 690 l 1,11,-1
 34 715 l 1,12,-1
 364 715 l 2,13,14
 572 715 572 715 572 516 c 0,15,16
 572 418 572 418 519.5 368.5 c 128,-1,17
 467 319 467 319 384 319 c 2,18,-1
 242 319 l 1,19,-1
 242 25 l 1,20,-1
 332 25 l 1,21,-1
 332 0 l 1,22,-1
 34 0 l 1,23,-1
 34 25 l 1,24,-1
 128 25 l 1,9,-1
EndSplineSet
Substitution2: "sous-table 'c2sc' Capitales vers petites capitales dans Latin lookup 0" p.sc
EndChar

StartChar: Q
Encoding: 49 81 52
Width: 778
Flags: W
TeX: 727 191
HStem: -183 77<578.11 670.352> -46 65<294.823 424.006> 696 31<310.375 467.625>
VStem: 60 132<219.022 496.818> 586 132<218.086 496.818>
LayerCount: 2
Fore
SplineSet
195.5 460 m 128,-1,1
 192 416 192 416 192 349 c 128,-1,2
 192 282 192 282 199 229 c 128,-1,3
 206 176 206 176 225 124.5 c 128,-1,4
 244 73 244 73 285.5 46 c 128,-1,5
 327 19 327 19 389 19 c 128,-1,6
 451 19 451 19 492.5 46 c 128,-1,7
 534 73 534 73 553 124.5 c 128,-1,8
 572 176 572 176 579 229 c 128,-1,9
 586 282 586 282 586 349 c 128,-1,10
 586 416 586 416 582.5 460 c 128,-1,11
 579 504 579 504 566.5 551 c 128,-1,12
 554 598 554 598 533.5 627.5 c 128,-1,13
 513 657 513 657 476 676.5 c 128,-1,14
 439 696 439 696 389 696 c 128,-1,15
 339 696 339 696 302 676.5 c 128,-1,16
 265 657 265 657 244.5 627.5 c 128,-1,17
 224 598 224 598 211.5 551 c 128,-1,0
 199 504 199 504 195.5 460 c 128,-1,1
262.895409498 8.71608526518 m 1,18,19
 197 33 197 33 152.371977083 86.0949504008 c 0,20,21
 108 139 108 139 90.5 191 c 0,22,23
 60 282 60 282 60 353.814285714 c 0,24,25
 60 426 60 426 79.5 490 c 128,-1,26
 99 554 99 554 137.5 608 c 128,-1,27
 176 662 176 662 241 694.5 c 128,-1,28
 306 727 306 727 389 727 c 128,-1,29
 472 727 472 727 537 694.5 c 128,-1,30
 602 662 602 662 640.5 608 c 128,-1,31
 679 554 679 554 698.5 490 c 128,-1,32
 718 426 718 426 718 357 c 128,-1,33
 718 288 718 288 698.5 224 c 0,34,35
 647 55 647 55 500.247530823 5.20392080753 c 1,36,37
 519 -4 519 -4 532 -27 c 0,38,39
 576 -106 576 -106 637 -106 c 128,-1,40
 698 -106 698 -106 731 -32 c 1,41,-1
 758 -32 l 1,42,43
 711 -183 711 -183 589 -183 c 0,44,45
 516 -183 516 -183 445 -88 c 0,46,47
 415 -47 415 -47 354 -46 c 0,48,49
 261 -46 261 -46 199.966796875 -139.889648438 c 1,50,-1
 176 -140 l 1,51,52
 195 -58 195 -58 260 7 c 0,53,54
 261 8 261 8 262.895409498 8.71608526518 c 1,18,19
EndSplineSet
Substitution2: "sous-table 'c2sc' Capitales vers petites capitales dans Latin lookup 0" q.sc
EndChar

StartChar: R
Encoding: 50 82 53
Width: 648
Flags: W
TeX: 715 0
HStem: 0 25<34 128 242 332 609.337 675> 361 31<242 383.906> 690 25<34 128 242 362.245>
VStem: 128 114<25 361 392 690> 430 114<453.345 638.225>
LayerCount: 2
Fore
SplineSet
128 25 m 1,0,-1
 128 690 l 1,1,-1
 34 690 l 1,2,-1
 34 715 l 1,3,-1
 327 715 l 2,4,5
 434 715 434 715 489 679.5 c 128,-1,6
 544 644 544 644 544 543 c 0,7,8
 544 462 544 462 499.5 426.5 c 128,-1,9
 455 391 455 391 373 381 c 1,10,-1
 373 379 l 1,11,12
 435 372 435 372 467.5 363 c 128,-1,13
 500 354 500 354 526.5 333.5 c 128,-1,14
 553 313 553 313 563 278 c 128,-1,15
 573 243 573 243 576 183 c 0,16,17
 580 95 580 95 593.5 60 c 128,-1,18
 607 25 607 25 650 25 c 2,19,-1
 675 25 l 1,20,-1
 675 0 l 1,21,-1
 602 0 l 2,22,23
 565 0 565 0 541.5 7 c 128,-1,24
 518 14 518 14 503 25 c 128,-1,25
 488 36 488 36 480 62 c 128,-1,26
 472 88 472 88 468.5 113.5 c 128,-1,27
 465 139 465 139 462 188 c 0,28,29
 456 290 456 290 426.5 325.5 c 128,-1,30
 397 361 397 361 305 361 c 2,31,-1
 242 361 l 1,32,-1
 242 25 l 1,33,-1
 332 25 l 1,34,-1
 332 0 l 1,35,-1
 34 0 l 1,36,-1
 34 25 l 1,37,-1
 128 25 l 1,0,-1
242 690 m 1,38,-1
 242 392 l 1,39,-1
 312 392 l 2,40,41
 430 392 430 392 430 542 c 0,42,43
 430 615 430 615 398.5 652.5 c 128,-1,44
 367 690 367 690 294 690 c 2,45,-1
 242 690 l 1,38,-1
EndSplineSet
Substitution2: "sous-table 'c2sc' Capitales vers petites capitales dans Latin lookup 0" r.sc
EndChar

StartChar: S
Encoding: 51 83 54
Width: 556
Flags: W
TeX: 727 12
HStem: -12 31<205.484 362.489> 696 31<202.942 347.911>
VStem: 47 28<164.445 235> 59 78<515.759 619.901> 447 72<111.656 226.138> 449 27<527 571.189>
LayerCount: 2
Fore
SplineSet
54 33 m 1,0,-1
 47 235 l 1,1,-1
 75 235 l 1,2,3
 80 146 80 146 138.5 82.5 c 128,-1,4
 197 19 197 19 282 19 c 0,5,6
 350 19 350 19 398.5 54.5 c 128,-1,7
 447 90 447 90 447 158 c 0,8,9
 447 211 447 211 407 246 c 128,-1,10
 367 281 367 281 310 302 c 128,-1,11
 253 323 253 323 196 346.5 c 128,-1,12
 139 370 139 370 99 415.5 c 128,-1,13
 59 461 59 461 59 529 c 0,14,15
 59 620 59 620 125.5 673.5 c 128,-1,16
 192 727 192 727 285 727 c 0,17,18
 377 727 377 727 470 684 c 1,19,-1
 476 527 l 1,20,-1
 449 527 l 1,21,22
 413 696 413 696 274 696 c 0,23,24
 217 696 217 696 177 665.5 c 128,-1,25
 137 635 137 635 137 579 c 0,26,27
 137 537 137 537 165.5 507.5 c 128,-1,28
 194 478 194 478 236 462.5 c 128,-1,29
 278 447 278 447 328 426 c 128,-1,30
 378 405 378 405 420 382 c 128,-1,31
 462 359 462 359 490.5 313.5 c 128,-1,32
 519 268 519 268 519 205 c 0,33,34
 519 107 519 107 443.5 47.5 c 128,-1,35
 368 -12 368 -12 269 -12 c 0,36,37
 153 -12 153 -12 54 33 c 1,0,-1
EndSplineSet
Substitution2: "sous-table 'c2sc' Capitales vers petites capitales dans Latin lookup 0" s.sc
EndChar

StartChar: T
Encoding: 52 84 55
Width: 704
Flags: W
TeX: 715 0
HStem: 0 25<185 295 409 519> 684 31<148.004 295 409 556.5>
VStem: 34 30<486 575.497> 295 114<25 684> 640 30<486 572.136>
CounterMasks: 1 38
LayerCount: 2
Fore
SplineSet
295 25 m 1,0,-1
 295 684 l 1,1,-1
 209 684 l 2,2,3
 160 684 160 684 127 653 c 128,-1,4
 94 622 94 622 80 579.5 c 128,-1,5
 66 537 66 537 64 486 c 1,6,-1
 34 486 l 1,7,-1
 34 715 l 1,8,-1
 670 715 l 1,9,-1
 670 486 l 1,10,-1
 640 486 l 1,11,12
 637 567 637 567 601 625.5 c 128,-1,13
 565 684 565 684 495 684 c 2,14,-1
 409 684 l 1,15,-1
 409 25 l 1,16,-1
 519 25 l 1,17,-1
 519 0 l 1,18,-1
 185 0 l 1,19,-1
 185 25 l 1,20,-1
 295 25 l 1,0,-1
EndSplineSet
Substitution2: "sous-table 'c2sc' Capitales vers petites capitales dans Latin lookup 0" t.sc
EndChar

StartChar: U
Encoding: 53 85 56
Width: 778
Flags: W
TeX: 715 6
HStem: -6 31<312.055 536.88> 690 25<26 118 232 331 522 630 660 744>
VStem: 118 114<91.2383 690> 630 30<113.416 690>
LayerCount: 2
Fore
SplineSet
118 202 m 2,0,-1
 118 690 l 1,1,-1
 26 690 l 1,2,-1
 26 715 l 1,3,-1
 331 715 l 1,4,-1
 331 690 l 1,5,-1
 232 690 l 1,6,-1
 232 215 l 2,7,8
 232 163 232 163 239 130.5 c 128,-1,9
 246 98 246 98 266 72.5 c 128,-1,10
 286 47 286 47 324 36 c 128,-1,11
 362 25 362 25 422 25 c 0,12,13
 491 25 491 25 534 38 c 128,-1,14
 577 51 577 51 597 80 c 128,-1,15
 617 109 617 109 623.5 140.5 c 128,-1,16
 630 172 630 172 630 223 c 2,17,-1
 630 690 l 1,18,-1
 522 690 l 1,19,-1
 522 715 l 1,20,-1
 744 715 l 1,21,-1
 744 690 l 1,22,-1
 660 690 l 1,23,-1
 660 212 l 2,24,25
 660 155 660 155 650.5 119 c 128,-1,26
 641 83 641 83 614 52.5 c 128,-1,27
 587 22 587 22 532 8 c 128,-1,28
 477 -6 477 -6 391 -6 c 0,29,30
 302 -6 302 -6 246.5 7 c 128,-1,31
 191 20 191 20 163.5 49 c 128,-1,32
 136 78 136 78 127 112 c 128,-1,33
 118 146 118 146 118 202 c 2,0,-1
EndSplineSet
Substitution2: "sous-table 'c2sc' Capitales vers petites capitales dans Latin lookup 0" u.sc
EndChar

StartChar: V
Encoding: 54 86 57
Width: 648
Flags: W
TeX: 715 12
HStem: 690 25<-4 78 197 300 440 543 578 652>
LayerCount: 2
Fore
SplineSet
312 -12 m 1,0,-1
 78 690 l 1,1,-1
 -4 690 l 1,2,-1
 -4 715 l 1,3,-1
 300 715 l 1,4,-1
 300 690 l 1,5,-1
 197 690 l 1,6,-1
 364 164 l 1,7,-1
 366 164 l 1,8,-1
 543 690 l 1,9,-1
 440 690 l 1,10,-1
 440 715 l 1,11,-1
 652 715 l 1,12,-1
 652 690 l 1,13,-1
 578 690 l 1,14,-1
 334 -12 l 1,15,-1
 312 -12 l 1,0,-1
EndSplineSet
Substitution2: "sous-table 'c2sc' Capitales vers petites capitales dans Latin lookup 0" v.sc
EndChar

StartChar: W
Encoding: 55 87 58
Width: 1000
Flags: W
TeX: 715 12
HStem: 690 25<-16 62 182 284 380 476 600 702 804 900 932 1016>
LayerCount: 2
Fore
SplineSet
278 -12 m 1,0,-1
 62 690 l 1,1,-1
 -16 690 l 1,2,-1
 -16 715 l 1,3,-1
 284 715 l 1,4,-1
 284 690 l 1,5,-1
 182 690 l 1,6,-1
 330 185 l 1,7,-1
 332 185 l 1,8,-1
 476 690 l 1,9,-1
 380 690 l 1,10,-1
 380 715 l 1,11,-1
 702 715 l 1,12,-1
 702 690 l 1,13,-1
 600 690 l 1,14,-1
 731 185 l 1,15,-1
 733 185 l 1,16,-1
 900 690 l 1,17,-1
 804 690 l 1,18,-1
 804 715 l 1,19,-1
 1016 715 l 1,20,-1
 1016 690 l 1,21,-1
 932 690 l 1,22,-1
 694 -12 l 1,23,-1
 672 -12 l 1,24,-1
 497 643 l 1,25,-1
 495 643 l 1,26,-1
 300 -12 l 1,27,-1
 278 -12 l 1,0,-1
EndSplineSet
Substitution2: "sous-table 'c2sc' Capitales vers petites capitales dans Latin lookup 0" w.sc
EndChar

StartChar: X
Encoding: 56 88 59
Width: 722
Flags: W
TeX: 715 0
HStem: 0 25<26 110 146 251 372 474 604 696> 690 25<26 116 248 354 437 521 558 642>
LayerCount: 2
Fore
SplineSet
306 342 m 1,0,-1
 116 690 l 1,1,-1
 26 690 l 1,2,-1
 26 715 l 1,3,-1
 354 715 l 1,4,-1
 354 690 l 1,5,-1
 248 690 l 1,6,-1
 374 450 l 1,7,-1
 521 690 l 1,8,-1
 437 690 l 1,9,-1
 437 715 l 1,10,-1
 642 715 l 1,11,-1
 642 690 l 1,12,-1
 558 690 l 1,13,-1
 390 420 l 1,14,-1
 604 25 l 1,15,-1
 696 25 l 1,16,-1
 696 0 l 1,17,-1
 372 0 l 1,18,-1
 372 25 l 1,19,-1
 474 25 l 1,20,-1
 322 312 l 1,21,-1
 146 25 l 1,22,-1
 251 25 l 1,23,-1
 251 0 l 1,24,-1
 26 0 l 1,25,-1
 26 25 l 1,26,-1
 110 25 l 1,27,-1
 306 342 l 1,0,-1
EndSplineSet
Substitution2: "sous-table 'c2sc' Capitales vers petites capitales dans Latin lookup 0" x.sc
EndChar

StartChar: Y
Encoding: 57 89 60
Width: 593
Flags: W
TeX: 715 0
HStem: 0 25<157 252 366 458> 690 25<-19 65 196 300 401 503 534 612>
VStem: 252 114<25 360>
LayerCount: 2
Fore
SplineSet
252 25 m 1,0,-1
 252 360 l 1,1,-1
 65 690 l 1,2,-1
 -19 690 l 1,3,-1
 -19 715 l 1,4,-1
 300 715 l 1,5,-1
 300 690 l 1,6,-1
 196 690 l 1,7,-1
 354 398 l 1,8,-1
 503 690 l 1,9,-1
 401 690 l 1,10,-1
 401 715 l 1,11,-1
 612 715 l 1,12,-1
 612 690 l 1,13,-1
 534 690 l 1,14,-1
 366 362 l 1,15,-1
 366 25 l 1,16,-1
 458 25 l 1,17,-1
 458 0 l 1,18,-1
 157 0 l 1,19,-1
 157 25 l 1,20,-1
 252 25 l 1,0,-1
EndSplineSet
Substitution2: "sous-table 'c2sc' Capitales vers petites capitales dans Latin lookup 0" y.sc
EndChar

StartChar: Z
Encoding: 58 90 61
Width: 704
Flags: W
TeX: 715 0
HStem: 0 25<192 480.781> 500 21G<102 126> 690 25<223.274 476>
VStem: 102 24<500 578.24> 617 24<176.969 259>
LayerCount: 2
Fore
SplineSet
102 500 m 1,0,-1
 102 715 l 1,1,-1
 623 715 l 1,2,-1
 192 25 l 1,3,-1
 384 25 l 2,4,5
 450 25 450 25 495.5 42.5 c 128,-1,6
 541 60 541 60 566 94 c 128,-1,7
 591 128 591 128 602.5 167 c 128,-1,8
 614 206 614 206 617 259 c 1,9,-1
 641 259 l 1,10,-1
 641 0 l 1,11,-1
 46 0 l 1,12,-1
 476 690 l 1,13,-1
 292 690 l 2,14,15
 246 690 246 690 212.5 673 c 128,-1,16
 179 656 179 656 161 627.5 c 128,-1,17
 143 599 143 599 134.5 567.5 c 128,-1,18
 126 536 126 536 126 500 c 1,19,-1
 102 500 l 1,0,-1
EndSplineSet
Substitution2: "sous-table 'c2sc' Capitales vers petites capitales dans Latin lookup 0" z.sc
EndChar

StartChar: bracketleft
Encoding: 59 91 62
Width: 333
Flags: W
TeX: 715 249
HStem: -249 25<209 322> 690 25<209 322>
VStem: 119 90<-224 690>
LayerCount: 2
Fore
SplineSet
322 -249 m 1,0,-1
 119 -249 l 1,1,-1
 119 715 l 1,2,-1
 322 715 l 1,3,-1
 322 690 l 1,4,-1
 209 690 l 1,5,-1
 209 -224 l 1,6,-1
 322 -224 l 1,7,-1
 322 -249 l 1,0,-1
EndSplineSet
EndChar

StartChar: backslash
Encoding: 60 92 63
Width: 426
Flags: W
TeX: 727 12
HStem: 707 20G<-9 69.1759>
LayerCount: 2
Fore
SplineSet
59 727 m 1,0,-1
 435 -12 l 1,1,-1
 367 -12 l 1,2,-1
 -9 727 l 1,3,-1
 59 727 l 1,0,-1
EndSplineSet
EndChar

StartChar: bracketright
Encoding: 61 93 64
Width: 333
Flags: W
TeX: 715 249
HStem: -249 25<11 124> 690 25<11 124>
VStem: 124 90<-224 690>
LayerCount: 2
Fore
SplineSet
11 -249 m 1,0,-1
 11 -224 l 1,1,-1
 124 -224 l 1,2,-1
 124 690 l 1,3,-1
 11 690 l 1,4,-1
 11 715 l 1,5,-1
 214 715 l 1,6,-1
 214 -249 l 1,7,-1
 11 -249 l 1,0,-1
EndSplineSet
EndChar

StartChar: asciicircum
Encoding: 62 94 65
Width: 600
Flags: W
TeX: 694 -329
HStem: 674 20G<257.425 342.575>
LayerCount: 2
Fore
SplineSet
147 329 m 1,0,-1
 75 329 l 1,1,-1
 268 694 l 1,2,-1
 332 694 l 1,3,-1
 525 329 l 1,4,-1
 453 329 l 1,5,-1
 300 616 l 1,6,-1
 147 329 l 1,0,-1
EndSplineSet
EndChar

StartChar: underscore
Encoding: 63 95 66
Width: 500
Flags: W
TeX: -75 125
HStem: -125 50<0 500>
LayerCount: 2
Fore
SplineSet
500 -125 m 1,0,-1
 0 -125 l 1,1,-1
 0 -75 l 1,2,-1
 500 -75 l 1,3,-1
 500 -125 l 1,0,-1
EndSplineSet
EndChar

StartChar: quoteleft
Encoding: 211 8216 67
Width: 260
Flags: W
TeX: 727 -403
HStem: 403 138<101.532 187.858> 707 20G<169 209>
VStem: 51 48<501 605.569>
LayerCount: 2
Fore
SplineSet
198 727 m 1,0,-1
 209 707 l 1,1,2
 99 630 99 630 99 548 c 0,3,4
 99 539 99 539 101 529 c 1,5,6
 118 541 118 541 140 541 c 0,7,8
 168 541 168 541 188.5 521 c 128,-1,9
 209 501 209 501 209 473 c 128,-1,10
 209 445 209 445 188.5 424 c 128,-1,11
 168 403 168 403 140 403 c 0,12,13
 96 403 96 403 73.5 440.5 c 128,-1,14
 51 478 51 478 51 524 c 0,15,16
 51 584 51 584 95.5 640.5 c 128,-1,17
 140 697 140 697 198 727 c 1,0,-1
EndSplineSet
EndChar

StartChar: a
Encoding: 65 97 68
Width: 556
Flags: W
TeX: 502 12
HStem: -12 31<153.5 276.744> 0 25<468.458 532> 477 25<217.911 319.618>
VStem: 54 114<39.4515 215.013> 93 96<355.864 446.158> 351 102<91.49 293 313.853 443.486>
LayerCount: 2
Fore
SplineSet
181 275 m 2,0,-1
 241 289 l 2,1,2
 298 303 298 303 351 321 c 1,3,-1
 351 363 l 2,4,5
 351 421 351 421 335 449 c 128,-1,6
 319 477 319 477 273 477 c 0,7,8
 232 477 232 477 210.5 459.5 c 128,-1,9
 189 442 189 442 189 396 c 0,10,11
 189 367 189 367 177.5 355.5 c 128,-1,12
 166 344 166 344 139 344 c 0,13,14
 93 344 93 344 93 381 c 0,15,16
 93 426 93 426 122 454.5 c 128,-1,17
 151 483 151 483 188 492.5 c 128,-1,18
 225 502 225 502 270 502 c 0,19,20
 376 502 376 502 414.5 464.5 c 128,-1,21
 453 427 453 427 453 356 c 2,22,-1
 453 102 l 2,23,24
 453 74 453 74 456.5 58 c 128,-1,25
 460 42 460 42 472 35 c 128,-1,26
 484 28 484 28 495.5 26.5 c 128,-1,27
 507 25 507 25 532 25 c 1,28,-1
 532 0 l 1,29,-1
 456 0 l 2,30,31
 407 0 407 0 381.5 12 c 128,-1,32
 356 24 356 24 345 65 c 1,33,34
 317 22 317 22 280.5 5 c 128,-1,35
 244 -12 244 -12 191 -12 c 0,36,37
 116 -12 116 -12 85 24.5 c 128,-1,38
 54 61 54 61 54 133 c 0,39,40
 54 194 54 194 85 227 c 128,-1,41
 116 260 116 260 181 275 c 2,0,-1
351 293 m 1,42,-1
 247 262 l 2,43,44
 201 248 201 248 184.5 223 c 128,-1,45
 168 198 168 198 168 134 c 0,46,47
 168 19 168 19 233 19 c 0,48,49
 273 19 273 19 301.5 50.5 c 128,-1,50
 330 82 330 82 340.5 120.5 c 128,-1,51
 351 159 351 159 351 197 c 2,52,-1
 351 293 l 1,42,-1
EndSplineSet
Substitution2: "sous-table 'smcp' Bas-de-casse vers petites capitales dans Latin lookup 0" a.sc
EndChar

StartChar: b
Encoding: 66 98 69
Width: 593
Flags: W
TeX: 715 12
HStem: -12 31<271.846 367.086> 0 21G<101 203> 471 31<272.667 373.002> 690 25<27 101>
VStem: 101 102<0 71 76.1228 413.37 417 690> 431 108<116.004 384.713>
LayerCount: 2
Fore
SplineSet
101 0 m 1,0,-1
 101 690 l 1,1,-1
 27 690 l 1,2,-1
 27 715 l 1,3,-1
 203 715 l 1,4,-1
 203 417 l 1,5,-1
 205 417 l 1,6,7
 245 502 245 502 350 502 c 0,8,9
 435 502 435 502 487 439 c 128,-1,10
 539 376 539 376 539 245 c 0,11,12
 539 134 539 134 490 61 c 128,-1,13
 441 -12 441 -12 343 -12 c 0,14,15
 296 -12 296 -12 258.5 10 c 128,-1,16
 221 32 221 32 205 71 c 1,17,-1
 203 71 l 1,18,-1
 203 0 l 1,19,-1
 101 0 l 1,0,-1
200 292 m 2,20,-1
 200 210 l 2,21,22
 200 19 200 19 318 19 c 0,23,24
 431 19 431 19 431 245 c 0,25,26
 431 354 431 354 407 412.5 c 128,-1,27
 383 471 383 471 318 471 c 0,28,29
 299 471 299 471 280.5 463.5 c 128,-1,30
 262 456 262 456 242.5 437.5 c 128,-1,31
 223 419 223 419 211.5 381.5 c 128,-1,32
 200 344 200 344 200 292 c 2,20,-1
EndSplineSet
Substitution2: "sous-table 'smcp' Bas-de-casse vers petites capitales dans Latin lookup 0" b.sc
EndChar

StartChar: c
Encoding: 67 99 70
Width: 519
Flags: W
TeX: 502 12
HStem: -12 31<250.158 374.693> 477 25<244.882 350.847>
VStem: 54 114<134.192 353.891> 389 102<313.312 426.267>
LayerCount: 2
Fore
SplineSet
483 163 m 1,0,-1
 505 155 l 1,1,2
 472 62 472 62 417 25 c 128,-1,3
 362 -12 362 -12 287 -12 c 0,4,5
 182 -12 182 -12 118 63.5 c 128,-1,6
 54 139 54 139 54 245 c 0,7,8
 54 353 54 353 122 427.5 c 128,-1,9
 190 502 190 502 294 502 c 0,10,11
 369 502 369 502 430 462 c 128,-1,12
 491 422 491 422 491 361 c 0,13,14
 491 306 491 306 438 306 c 0,15,16
 389 306 389 306 389 358 c 0,17,18
 389 366 389 366 390 376 c 128,-1,19
 391 386 391 386 391 390 c 0,20,21
 391 431 391 431 366 454 c 128,-1,22
 341 477 341 477 295 477 c 0,23,24
 168 477 168 477 168 245 c 0,25,26
 168 19 168 19 316 19 c 0,27,28
 381 19 381 19 420 55.5 c 128,-1,29
 459 92 459 92 483 163 c 1,0,-1
EndSplineSet
Substitution2: "sous-table 'smcp' Bas-de-casse vers petites capitales dans Latin lookup 0" c.sc
EndChar

StartChar: d
Encoding: 68 100 71
Width: 593
Flags: W
TeX: 715 12
HStem: -12 31<225.914 321.154> 0 25<492 574> 471 31<219.998 320.333> 690 25<290 390>
VStem: 54 108<116.004 384.713> 390 102<25 71 76.1228 413.37 417 690>
LayerCount: 2
Fore
SplineSet
390 0 m 1,0,-1
 390 71 l 1,1,-1
 388 71 l 1,2,3
 372 32 372 32 334.5 10 c 128,-1,4
 297 -12 297 -12 250 -12 c 0,5,6
 152 -12 152 -12 103 61 c 128,-1,7
 54 134 54 134 54 245 c 0,8,9
 54 376 54 376 106 439 c 128,-1,10
 158 502 158 502 243 502 c 0,11,12
 348 502 348 502 388 417 c 1,13,-1
 390 417 l 1,14,-1
 390 690 l 1,15,-1
 290 690 l 1,16,-1
 290 715 l 1,17,-1
 492 715 l 1,18,-1
 492 25 l 1,19,-1
 574 25 l 1,20,-1
 574 0 l 1,21,-1
 390 0 l 1,0,-1
393 210 m 2,22,-1
 393 292 l 2,23,24
 393 344 393 344 381.5 381.5 c 128,-1,25
 370 419 370 419 350.5 437.5 c 128,-1,26
 331 456 331 456 312.5 463.5 c 128,-1,27
 294 471 294 471 275 471 c 0,28,29
 210 471 210 471 186 412.5 c 128,-1,30
 162 354 162 354 162 245 c 0,31,32
 162 19 162 19 275 19 c 0,33,34
 393 19 393 19 393 210 c 2,22,-1
EndSplineSet
Substitution2: "sous-table 'smcp' Bas-de-casse vers petites capitales dans Latin lookup 0" d.sc
EndChar

StartChar: e
Encoding: 69 101 72
Width: 556
Flags: W
TeX: 502 12
HStem: -12 31<247.147 379.713> 276 31<168 382> 477 25<230.948 327.278>
VStem: 54 114<123.83 276 307 357.369> 382 120<307 382.365>
LayerCount: 2
Fore
SplineSet
502 276 m 1,0,-1
 168 276 l 1,1,-1
 168 268 l 2,2,3
 168 222 168 222 171 188 c 128,-1,4
 174 154 174 154 183 120.5 c 128,-1,5
 192 87 192 87 208 66 c 128,-1,6
 224 45 224 45 251 32 c 128,-1,7
 278 19 278 19 316 19 c 0,8,9
 433 19 433 19 479 147 c 1,10,-1
 501 139 l 1,11,12
 470 55 470 55 418 21.5 c 128,-1,13
 366 -12 366 -12 280 -12 c 0,14,15
 172 -12 172 -12 113 61 c 128,-1,16
 54 134 54 134 54 245 c 0,17,18
 54 351 54 351 118 426.5 c 128,-1,19
 182 502 182 502 287 502 c 0,20,21
 383 502 383 502 442.5 439.5 c 128,-1,22
 502 377 502 377 502 276 c 1,0,-1
168 307 m 1,23,-1
 382 307 l 1,24,25
 382 335 382 335 381 353 c 128,-1,26
 380 371 380 371 374 397 c 128,-1,27
 368 423 368 423 357.5 438.5 c 128,-1,28
 347 454 347 454 326 465.5 c 128,-1,29
 305 477 305 477 276 477 c 0,30,31
 246 477 246 477 223.5 459.5 c 128,-1,32
 201 442 201 442 189.5 414.5 c 128,-1,33
 178 387 178 387 173 360 c 128,-1,34
 168 333 168 333 168 307 c 1,23,-1
EndSplineSet
Substitution2: "sous-table 'smcp' Bas-de-casse vers petites capitales dans Latin lookup 0" e.sc
EndChar

StartChar: f
Encoding: 70 102 73
Width: 333
Flags: W
TeX: 727 0
HStem: 0 25<19 103 205 286> 465 25<19 103 205 301> 588 116.5<325.468 392.227> 702 25<227.123 302.514>
VStem: 103 102<25 465 490 669.197> 320 90<599.346 687.278>
LayerCount: 2
Fore
SplineSet
103 465 m 1,0,-1
 19 465 l 1,1,-1
 19 490 l 1,2,-1
 103 490 l 1,3,-1
 103 590 l 2,4,5
 103 641 103 641 128 673.5 c 128,-1,6
 153 706 153 706 186 716.5 c 128,-1,7
 219 727 219 727 261 727 c 0,8,9
 319 727 319 727 364.5 704.5 c 128,-1,10
 410 682 410 682 410 630 c 0,11,12
 410 610 410 610 398.5 599 c 128,-1,13
 387 588 387 588 367 588 c 0,14,15
 320 588 320 588 320 635 c 0,16,17
 320 702 320 702 267 702 c 0,18,19
 230 702 230 702 217.5 677.5 c 128,-1,20
 205 653 205 653 205 602 c 2,21,-1
 205 490 l 1,22,-1
 301 490 l 1,23,-1
 301 465 l 1,24,-1
 205 465 l 1,25,-1
 205 25 l 1,26,-1
 286 25 l 1,27,-1
 286 0 l 1,28,-1
 19 0 l 1,29,-1
 19 25 l 1,30,-1
 103 25 l 1,31,-1
 103 465 l 1,0,-1
EndSplineSet
Substitution2: "sous-table 'smcp' Bas-de-casse vers petites capitales dans Latin lookup 0" f.sc
EndChar

StartChar: g
Encoding: 71 103 74
Width: 574
Flags: W
TeX: 502 220
HStem: -220 31<193.819 400.918> 15 98<167.594 465.759> 189 25<240.467 320.329> 466 36<434.006 497> 477 25<236.404 325.495>
VStem: 54 42<122.514 196.919> 57 72<-147.652 -22.125> 109 96<265.679 430.084> 357 96<265.71 443.371> 478 67<410.828 465.424> 494 36<-120.766 -15.9081>
LayerCount: 2
Fore
SplineSet
154 16 m 1,0,-1
 154 17 l 1,1,2
 108 28 108 28 81 58.5 c 128,-1,3
 54 89 54 89 54 132 c 0,4,5
 54 212 54 212 144 245 c 1,6,7
 109 292 109 292 109 351 c 0,8,9
 109 419 109 419 157.5 460.5 c 128,-1,10
 206 502 206 502 273 502 c 0,11,12
 365 502 365 502 411 461 c 1,13,14
 441 502 441 502 485 502 c 0,15,16
 509 502 509 502 527 486.5 c 128,-1,17
 545 471 545 471 545 444 c 0,18,19
 545 400 545 400 512 400 c 0,20,21
 494 400 494 400 486 410.5 c 128,-1,22
 478 421 478 421 478 433 c 128,-1,23
 478 445 478 445 473.5 455.5 c 128,-1,24
 469 466 469 466 458 466 c 0,25,26
 449 466 449 466 439.5 455.5 c 128,-1,27
 430 445 430 445 428 436 c 1,28,29
 453 395 453 395 453 349 c 0,30,31
 453 277 453 277 404.5 233 c 128,-1,32
 356 189 356 189 283 189 c 0,33,34
 220 189 220 189 167 220 c 1,35,36
 143 218 143 218 119.5 199.5 c 128,-1,37
 96 181 96 181 96 157 c 0,38,39
 96 131 96 131 116.5 122 c 128,-1,40
 137 113 137 113 183 113 c 0,41,42
 212 113 212 113 269.5 115 c 128,-1,43
 327 117 327 117 357 117 c 0,44,45
 530 117 530 117 530 -40 c 0,46,47
 530 -90 530 -90 509.5 -126 c 128,-1,48
 489 -162 489 -162 453.5 -182 c 128,-1,49
 418 -202 418 -202 377.5 -211 c 128,-1,50
 337 -220 337 -220 291 -220 c 0,51,52
 253 -220 253 -220 217 -214.5 c 128,-1,53
 181 -209 181 -209 142.5 -195 c 128,-1,54
 104 -181 104 -181 80.5 -151.5 c 128,-1,55
 57 -122 57 -122 57 -80 c 0,56,57
 57 -40 57 -40 85 -16 c 128,-1,58
 113 8 113 8 154 16 c 1,0,-1
205 355 m 0,59,60
 205 328 205 328 207 309.5 c 128,-1,61
 209 291 209 291 215.5 266 c 128,-1,62
 222 241 222 241 238.5 227.5 c 128,-1,63
 255 214 255 214 280 214 c 0,64,65
 357 214 357 214 357 342 c 0,66,67
 357 371 357 371 355.5 388.5 c 128,-1,68
 354 406 354 406 348 429.5 c 128,-1,69
 342 453 342 453 325.5 465 c 128,-1,70
 309 477 309 477 284 477 c 0,71,72
 235 477 235 477 220 445 c 128,-1,73
 205 413 205 413 205 355 c 0,59,60
344 15 m 0,74,75
 296 15 296 15 267 13.5 c 128,-1,76
 238 12 238 12 208.5 6.5 c 128,-1,77
 179 1 179 1 163.5 -9.5 c 128,-1,78
 148 -20 148 -20 138.5 -38.5 c 128,-1,79
 129 -57 129 -57 129 -85 c 0,80,81
 129 -142 129 -142 174.5 -165.5 c 128,-1,82
 220 -189 220 -189 303 -189 c 0,83,84
 379 -189 379 -189 436.5 -159.5 c 128,-1,85
 494 -130 494 -130 494 -76 c 0,86,87
 494 -20 494 -20 460 -2.5 c 128,-1,88
 426 15 426 15 344 15 c 0,74,75
EndSplineSet
Substitution2: "sous-table 'smcp' Bas-de-casse vers petites capitales dans Latin lookup 0" g.sc
EndChar

StartChar: h
Encoding: 72 104 75
Width: 630
Flags: W
TeX: 715 0
HStem: 0 25<17 103 205 284 346 425 527 606> 466 36<291.144 398.615> 690 25<17 103>
VStem: 103 102<25 386.948 396 690> 425 102<25 443.607>
LayerCount: 2
Fore
SplineSet
17 25 m 1,0,-1
 103 25 l 1,1,-1
 103 690 l 1,2,-1
 17 690 l 1,3,-1
 17 715 l 1,4,-1
 205 715 l 1,5,-1
 205 396 l 1,6,-1
 207 396 l 1,7,8
 255 502 255 502 380 502 c 0,9,10
 455 502 455 502 491 468.5 c 128,-1,11
 527 435 527 435 527 361 c 2,12,-1
 527 25 l 1,13,-1
 606 25 l 1,14,-1
 606 0 l 1,15,-1
 346 0 l 1,16,-1
 346 25 l 1,17,-1
 425 25 l 1,18,-1
 425 356 l 2,19,20
 425 406 425 406 408.5 436 c 128,-1,21
 392 466 392 466 345 466 c 0,22,23
 279 466 279 466 242 413 c 128,-1,24
 205 360 205 360 205 285 c 2,25,-1
 205 25 l 1,26,-1
 284 25 l 1,27,-1
 284 0 l 1,28,-1
 17 0 l 1,29,-1
 17 25 l 1,0,-1
EndSplineSet
Substitution2: "sous-table 'smcp' Bas-de-casse vers petites capitales dans Latin lookup 0" h.sc
EndChar

StartChar: i
Encoding: 73 105 76
Width: 316
Flags: W
TeX: 706 0
HStem: 0 25<21 107 209 295> 465 25<21 107> 586 120<116.564 199.436>
VStem: 98 120<600.783 687.951> 107 102<25 465>
LayerCount: 2
Fore
SplineSet
107 25 m 1,0,-1
 107 465 l 1,1,-1
 21 465 l 1,2,-1
 21 490 l 1,3,-1
 209 490 l 1,4,-1
 209 25 l 1,5,-1
 295 25 l 1,6,-1
 295 0 l 1,7,-1
 21 0 l 1,8,-1
 21 25 l 1,9,-1
 107 25 l 1,0,-1
98 646 m 0,10,11
 98 671 98 671 116 688.5 c 128,-1,12
 134 706 134 706 158 706 c 128,-1,13
 182 706 182 706 200 688.5 c 128,-1,14
 218 671 218 671 218 646 c 0,15,16
 218 622 218 622 200 604 c 128,-1,17
 182 586 182 586 158 586 c 128,-1,18
 134 586 134 586 116 604 c 128,-1,19
 98 622 98 622 98 646 c 0,10,11
EndSplineSet
Substitution2: "sous-table 'smcp' Bas-de-casse vers petites capitales dans Latin lookup 0" i.sc
EndChar

StartChar: j
Encoding: 74 106 77
Width: 316
Flags: W
TeX: 706 220
HStem: -220 21G<-5.69565 25.5> 465 25<21 107> 586 120<116.564 199.436>
VStem: 98 120<600.783 687.951> 107 102<-100.818 465>
LayerCount: 2
Fore
SplineSet
21 465 m 1,0,-1
 21 490 l 1,1,-1
 209 490 l 1,2,-1
 209 2 l 2,3,4
 209 -31 209 -31 204.5 -56 c 128,-1,5
 200 -81 200 -81 187 -101.5 c 128,-1,6
 174 -122 174 -122 161.5 -135.5 c 128,-1,7
 149 -149 149 -149 120.5 -165 c 128,-1,8
 92 -181 92 -181 70 -191 c 128,-1,9
 48 -201 48 -201 3 -220 c 1,10,-1
 -7 -197 l 1,11,12
 63 -159 63 -159 85 -121.5 c 128,-1,13
 107 -84 107 -84 107 10 c 2,14,-1
 107 465 l 1,15,-1
 21 465 l 1,0,-1
98 646 m 0,16,17
 98 671 98 671 116 688.5 c 128,-1,18
 134 706 134 706 158 706 c 128,-1,19
 182 706 182 706 200 688.5 c 128,-1,20
 218 671 218 671 218 646 c 0,21,22
 218 622 218 622 200 604 c 128,-1,23
 182 586 182 586 158 586 c 128,-1,24
 134 586 134 586 116 604 c 128,-1,25
 98 622 98 622 98 646 c 0,16,17
EndSplineSet
Substitution2: "sous-table 'smcp' Bas-de-casse vers petites capitales dans Latin lookup 0" j.sc
EndChar

StartChar: k
Encoding: 75 107 78
Width: 593
Flags: W
TeX: 715 0
HStem: 0 25<21 103 205 285 331 409 536 578> 240 25<205 257> 465 25<286 382 419 497> 690 25<25 103>
VStem: 103 102<25 240 265 690>
LayerCount: 2
Fore
SplineSet
103 25 m 1,0,-1
 103 690 l 1,1,-1
 25 690 l 1,2,-1
 25 715 l 1,3,-1
 205 715 l 1,4,-1
 205 265 l 1,5,-1
 266 265 l 1,6,-1
 382 465 l 1,7,-1
 286 465 l 1,8,-1
 286 490 l 1,9,-1
 497 490 l 1,10,-1
 497 465 l 1,11,-1
 419 465 l 1,12,-1
 325 309 l 1,13,-1
 536 25 l 1,14,-1
 578 25 l 1,15,-1
 578 0 l 1,16,-1
 331 0 l 1,17,-1
 331 25 l 1,18,-1
 409 25 l 1,19,-1
 257 240 l 1,20,-1
 205 240 l 1,21,-1
 205 25 l 1,22,-1
 285 25 l 1,23,-1
 285 0 l 1,24,-1
 21 0 l 1,25,-1
 21 25 l 1,26,-1
 103 25 l 1,0,-1
EndSplineSet
Substitution2: "sous-table 'smcp' Bas-de-casse vers petites capitales dans Latin lookup 0" k.sc
EndChar

StartChar: l
Encoding: 76 108 79
Width: 316
Flags: W
TeX: 715 0
HStem: 0 25<21 107 209 295> 690 25<21 107>
VStem: 107 102<25 690>
LayerCount: 2
Fore
SplineSet
21 690 m 1,0,-1
 21 715 l 1,1,-1
 209 715 l 1,2,-1
 209 25 l 1,3,-1
 295 25 l 1,4,-1
 295 0 l 1,5,-1
 21 0 l 1,6,-1
 21 25 l 1,7,-1
 107 25 l 1,8,-1
 107 690 l 1,9,-1
 21 690 l 1,0,-1
EndSplineSet
Substitution2: "sous-table 'smcp' Bas-de-casse vers petites capitales dans Latin lookup 0" l.sc
EndChar

StartChar: m
Encoding: 77 109 80
Width: 944
Flags: W
TeX: 502 0
HStem: 0 25<17 103 205 284 342 421 523 602 660 739 841 920> 465 25<17 103> 466 36<291.397 393.436 611.232 714.496>
VStem: 103 102<25 388.113 396 465> 421 102<25 383.358 390 441.598> 739 102<25 445.04>
CounterMasks: 1 1c
LayerCount: 2
Fore
SplineSet
421 25 m 1,0,-1
 421 356 l 2,1,2
 421 406 421 406 404.5 436 c 128,-1,3
 388 466 388 466 340 466 c 0,4,5
 277 466 277 466 241 412.5 c 128,-1,6
 205 359 205 359 205 285 c 2,7,-1
 205 25 l 1,8,-1
 284 25 l 1,9,-1
 284 0 l 1,10,-1
 17 0 l 1,11,-1
 17 25 l 1,12,-1
 103 25 l 1,13,-1
 103 465 l 1,14,-1
 17 465 l 1,15,-1
 17 490 l 1,16,-1
 205 490 l 1,17,-1
 205 396 l 1,18,-1
 207 396 l 1,19,20
 255 502 255 502 380 502 c 0,21,22
 509 502 509 502 521 390 c 1,23,-1
 523 390 l 1,24,25
 544 445 544 445 590.5 473.5 c 128,-1,26
 637 502 637 502 694 502 c 0,27,28
 769 502 769 502 805 468.5 c 128,-1,29
 841 435 841 435 841 361 c 2,30,-1
 841 25 l 1,31,-1
 920 25 l 1,32,-1
 920 0 l 1,33,-1
 660 0 l 1,34,-1
 660 25 l 1,35,-1
 739 25 l 1,36,-1
 739 356 l 2,37,38
 739 406 739 406 723.5 436 c 128,-1,39
 708 466 708 466 664 466 c 0,40,41
 597 466 597 466 560 410.5 c 128,-1,42
 523 355 523 355 523 279 c 2,43,-1
 523 25 l 1,44,-1
 602 25 l 1,45,-1
 602 0 l 1,46,-1
 342 0 l 1,47,-1
 342 25 l 1,48,-1
 421 25 l 1,0,-1
EndSplineSet
Substitution2: "sous-table 'smcp' Bas-de-casse vers petites capitales dans Latin lookup 0" m.sc
EndChar

StartChar: n
Encoding: 78 110 81
Width: 630
Flags: W
TeX: 502 0
HStem: 0 25<17 103 205 284 346 425 527 606> 465 25<17 103> 466 36<291.144 398.615>
VStem: 103 102<25 386.948 396 465> 425 102<25 443.607>
LayerCount: 2
Fore
SplineSet
17 25 m 1,0,-1
 103 25 l 1,1,-1
 103 465 l 1,2,-1
 17 465 l 1,3,-1
 17 490 l 1,4,-1
 205 490 l 1,5,-1
 205 396 l 1,6,-1
 207 396 l 1,7,8
 255 502 255 502 380 502 c 0,9,10
 455 502 455 502 491 468.5 c 128,-1,11
 527 435 527 435 527 361 c 2,12,-1
 527 25 l 1,13,-1
 606 25 l 1,14,-1
 606 0 l 1,15,-1
 346 0 l 1,16,-1
 346 25 l 1,17,-1
 425 25 l 1,18,-1
 425 356 l 2,19,20
 425 406 425 406 408.5 436 c 128,-1,21
 392 466 392 466 345 466 c 0,22,23
 279 466 279 466 242 413 c 128,-1,24
 205 360 205 360 205 285 c 2,25,-1
 205 25 l 1,26,-1
 284 25 l 1,27,-1
 284 0 l 1,28,-1
 17 0 l 1,29,-1
 17 25 l 1,0,-1
EndSplineSet
Substitution2: "sous-table 'smcp' Bas-de-casse vers petites capitales dans Latin lookup 0" n.sc
EndChar

StartChar: o
Encoding: 79 111 82
Width: 574
Flags: W
TeX: 502 12
HStem: -12 25<230.804 343.196> 477 25<230.804 343.196>
VStem: 54 114<133.302 356.698> 406 114<133.302 356.698>
LayerCount: 2
Fore
SplineSet
54 245 m 128,-1,1
 54 286 54 286 66 328 c 128,-1,2
 78 370 78 370 103 410.5 c 128,-1,3
 128 451 128 451 176 476.5 c 128,-1,4
 224 502 224 502 287 502 c 128,-1,5
 350 502 350 502 398 476.5 c 128,-1,6
 446 451 446 451 471 410.5 c 128,-1,7
 496 370 496 370 508 328 c 128,-1,8
 520 286 520 286 520 245 c 128,-1,9
 520 204 520 204 508 162 c 128,-1,10
 496 120 496 120 471 79.5 c 128,-1,11
 446 39 446 39 398 13.5 c 128,-1,12
 350 -12 350 -12 287 -12 c 128,-1,13
 224 -12 224 -12 176 13.5 c 128,-1,14
 128 39 128 39 103 79.5 c 128,-1,15
 78 120 78 120 66 162 c 128,-1,0
 54 204 54 204 54 245 c 128,-1,1
168 245 m 128,-1,17
 168 210 168 210 168.5 190.5 c 128,-1,18
 169 171 169 171 172.5 139 c 128,-1,19
 176 107 176 107 183.5 88.5 c 128,-1,20
 191 70 191 70 203.5 50.5 c 128,-1,21
 216 31 216 31 237.5 22 c 128,-1,22
 259 13 259 13 287 13 c 128,-1,23
 315 13 315 13 336.5 22 c 128,-1,24
 358 31 358 31 370.5 50.5 c 128,-1,25
 383 70 383 70 390.5 88.5 c 128,-1,26
 398 107 398 107 401.5 139 c 128,-1,27
 405 171 405 171 405.5 190.5 c 128,-1,28
 406 210 406 210 406 245 c 128,-1,29
 406 280 406 280 405.5 299.5 c 128,-1,30
 405 319 405 319 401.5 351 c 128,-1,31
 398 383 398 383 390.5 401.5 c 128,-1,32
 383 420 383 420 370.5 439.5 c 128,-1,33
 358 459 358 459 336.5 468 c 128,-1,34
 315 477 315 477 287 477 c 128,-1,35
 259 477 259 477 237.5 468 c 128,-1,36
 216 459 216 459 203.5 439.5 c 128,-1,37
 191 420 191 420 183.5 401.5 c 128,-1,38
 176 383 176 383 172.5 351 c 128,-1,39
 169 319 169 319 168.5 299.5 c 128,-1,16
 168 280 168 280 168 245 c 128,-1,17
EndSplineSet
Substitution2: "sous-table 'smcp' Bas-de-casse vers petites capitales dans Latin lookup 0" o.sc
EndChar

StartChar: p
Encoding: 80 112 83
Width: 593
Flags: W
TeX: 502 220
HStem: -220 25<12 101 203 289> -12 31<261.566 367.438> 465 25<17 101> 471 31<272.667 373.002>
VStem: 101 102<-195 57 76.1228 413.37 417 465> 431 108<111.261 384.713>
LayerCount: 2
Fore
SplineSet
12 -220 m 1,0,-1
 12 -195 l 1,1,-1
 101 -195 l 1,2,-1
 101 465 l 1,3,-1
 17 465 l 1,4,-1
 17 490 l 1,5,-1
 203 490 l 1,6,-1
 203 417 l 1,7,-1
 205 417 l 1,8,9
 245 502 245 502 350 502 c 0,10,11
 435 502 435 502 487 439 c 128,-1,12
 539 376 539 376 539 245 c 0,13,14
 539 131 539 131 490.5 59 c 128,-1,15
 442 -13 442 -13 334 -12 c 0,16,17
 237 -12 237 -12 205 57 c 1,18,-1
 203 57 l 1,19,-1
 203 -195 l 1,20,-1
 289 -195 l 1,21,-1
 289 -220 l 1,22,-1
 12 -220 l 1,0,-1
200 292 m 2,23,-1
 200 210 l 2,24,25
 200 19 200 19 318 19 c 0,26,27
 431 19 431 19 431 245 c 0,28,29
 431 354 431 354 407 412.5 c 128,-1,30
 383 471 383 471 318 471 c 0,31,32
 299 471 299 471 280.5 463.5 c 128,-1,33
 262 456 262 456 242.5 437.5 c 128,-1,34
 223 419 223 419 211.5 381.5 c 128,-1,35
 200 344 200 344 200 292 c 2,23,-1
EndSplineSet
Substitution2: "sous-table 'smcp' Bas-de-casse vers petites capitales dans Latin lookup 0" p.sc
EndChar

StartChar: q
Encoding: 81 113 84
Width: 593
Flags: W
TeX: 502 220
HStem: -220 25<304 390 492 581> -12 31<225.562 318.34> 470 20G<390 492> 471 31<219.998 320.333>
VStem: 54 108<111.261 384.713> 390 102<-195 78 90.2207 413.37 417 490>
LayerCount: 2
Fore
SplineSet
390 -195 m 1,0,-1
 390 78 l 1,1,-1
 388 78 l 1,2,3
 368 34 368 34 332 11 c 128,-1,4
 296 -12 296 -12 259 -12 c 0,5,6
 151 -13 151 -13 102.5 59 c 128,-1,7
 54 131 54 131 54 245 c 0,8,9
 54 376 54 376 106 439 c 128,-1,10
 158 502 158 502 243 502 c 0,11,12
 348 502 348 502 388 417 c 1,13,-1
 390 417 l 1,14,-1
 390 490 l 1,15,-1
 492 490 l 1,16,-1
 492 -195 l 1,17,-1
 581 -195 l 1,18,-1
 581 -220 l 1,19,-1
 304 -220 l 1,20,-1
 304 -195 l 1,21,-1
 390 -195 l 1,0,-1
393 231 m 2,22,-1
 393 292 l 2,23,24
 393 344 393 344 381.5 381.5 c 128,-1,25
 370 419 370 419 350.5 437.5 c 128,-1,26
 331 456 331 456 312.5 463.5 c 128,-1,27
 294 471 294 471 275 471 c 0,28,29
 210 471 210 471 186 412.5 c 128,-1,30
 162 354 162 354 162 245 c 0,31,32
 162 19 162 19 275 19 c 0,33,34
 319 19 319 19 347 55.5 c 128,-1,35
 375 92 375 92 384 136.5 c 128,-1,36
 393 181 393 181 393 231 c 2,22,-1
EndSplineSet
Substitution2: "sous-table 'smcp' Bas-de-casse vers petites capitales dans Latin lookup 0" q.sc
EndChar

StartChar: r
Encoding: 82 114 85
Width: 444
Flags: W
TeX: 502 0
HStem: 0 25<17 103 205 288> 465 25<17 103> 466 36<283.7 362.39>
VStem: 103 102<25 363.507 375 465> 336 102<353.44 462.199>
LayerCount: 2
Fore
SplineSet
103 25 m 1,0,-1
 103 465 l 1,1,-1
 17 465 l 1,2,-1
 17 490 l 1,3,-1
 205 490 l 1,4,-1
 205 375 l 1,5,-1
 207 375 l 1,6,7
 226 428 226 428 260.5 465 c 128,-1,8
 295 502 295 502 347 502 c 0,9,10
 391 502 391 502 414.5 476 c 128,-1,11
 438 450 438 450 438 406 c 0,12,13
 438 339 438 339 386 339 c 0,14,15
 365 339 365 339 350.5 353 c 128,-1,16
 336 367 336 367 336 390 c 0,17,18
 336 397 336 397 338.5 416 c 128,-1,19
 341 435 341 435 341 441 c 0,20,21
 341 452 341 452 334 459 c 128,-1,22
 327 466 327 466 316 466 c 0,23,24
 277 466 277 466 241 395 c 128,-1,25
 205 324 205 324 205 244 c 2,26,-1
 205 25 l 1,27,-1
 288 25 l 1,28,-1
 288 0 l 1,29,-1
 17 0 l 1,30,-1
 17 25 l 1,31,-1
 103 25 l 1,0,-1
EndSplineSet
Substitution2: "sous-table 'smcp' Bas-de-casse vers petites capitales dans Latin lookup 0" r.sc
EndChar

StartChar: s
Encoding: 83 115 86
Width: 463
Flags: W
TeX: 502 12
HStem: -12 25<169.869 287.693> 471 31<171.886 292.374>
VStem: 59 30<99.8516 182> 73 72<332.646 434.932> 341 78<63.7521 154.848> 354 24<341 385.624>
LayerCount: 2
Fore
SplineSet
378 471 m 1,0,-1
 378 341 l 1,1,-1
 354 341 l 1,2,3
 343 401 343 401 315.5 436 c 128,-1,4
 288 471 288 471 228 471 c 0,5,6
 192 471 192 471 168.5 453.5 c 128,-1,7
 145 436 145 436 145 402 c 0,8,9
 145 373 145 373 165.5 353.5 c 128,-1,10
 186 334 186 334 216 324.5 c 128,-1,11
 246 315 246 315 282 301 c 128,-1,12
 318 287 318 287 348 271.5 c 128,-1,13
 378 256 378 256 398.5 222 c 128,-1,14
 419 188 419 188 419 140 c 0,15,16
 419 68 419 68 361.5 28 c 128,-1,17
 304 -12 304 -12 230 -12 c 0,18,19
 146 -12 146 -12 59 19 c 1,20,-1
 59 182 l 1,21,-1
 89 182 l 1,22,23
 90 108 90 108 126 60.5 c 128,-1,24
 162 13 162 13 232 13 c 0,25,26
 274 13 274 13 307.5 36.5 c 128,-1,27
 341 60 341 60 341 101 c 0,28,29
 341 131 341 131 321 153 c 128,-1,30
 301 175 301 175 271.5 186 c 128,-1,31
 242 197 242 197 207 211.5 c 128,-1,32
 172 226 172 226 142.5 240.5 c 128,-1,33
 113 255 113 255 93 284 c 128,-1,34
 73 313 73 313 73 353 c 0,35,36
 73 423 73 423 119 462.5 c 128,-1,37
 165 502 165 502 233 502 c 0,38,39
 283 502 283 502 378 471 c 1,0,-1
EndSplineSet
Substitution2: "sous-table 'smcp' Bas-de-casse vers petites capitales dans Latin lookup 0" s.sc
EndChar

StartChar: t
Encoding: 84 116 87
Width: 333
Flags: W
TeX: 623 12
HStem: -12 36<166 279.345> 465 25<19 88 190 301>
VStem: 88 102<45.1469 465 490 586>
LayerCount: 2
Fore
SplineSet
19 465 m 1,0,-1
 19 490 l 1,1,-1
 88 490 l 1,2,-1
 88 586 l 1,3,-1
 190 623 l 1,4,-1
 190 490 l 1,5,-1
 301 490 l 1,6,-1
 301 465 l 1,7,-1
 190 465 l 1,8,-1
 190 111 l 2,9,10
 190 65 190 65 201.5 44.5 c 128,-1,11
 213 24 213 24 243 24 c 0,12,13
 269 24 269 24 283.5 39 c 128,-1,14
 298 54 298 54 313 84 c 1,15,-1
 336 74 l 1,16,-1
 327 56 l 2,17,18
 293 -12 293 -12 201 -12 c 0,19,20
 131 -12 131 -12 109.5 20 c 128,-1,21
 88 52 88 52 88 111 c 2,22,-1
 88 465 l 1,23,-1
 19 465 l 1,0,-1
EndSplineSet
Substitution2: "sous-table 'smcp' Bas-de-casse vers petites capitales dans Latin lookup 0" t.sc
EndChar

StartChar: u
Encoding: 85 117 88
Width: 630
Flags: W
TeX: 490 12
HStem: -12 36<231.385 338.856> 0 25<527 613> 465 25<24 103 334 425>
VStem: 103 102<46.3926 465> 425 102<25 94 103.052 465>
LayerCount: 2
Fore
SplineSet
425 0 m 1,0,-1
 425 94 l 1,1,-1
 423 94 l 1,2,3
 375 -12 375 -12 250 -12 c 0,4,5
 175 -12 175 -12 139 21.5 c 128,-1,6
 103 55 103 55 103 129 c 2,7,-1
 103 465 l 1,8,-1
 24 465 l 1,9,-1
 24 490 l 1,10,-1
 205 490 l 1,11,-1
 205 134 l 2,12,13
 205 84 205 84 221.5 54 c 128,-1,14
 238 24 238 24 285 24 c 0,15,16
 351 24 351 24 388 77 c 128,-1,17
 425 130 425 130 425 205 c 2,18,-1
 425 465 l 1,19,-1
 334 465 l 1,20,-1
 334 490 l 1,21,-1
 527 490 l 1,22,-1
 527 25 l 1,23,-1
 613 25 l 1,24,-1
 613 0 l 1,25,-1
 425 0 l 1,0,-1
EndSplineSet
Substitution2: "sous-table 'smcp' Bas-de-casse vers petites capitales dans Latin lookup 0" u.sc
EndChar

StartChar: v
Encoding: 86 118 89
Width: 537
Flags: W
TeX: 490 6
HStem: 465 25<-6 70 185 276 340 437 471 543>
LayerCount: 2
Fore
SplineSet
-6 465 m 1,0,-1
 -6 490 l 1,1,-1
 276 490 l 1,2,-1
 276 465 l 1,3,-1
 185 465 l 1,4,-1
 308 131 l 1,5,-1
 437 465 l 1,6,-1
 340 465 l 1,7,-1
 340 490 l 1,8,-1
 543 490 l 1,9,-1
 543 465 l 1,10,-1
 471 465 l 1,11,-1
 284 -6 l 1,12,-1
 256 -6 l 1,13,-1
 70 465 l 1,14,-1
 -6 465 l 1,0,-1
EndSplineSet
Substitution2: "sous-table 'smcp' Bas-de-casse vers petites capitales dans Latin lookup 0" v.sc
EndChar

StartChar: w
Encoding: 87 119 90
Width: 833
Flags: W
TeX: 490 8
HStem: 465 25<-9 69 181 265 317 401 515 599 648 732 764 842>
LayerCount: 2
Fore
SplineSet
-9 465 m 1,0,-1
 -9 490 l 1,1,-1
 265 490 l 1,2,-1
 265 465 l 1,3,-1
 181 465 l 1,4,-1
 292 140 l 1,5,-1
 294 140 l 1,6,-1
 401 465 l 1,7,-1
 317 465 l 1,8,-1
 317 490 l 1,9,-1
 599 490 l 1,10,-1
 599 465 l 1,11,-1
 515 465 l 1,12,-1
 617 146 l 1,13,-1
 619 146 l 1,14,-1
 732 465 l 1,15,-1
 648 465 l 1,16,-1
 648 490 l 1,17,-1
 842 490 l 1,18,-1
 842 465 l 1,19,-1
 764 465 l 1,20,-1
 593 -8 l 1,21,-1
 567 -8 l 1,22,-1
 420 424 l 1,23,-1
 418 424 l 1,24,-1
 272 -6 l 1,25,-1
 245 -6 l 1,26,-1
 69 465 l 1,27,-1
 -9 465 l 1,0,-1
EndSplineSet
Substitution2: "sous-table 'smcp' Bas-de-casse vers petites capitales dans Latin lookup 0" w.sc
EndChar

StartChar: x
Encoding: 88 120 91
Width: 574
Flags: W
TeX: 490 0
HStem: 0 25<22 94 132 228 277 367 486 552> 465 25<24 102 221 317 359 431 468 540>
LayerCount: 2
Fore
SplineSet
24 465 m 1,0,-1
 24 490 l 1,1,-1
 317 490 l 1,2,-1
 317 465 l 1,3,-1
 221 465 l 1,4,-1
 316 306 l 1,5,-1
 431 465 l 1,6,-1
 359 465 l 1,7,-1
 359 490 l 1,8,-1
 540 490 l 1,9,-1
 540 465 l 1,10,-1
 468 465 l 1,11,-1
 330 277 l 1,12,-1
 486 25 l 1,13,-1
 552 25 l 1,14,-1
 552 0 l 1,15,-1
 277 0 l 1,16,-1
 277 25 l 1,17,-1
 367 25 l 1,18,-1
 262 201 l 1,19,-1
 132 25 l 1,20,-1
 228 25 l 1,21,-1
 228 0 l 1,22,-1
 22 0 l 1,23,-1
 22 25 l 1,24,-1
 94 25 l 1,25,-1
 245 229 l 1,26,-1
 102 465 l 1,27,-1
 24 465 l 1,0,-1
EndSplineSet
Substitution2: "sous-table 'smcp' Bas-de-casse vers petites capitales dans Latin lookup 0" x.sc
EndChar

StartChar: y
Encoding: 89 121 92
Width: 519
Flags: W
TeX: 490 220
HStem: -220 36<105.5 195.845> 465 25<-4 68 180 264 330 414 445 523>
VStem: 34 90<-181.854 -85.5986>
LayerCount: 2
Fore
SplineSet
-4 465 m 1,0,-1
 -4 490 l 1,1,-1
 264 490 l 1,2,-1
 264 465 l 1,3,-1
 180 465 l 1,4,-1
 312 140 l 1,5,-1
 314 140 l 1,6,-1
 414 465 l 1,7,-1
 330 465 l 1,8,-1
 330 490 l 1,9,-1
 523 490 l 1,10,-1
 523 465 l 1,11,-1
 445 465 l 1,12,-1
 289 -40 l 2,13,14
 260 -136 260 -136 224.5 -178 c 128,-1,15
 189 -220 189 -220 127 -220 c 0,16,17
 84 -220 84 -220 59 -195 c 128,-1,18
 34 -170 34 -170 34 -136 c 0,19,20
 34 -80 34 -80 80 -80 c 0,21,22
 124 -80 124 -80 124 -132 c 128,-1,23
 124 -184 124 -184 158 -184 c 0,24,25
 215 -184 215 -184 250 -61 c 2,26,-1
 268 -1 l 1,27,-1
 68 465 l 1,28,-1
 -4 465 l 1,0,-1
EndSplineSet
Substitution2: "sous-table 'smcp' Bas-de-casse vers petites capitales dans Latin lookup 0" y.sc
EndChar

StartChar: z
Encoding: 90 122 93
Width: 500
Flags: W
TeX: 490 0
HStem: 0 25<149 347.428> 465 25<146.422 329>
VStem: 59 24<324 390.81> 428 30<100.497 191>
LayerCount: 2
Fore
SplineSet
83 324 m 1,0,-1
 59 324 l 1,1,-1
 59 490 l 1,2,-1
 463 490 l 1,3,-1
 149 25 l 1,4,-1
 251 25 l 2,5,6
 307 25 307 25 343 36 c 128,-1,7
 379 47 379 47 396.5 71.5 c 128,-1,8
 414 96 414 96 420.5 122.5 c 128,-1,9
 427 149 427 149 428 191 c 1,10,-1
 458 191 l 1,11,-1
 458 0 l 1,12,-1
 17 0 l 1,13,-1
 329 465 l 1,14,-1
 215 465 l 2,15,16
 147 465 147 465 117.5 432.5 c 128,-1,17
 88 400 88 400 83 324 c 1,0,-1
EndSplineSet
Substitution2: "sous-table 'smcp' Bas-de-casse vers petites capitales dans Latin lookup 0" z.sc
EndChar

StartChar: braceleft
Encoding: 91 123 94
Width: 333
Flags: W
TeX: 715 249
HStem: -249 19<276.361 319> 696 19<276.361 319>
VStem: 119 90<-188.458 189.051 276.949 654.458>
LayerCount: 2
Fore
SplineSet
119 -92 m 2,0,-1
 119 106 l 2,1,2
 119 162 119 162 97.5 190 c 128,-1,3
 76 218 76 218 14 233 c 1,4,5
 76 248 76 248 97.5 276 c 128,-1,6
 119 304 119 304 119 360 c 2,7,-1
 119 558 l 2,8,9
 119 652 119 652 167 683.5 c 128,-1,10
 215 715 215 715 319 715 c 1,11,-1
 319 696 l 1,12,13
 257 689 257 689 233 657.5 c 128,-1,14
 209 626 209 626 209 565 c 2,15,-1
 209 377 l 2,16,17
 209 314 209 314 190 281 c 128,-1,18
 171 248 171 248 118 234 c 1,19,-1
 118 232 l 1,20,21
 171 218 171 218 190 185 c 128,-1,22
 209 152 209 152 209 89 c 2,23,-1
 209 -99 l 2,24,25
 209 -160 209 -160 233 -191.5 c 128,-1,26
 257 -223 257 -223 319 -230 c 1,27,-1
 319 -249 l 1,28,29
 215 -249 215 -249 167 -217.5 c 128,-1,30
 119 -186 119 -186 119 -92 c 2,0,-1
EndSplineSet
EndChar

StartChar: bar
Encoding: 92 124 95
Width: 222
Flags: W
TeX: 786 214
VStem: 78 66<-214 786>
LayerCount: 2
Fore
SplineSet
78 -214 m 1,0,-1
 78 786 l 1,1,-1
 144 786 l 1,2,-1
 144 -214 l 1,3,-1
 78 -214 l 1,0,-1
EndSplineSet
EndChar

StartChar: braceright
Encoding: 93 125 96
Width: 333
Flags: W
TeX: 715 249
HStem: -249 19<14 56.6392> 696 19<14 56.6392>
VStem: 124 90<-188.458 189.051 276.949 654.458>
LayerCount: 2
Fore
SplineSet
214 106 m 2,0,-1
 214 -92 l 2,1,2
 214 -186 214 -186 166 -217.5 c 128,-1,3
 118 -249 118 -249 14 -249 c 1,4,-1
 14 -230 l 1,5,6
 76 -223 76 -223 100 -191.5 c 128,-1,7
 124 -160 124 -160 124 -99 c 2,8,-1
 124 89 l 2,9,10
 124 152 124 152 143 185 c 128,-1,11
 162 218 162 218 215 232 c 1,12,-1
 215 234 l 1,13,14
 162 248 162 248 143 281 c 128,-1,15
 124 314 124 314 124 377 c 2,16,-1
 124 565 l 2,17,18
 124 626 124 626 100 657.5 c 128,-1,19
 76 689 76 689 14 696 c 1,20,-1
 14 715 l 1,21,22
 118 715 118 715 166 683.5 c 128,-1,23
 214 652 214 652 214 558 c 2,24,-1
 214 360 l 2,25,26
 214 304 214 304 235 276 c 128,-1,27
 256 248 256 248 318 234 c 1,28,-1
 319 232 l 1,29,30
 257 218 257 218 235.5 190 c 128,-1,31
 214 162 214 162 214 106 c 2,0,-1
EndSplineSet
EndChar

StartChar: asciitilde
Encoding: 94 126 97
Width: 600
Flags: W
TeX: 320 -182
HStem: 185 66<334.694 456.697> 251 66<136.834 280.69>
LayerCount: 2
Fore
SplineSet
495 320 m 1,0,-1
 531 271 l 1,1,2
 511 244 511 244 498 229 c 128,-1,3
 485 214 485 214 460 199.5 c 128,-1,4
 435 185 435 185 406 185 c 0,5,6
 364 185 364 185 304 218 c 0,7,8
 245 251 245 251 189 251 c 0,9,10
 137 251 137 251 105 182 c 1,11,-1
 69 231 l 1,12,13
 114 317 114 317 194 317 c 0,14,15
 233 317 233 317 305 285 c 0,16,17
 384 251 384 251 407 251 c 0,18,19
 426 251 426 251 443 262.5 c 128,-1,20
 460 274 460 274 470 286 c 128,-1,21
 480 298 480 298 495 320 c 1,0,-1
EndSplineSet
EndChar

StartChar: exclamdown
Encoding: 95 161 98
Width: 296
Flags: W
TeX: 508 220
HStem: -220 21G<130.5 165.5> 370 138<100.142 195.858>
VStem: 79 138<-197.825 30.9434 389.708 487.373> 134 28<172.925 308>
LayerCount: 2
Fore
SplineSet
134 308 m 1,0,-1
 162 308 l 1,1,2
 165 242 165 242 191 63.5 c 128,-1,3
 217 -115 217 -115 217 -143 c 0,4,5
 217 -177 217 -177 200 -198.5 c 128,-1,6
 183 -220 183 -220 148 -220 c 128,-1,7
 113 -220 113 -220 96 -198.5 c 128,-1,8
 79 -177 79 -177 79 -143 c 0,9,10
 79 -115 79 -115 105 63 c 128,-1,11
 131 241 131 241 134 308 c 1,0,-1
79 440 m 128,-1,13
 79 468 79 468 99.5 488 c 128,-1,14
 120 508 120 508 148 508 c 128,-1,15
 176 508 176 508 196.5 488 c 128,-1,16
 217 468 217 468 217 440 c 128,-1,17
 217 412 217 412 196.5 391 c 128,-1,18
 176 370 176 370 148 370 c 128,-1,19
 120 370 120 370 99.5 391 c 128,-1,12
 79 412 79 412 79 440 c 128,-1,13
EndSplineSet
EndChar

StartChar: cent
Encoding: 96 162 99
Width: 556
Flags: W
TeX: 607 117
HStem: -12 31<322 390.519> 306 196<322 448> 475 24<253.435 286>
VStem: 68 114<131.466 354.317> 286 36<-117 -12 24 475 502 607> 402 102<320.441 425.935>
LayerCount: 2
Fore
SplineSet
286 -117 m 1,0,-1
 286 -11 l 1,1,2
 184 -5 184 -5 126 68 c 128,-1,3
 68 141 68 141 68 248 c 0,4,5
 68 346 68 346 128 417 c 128,-1,6
 188 488 188 488 286 499 c 1,7,-1
 286 607 l 1,8,-1
 322 607 l 1,9,-1
 322 502 l 1,10,11
 389 501 389 501 446.5 461 c 128,-1,12
 504 421 504 421 504 356 c 0,13,14
 504 306 504 306 448 306 c 0,15,16
 421 306 421 306 411.5 320 c 128,-1,17
 402 334 402 334 402 362 c 0,18,19
 402 420 402 420 382.5 447 c 128,-1,20
 363 474 363 474 322 477 c 1,21,-1
 322 19 l 1,22,23
 395 19 395 19 433.5 55 c 128,-1,24
 472 91 472 91 497 163 c 1,25,-1
 519 155 l 1,26,27
 462 -5 462 -5 322 -12 c 1,28,-1
 322 -117 l 1,29,-1
 286 -117 l 1,0,-1
286 24 m 1,30,-1
 286 475 l 1,31,32
 182 457 182 457 182 245 c 0,33,34
 182 54 182 54 286 24 c 1,30,-1
EndSplineSet
EndChar

StartChar: sterling
Encoding: 97 163 100
Width: 556
Flags: W
TeX: 706 28
HStem: -28 84<252.66 441.134> -6 96<32.4702 137.548> 353 31<32 149 284 447> 675 31<300.309 405>
VStem: 142 102<429.705 595> 196 96<139.5 289.049> 403 109<582.224 656.521> 516 30<134.062 236>
LayerCount: 2
Fore
SplineSet
32 353 m 1,0,-1
 32 384 l 1,1,-1
 149 384 l 1,2,3
 142 418 142 418 142 449 c 0,4,5
 142 549 142 549 212.5 627.5 c 128,-1,6
 283 706 283 706 382 706 c 0,7,8
 428 706 428 706 470 681.5 c 128,-1,9
 512 657 512 657 512 614 c 0,10,11
 512 594 512 594 497.5 580 c 128,-1,12
 483 566 483 566 463 566 c 0,13,14
 439 566 439 566 424 583 c 128,-1,15
 409 600 409 600 403 620.5 c 128,-1,16
 397 641 397 641 380 658 c 128,-1,17
 363 675 363 675 335 675 c 0,18,19
 300 675 300 675 272 648.5 c 128,-1,20
 244 622 244 622 244 568 c 128,-1,21
 244 514 244 514 277 384 c 1,22,-1
 447 384 l 1,23,-1
 447 353 l 1,24,-1
 284 353 l 1,25,26
 292 313 292 313 292 288 c 0,27,28
 292 186 292 186 199 68 c 1,29,30
 248 56 248 56 330 56 c 0,31,32
 417 56 417 56 466.5 93 c 128,-1,33
 516 130 516 130 516 201 c 2,34,-1
 516 236 l 1,35,-1
 546 236 l 1,36,-1
 546 167 l 2,37,38
 546 136 546 136 537.5 105 c 128,-1,39
 529 74 529 74 509.5 42.5 c 128,-1,40
 490 11 490 11 451 -8.5 c 128,-1,41
 412 -28 412 -28 359 -28 c 0,42,43
 249 -28 249 -28 178 46 c 1,44,45
 121 -6 121 -6 68 -6 c 0,46,47
 47 -6 47 -6 32 5.5 c 128,-1,48
 17 17 17 17 17 38 c 0,49,50
 17 90 17 90 88 90 c 0,51,52
 115 90 115 90 170 71 c 1,53,54
 196 111 196 111 196 168 c 0,55,56
 196 214 196 214 157 353 c 1,57,-1
 32 353 l 1,0,-1
EndSplineSet
EndChar

StartChar: fraction
Encoding: 224 8260 101
Width: 167
Flags: W
TeX: 715 21
HStem: 695 20G<271.853 330>
LayerCount: 2
Fore
SplineSet
-163 -21 m 1,0,-1
 284 715 l 1,1,-1
 330 715 l 1,2,-1
 -117 -21 l 1,3,-1
 -163 -21 l 1,0,-1
EndSplineSet
EndChar

StartChar: yen
Encoding: 99 165 102
Width: 556
Flags: W
TeX: 694 0
HStem: 0 25<136 237 339 437> 222 31<87 237 339 486> 353 31<87 225 345 486> 669 25<-14 70 177 277 378 462 492 570>
VStem: 237 102<25 222 253 353>
LayerCount: 2
Fore
SplineSet
237 25 m 1,0,-1
 237 222 l 1,1,-1
 87 222 l 1,2,-1
 87 253 l 1,3,-1
 237 253 l 1,4,-1
 237 353 l 1,5,-1
 87 353 l 1,6,-1
 87 384 l 1,7,-1
 225 384 l 1,8,-1
 70 669 l 1,9,-1
 -14 669 l 1,10,-1
 -14 694 l 1,11,-1
 277 694 l 1,12,-1
 277 669 l 1,13,-1
 177 669 l 1,14,-1
 318 386 l 1,15,-1
 462 669 l 1,16,-1
 378 669 l 1,17,-1
 378 694 l 1,18,-1
 570 694 l 1,19,-1
 570 669 l 1,20,-1
 492 669 l 1,21,-1
 345 384 l 1,22,-1
 486 384 l 1,23,-1
 486 353 l 1,24,-1
 339 353 l 1,25,-1
 339 253 l 1,26,-1
 486 253 l 1,27,-1
 486 222 l 1,28,-1
 339 222 l 1,29,-1
 339 25 l 1,30,-1
 437 25 l 1,31,-1
 437 0 l 1,32,-1
 136 0 l 1,33,-1
 136 25 l 1,34,-1
 237 25 l 1,0,-1
EndSplineSet
EndChar

StartChar: florin
Encoding: 200 402 103
Width: 556
Flags: W
TeX: 706 193
HStem: -193 25<60.8459 117.681> 349 31<140 232 333 424> 681 25<408.933 465.763>
VStem: -21 80<-164.775 -81.9702> 469 80<596.228 677.755>
LayerCount: 2
Fore
SplineSet
136 349 m 1,0,-1
 140 380 l 1,1,-1
 235 380 l 1,2,-1
 251 465 l 2,3,4
 268 559 268 559 321.5 632.5 c 128,-1,5
 375 706 375 706 454 706 c 0,6,7
 491 706 491 706 520 684 c 128,-1,8
 549 662 549 662 549 623 c 0,9,10
 549 600 549 600 536 582.5 c 128,-1,11
 523 565 523 565 501 565 c 0,12,13
 482 565 482 565 467.5 576.5 c 128,-1,14
 453 588 453 588 453 609 c 0,15,16
 453 622 453 622 461 637.5 c 128,-1,17
 469 653 469 653 469 659 c 0,18,19
 469 669 469 669 459.5 675 c 128,-1,20
 450 681 450 681 438 681 c 0,21,22
 378 681 378 681 352 505 c 2,23,-1
 333 380 l 1,24,-1
 428 380 l 1,25,-1
 424 349 l 1,26,-1
 330 349 l 1,27,28
 313 231 313 231 298 152 c 128,-1,29
 283 73 283 73 261.5 2.5 c 128,-1,30
 240 -68 240 -68 214 -108 c 128,-1,31
 188 -148 188 -148 151.5 -170.5 c 128,-1,32
 115 -193 115 -193 67 -193 c 0,33,34
 30 -193 30 -193 4.5 -168.5 c 128,-1,35
 -21 -144 -21 -144 -21 -108 c 0,36,37
 -21 -84 -21 -84 -7.5 -68 c 128,-1,38
 6 -52 6 -52 30 -52 c 0,39,40
 50 -52 50 -52 62.5 -64.5 c 128,-1,41
 75 -77 75 -77 75 -95 c 0,42,43
 75 -109 75 -109 67 -126.5 c 128,-1,44
 59 -144 59 -144 59 -149 c 0,45,46
 59 -158 59 -158 67.5 -163 c 128,-1,47
 76 -168 76 -168 86 -168 c 0,48,49
 121 -168 121 -168 144 -119.5 c 128,-1,50
 167 -71 167 -71 188 64 c 2,51,-1
 232 349 l 1,52,-1
 136 349 l 1,0,-1
EndSplineSet
EndChar

StartChar: section
Encoding: 101 167 104
Width: 556
Flags: W
TeX: 727 220
HStem: -220 31<194.366 326.578> 696 31<239.97 360.73>
VStem: 68 102<-147.799 -32.0177> 71 42<372.992 575.653> 139 42<509.431 614.468> 382 93<566.879 660.901> 400 36<-58.9106 8.38019> 454 48<-58.5779 156.147>
LayerCount: 2
Fore
SplineSet
71 456 m 0,0,1
 71 573 71 573 134.5 650 c 128,-1,2
 198 727 198 727 306 727 c 0,3,4
 374 727 374 727 424.5 689.5 c 128,-1,5
 475 652 475 652 475 592 c 0,6,7
 475 538 475 538 425 538 c 0,8,9
 397 538 397 538 385 553 c 128,-1,10
 373 568 373 568 373 589 c 0,11,12
 373 601 373 601 377.5 618 c 128,-1,13
 382 635 382 635 382 643 c 0,14,15
 382 669 382 669 360 682.5 c 128,-1,16
 338 696 338 696 308 696 c 0,17,18
 251 696 251 696 216 664.5 c 128,-1,19
 181 633 181 633 181 577 c 0,20,21
 181 544 181 544 198.5 514.5 c 128,-1,22
 216 485 216 485 244.5 460.5 c 128,-1,23
 273 436 273 436 307.5 410 c 128,-1,24
 342 384 342 384 376 351.5 c 128,-1,25
 410 319 410 319 438.5 281 c 128,-1,26
 467 243 467 243 484.5 188 c 128,-1,27
 502 133 502 133 502 67 c 0,28,29
 502 -55 502 -55 435.5 -137.5 c 128,-1,30
 369 -220 369 -220 250 -220 c 0,31,32
 175 -220 175 -220 121.5 -180.5 c 128,-1,33
 68 -141 68 -141 68 -68 c 0,34,35
 68 -46 68 -46 83 -30.5 c 128,-1,36
 98 -15 98 -15 120 -15 c 0,37,38
 145 -15 145 -15 157.5 -31.5 c 128,-1,39
 170 -48 170 -48 170 -73 c 0,40,41
 170 -82 170 -82 169 -97.5 c 128,-1,42
 168 -113 168 -113 168 -121 c 0,43,44
 168 -157 168 -157 192.5 -173 c 128,-1,45
 217 -189 217 -189 255 -189 c 0,46,47
 317 -189 317 -189 358.5 -153.5 c 128,-1,48
 400 -118 400 -118 400 -55 c 0,49,50
 400 -16 400 -16 375.5 19.5 c 128,-1,51
 351 55 351 55 314.5 81.5 c 128,-1,52
 278 108 278 108 235.5 144 c 128,-1,53
 193 180 193 180 156.5 218.5 c 128,-1,54
 120 257 120 257 95.5 319 c 128,-1,55
 71 381 71 381 71 456 c 0,0,1
113 473 m 0,56,57
 113 422 113 422 131 379 c 128,-1,58
 149 336 149 336 177.5 305.5 c 128,-1,59
 206 275 206 275 240 247.5 c 128,-1,60
 274 220 274 220 308.5 193.5 c 128,-1,61
 343 167 343 167 371.5 138.5 c 128,-1,62
 400 110 400 110 418 70.5 c 128,-1,63
 436 31 436 31 436 -16 c 0,64,65
 436 -36 436 -36 434 -60 c 1,66,-1
 436 -60 l 1,67,68
 445 -41 445 -41 449 -12 c 0,69,70
 454 18 454 18 454 42 c 0,71,72
 454 99 454 99 436.5 146 c 128,-1,73
 419 193 419 193 391.5 225 c 128,-1,74
 364 257 364 257 330 285.5 c 128,-1,75
 296 314 296 314 262.5 340 c 128,-1,76
 229 366 229 366 201.5 392.5 c 128,-1,77
 174 419 174 419 156.5 455 c 128,-1,78
 139 491 139 491 139 533 c 0,79,80
 139 563 139 563 152 615 c 1,81,-1
 150 617 l 1,82,83
 113 550 113 550 113 473 c 0,56,57
EndSplineSet
EndChar

StartChar: currency
Encoding: 98 164 105
Width: 556
Flags: W
TeX: 598 -96
HStem: 100 60<193.273 362.727> 534 60<193.273 362.727>
VStem: 30 66<257.362 436.638> 460 66<257.362 436.638>
LayerCount: 2
Fore
SplineSet
71 96 m 1,0,-1
 27 140 l 1,1,-1
 84 197 l 1,2,3
 30 252 30 252 30 347 c 128,-1,4
 30 442 30 442 84 497 c 1,5,-1
 27 554 l 1,6,-1
 71 598 l 1,7,-1
 127 542 l 1,8,9
 190 594 190 594 278 594 c 128,-1,10
 366 594 366 594 429 542 c 1,11,-1
 485 598 l 1,12,-1
 529 554 l 1,13,-1
 472 497 l 1,14,15
 526 442 526 442 526 347 c 128,-1,16
 526 252 526 252 472 197 c 1,17,-1
 529 140 l 1,18,-1
 485 96 l 1,19,-1
 429 152 l 1,20,21
 366 100 366 100 278 100 c 128,-1,22
 190 100 190 100 127 152 c 1,23,-1
 71 96 l 1,0,-1
96 347 m 128,-1,25
 96 270 96 270 149.5 215 c 128,-1,26
 203 160 203 160 278 160 c 128,-1,27
 353 160 353 160 406.5 215 c 128,-1,28
 460 270 460 270 460 347 c 128,-1,29
 460 424 460 424 406.5 479 c 128,-1,30
 353 534 353 534 278 534 c 128,-1,31
 203 534 203 534 149.5 479 c 128,-1,24
 96 424 96 424 96 347 c 128,-1,25
EndSplineSet
EndChar

StartChar: quotesingle
Encoding: 7 39 106
Width: 260
Flags: W
TeX: 727 -403
HStem: 403 324<110.312 149.688>
VStem: 85 90<447.375 720.652>
LayerCount: 2
Fore
SplineSet
108 436 m 2,0,-1
 89 618 l 2,1,2
 85 652 85 652 85 662 c 0,3,4
 85 727 85 727 130 727 c 128,-1,5
 175 727 175 727 175 662 c 0,6,7
 175 652 175 652 171 618 c 2,8,-1
 152 436 l 2,9,10
 149 403 149 403 130 403 c 128,-1,11
 111 403 111 403 108 436 c 2,0,-1
EndSplineSet
EndChar

StartChar: quotedblleft
Encoding: 214 8220 107
Width: 464
Flags: W
TeX: 727 -403
HStem: 403 138<98.5325 184.858 308.532 394.858> 707 20G<166 206 376 416>
VStem: 48 48<501 605.569> 258 48<501 605.569>
LayerCount: 2
Fore
SplineSet
195 727 m 1,0,-1
 206 707 l 1,1,2
 96 630 96 630 96 548 c 0,3,4
 96 539 96 539 98 529 c 1,5,6
 115 541 115 541 137 541 c 0,7,8
 165 541 165 541 185.5 521 c 128,-1,9
 206 501 206 501 206 473 c 128,-1,10
 206 445 206 445 185.5 424 c 128,-1,11
 165 403 165 403 137 403 c 0,12,13
 93 403 93 403 70.5 440.5 c 128,-1,14
 48 478 48 478 48 524 c 0,15,16
 48 584 48 584 92.5 640.5 c 128,-1,17
 137 697 137 697 195 727 c 1,0,-1
405 727 m 1,18,-1
 416 707 l 1,19,20
 306 630 306 630 306 548 c 0,21,22
 306 539 306 539 308 529 c 1,23,24
 325 541 325 541 347 541 c 0,25,26
 375 541 375 541 395.5 521 c 128,-1,27
 416 501 416 501 416 473 c 128,-1,28
 416 445 416 445 395.5 424 c 128,-1,29
 375 403 375 403 347 403 c 0,30,31
 303 403 303 403 280.5 440.5 c 128,-1,32
 258 478 258 478 258 524 c 0,33,34
 258 584 258 584 302.5 640.5 c 128,-1,35
 347 697 347 697 405 727 c 1,18,-1
EndSplineSet
EndChar

StartChar: guillemotleft
Encoding: 105 171 108
Width: 426
Flags: W
TeX: 408 -64
LayerCount: 2
Fore
SplineSet
205 64 m 1,0,-1
 32 221 l 1,1,-1
 32 255 l 1,2,-1
 199 408 l 1,3,-1
 222 387 l 1,4,-1
 128 234 l 1,5,-1
 228 85 l 1,6,-1
 205 64 l 1,0,-1
371 64 m 1,7,-1
 198 221 l 1,8,-1
 198 255 l 1,9,-1
 365 408 l 1,10,-1
 388 387 l 1,11,-1
 294 234 l 1,12,-1
 394 85 l 1,13,-1
 371 64 l 1,7,-1
EndSplineSet
EndChar

StartChar: guilsinglleft
Encoding: 222 8249 109
Width: 278
Flags: W
TeX: 408 -64
VStem: 41 196
LayerCount: 2
Fore
SplineSet
214 64 m 1,0,-1
 41 221 l 1,1,-1
 41 255 l 1,2,-1
 208 408 l 1,3,-1
 231 387 l 1,4,-1
 137 234 l 1,5,-1
 237 85 l 1,6,-1
 214 64 l 1,0,-1
EndSplineSet
EndChar

StartChar: guilsinglright
Encoding: 223 8250 110
Width: 278
Flags: W
TeX: 408 -64
VStem: 41 196
LayerCount: 2
Fore
SplineSet
64 408 m 1,0,-1
 237 251 l 1,1,-1
 237 217 l 1,2,-1
 70 64 l 1,3,-1
 47 85 l 1,4,-1
 141 238 l 1,5,-1
 41 387 l 1,6,-1
 64 408 l 1,0,-1
EndSplineSet
EndChar

StartChar: f_i
Encoding: 227 64257 111
Width: 636
GlyphClass: 3
Flags: W
TeX: 727 0
HStem: 0 25<19 103 205 286 336 422 524 610> 465 25<19 103 205 286 337 422> 698.094 30.9346<254.557 375.103>
VStem: 103 102<25 465 490 614.398> 387.819 107.181<597.8 682.33> 422 102<25 465>
LayerCount: 2
Fore
SplineSet
103 465 m 1,0,-1
 19 465 l 1,1,-1
 19 490 l 1,2,-1
 103 490 l 1,3,4
 103 539 103 539 120 601.5 c 0,5,6
 140 672 140 672 213.5 706 c 0,7,8
 261 728 261 728 314 729 c 0,9,10
 317 729 317 729 320.258367231 729.029119527 c 0,11,12
 414 729 414 729 450 703.5 c 0,13,14
 495 671 495 671 495 630 c 0,15,16
 495 610 495 610 476 599 c 128,-1,17
 457 588 457 588 437 588 c 0,18,19
 386.398927147 588 386.398927147 588 387.818572977 629.771758221 c 2,20,-1
 388.24793706 642.40539706 l 2,21,22
 390 698 390 698 328.492364779 698.094470987 c 0,23,24
 257.214514744 697.952686326 257.214514744 697.952686326 231 663 c 0,25,26
 205 630 205 630 205 558 c 2,27,-1
 205 490 l 1,28,-1
 286 490 l 1,29,-1
 286 465 l 1,30,-1
 205 465 l 1,31,-1
 205 25 l 1,32,-1
 286 25 l 1,33,-1
 286 0 l 1,34,-1
 19 0 l 1,35,-1
 19 25 l 1,36,-1
 103 25 l 1,37,-1
 103 465 l 1,0,-1
422 25 m 1,38,-1
 422 465 l 1,39,-1
 337 465 l 1,40,-1
 337 490 l 1,41,-1
 524 490 l 1,42,-1
 524 25 l 1,43,-1
 610 25 l 1,44,-1
 610 0 l 1,45,-1
 336 0 l 1,46,-1
 336 25 l 1,47,-1
 422 25 l 1,38,-1
EndSplineSet
Ligature2: "'liga' Ligatures standard dans Latin lookup 0" f i
EndChar

StartChar: f_l
Encoding: 228 64258 112
Width: 636
GlyphClass: 3
Flags: W
TeX: 727 0
HStem: 0 25<19 103 205 286 336 422 524 610> 465 25<19 103 205 286> 690 48<258.018 416.144>
VStem: 103 102<25 465 490 614.918> 422 102<25 680.145>
LayerCount: 2
Fore
SplineSet
103 465 m 1,0,-1
 19 465 l 1,1,-1
 19 490 l 1,2,-1
 103 490 l 1,3,4
 103 543 103 543 120 601.5 c 0,5,6
 143 678 143 678 217.5 708 c 0,7,8
 293 738 293 738 398.013671875 738 c 2,9,-1
 524 738 l 1,10,-1
 524 25 l 1,11,-1
 610 25 l 1,12,-1
 610 0 l 1,13,-1
 336 0 l 1,14,-1
 336 25 l 1,15,-1
 422 25 l 1,16,-1
 422 650.579112108 l 1,17,18
 422 690 422 690 339 690 c 0,19,20
 270 690 270 690 227 643 c 0,21,22
 205 619 205 619 205 558 c 2,23,-1
 205 490 l 1,24,-1
 286 490 l 1,25,-1
 286 465 l 1,26,-1
 205 465 l 1,27,-1
 205 25 l 1,28,-1
 286 25 l 1,29,-1
 286 0 l 1,30,-1
 19 0 l 1,31,-1
 19 25 l 1,32,-1
 103 25 l 1,33,-1
 103 465 l 1,0,-1
EndSplineSet
Ligature2: "'liga' Ligatures standard dans Latin lookup 0" f l
EndChar

StartChar: endash
Encoding: 209 8211 113
Width: 500
Flags: W
TeX: 263 -209
HStem: 209 54<0 500>
LayerCount: 2
Fore
SplineSet
500 209 m 1,0,-1
 0 209 l 1,1,-1
 0 263 l 1,2,-1
 500 263 l 1,3,-1
 500 209 l 1,0,-1
EndSplineSet
EndChar

StartChar: dagger
Encoding: 217 8224 114
Width: 462
Flags: W
TeX: 727 144
HStem: 388 96<31.8622 157.935 304.065 430.138> 421 31<144.504 213 249 317.496> 707 20G<217 245>
VStem: 168 126<-128.16 177.082 572.014 710.497> 213 36<220.297 421 452 550.262>
LayerCount: 2
Fore
SplineSet
20 436 m 128,-1,1
 20 454 20 454 31.5 469 c 128,-1,2
 43 484 43 484 66 484 c 0,3,4
 84 484 84 484 137.5 468 c 128,-1,5
 191 452 191 452 213 452 c 1,6,7
 212 488 212 488 193 559 c 128,-1,8
 174 630 174 630 174 667 c 0,9,10
 174 695 174 695 188.5 711 c 128,-1,11
 203 727 203 727 231 727 c 128,-1,12
 259 727 259 727 273.5 711 c 128,-1,13
 288 695 288 695 288 667 c 0,14,15
 288 630 288 630 269 559 c 128,-1,16
 250 488 250 488 249 452 c 1,17,18
 271 452 271 452 324.5 468 c 128,-1,19
 378 484 378 484 396 484 c 0,20,21
 419 484 419 484 430.5 469 c 128,-1,22
 442 454 442 454 442 436 c 128,-1,23
 442 418 442 418 430.5 403 c 128,-1,24
 419 388 419 388 396 388 c 0,25,26
 377 388 377 388 324 404 c 128,-1,27
 271 420 271 420 249 421 c 1,28,29
 249 340 249 340 271.5 182 c 128,-1,30
 294 24 294 24 294 -55 c 0,31,32
 294 -144 294 -144 231 -144 c 128,-1,33
 168 -144 168 -144 168 -55 c 0,34,35
 168 24 168 24 190.5 182 c 128,-1,36
 213 340 213 340 213 421 c 1,37,38
 191 420 191 420 138 404 c 128,-1,39
 85 388 85 388 66 388 c 0,40,41
 43 388 43 388 31.5 403 c 128,-1,0
 20 418 20 418 20 436 c 128,-1,1
EndSplineSet
EndChar

StartChar: daggerdbl
Encoding: 218 8225 115
Width: 462
Flags: W
TeX: 727 144
HStem: 99 96<31.8622 157.935 304.065 430.138> 131 31<144.504 213 249 317.496> 388 96<31.8622 157.935 304.065 430.138> 421 31<144.504 213 249 317.496> 707 20G<217 245>
VStem: 174 114<-127.497 34.8801 548.12 710.497> 195 72<162.6 420.586> 213 36<32.7383 131 162 291.307 292.817 421 452 550.262>
LayerCount: 2
Fore
SplineSet
231 -144 m 128,-1,1
 203 -144 203 -144 188.5 -128 c 128,-1,2
 174 -112 174 -112 174 -84 c 0,3,4
 174 -47 174 -47 193 24 c 128,-1,5
 212 95 212 95 213 131 c 1,6,7
 191 131 191 131 137.5 115 c 128,-1,8
 84 99 84 99 66 99 c 0,9,10
 43 99 43 99 31.5 114 c 128,-1,11
 20 129 20 129 20 147 c 128,-1,12
 20 165 20 165 31.5 180 c 128,-1,13
 43 195 43 195 66 195 c 0,14,15
 85 195 85 195 138 179 c 128,-1,16
 191 163 191 163 213 162 c 1,17,18
 214 181 214 181 204.5 225.5 c 128,-1,19
 195 270 195 270 195 292 c 0,20,21
 195 318 195 318 205.5 363 c 128,-1,22
 216 408 216 408 213 421 c 1,23,24
 191 420 191 420 138 404 c 128,-1,25
 85 388 85 388 66 388 c 0,26,27
 43 388 43 388 31.5 403 c 128,-1,28
 20 418 20 418 20 436 c 128,-1,29
 20 454 20 454 31.5 469 c 128,-1,30
 43 484 43 484 66 484 c 0,31,32
 84 484 84 484 137.5 468 c 128,-1,33
 191 452 191 452 213 452 c 1,34,35
 212 488 212 488 193 559 c 128,-1,36
 174 630 174 630 174 667 c 0,37,38
 174 695 174 695 188.5 711 c 128,-1,39
 203 727 203 727 231 727 c 128,-1,40
 259 727 259 727 273.5 711 c 128,-1,41
 288 695 288 695 288 667 c 0,42,43
 288 630 288 630 269 559 c 128,-1,44
 250 488 250 488 249 452 c 1,45,46
 271 452 271 452 324.5 468 c 128,-1,47
 378 484 378 484 396 484 c 0,48,49
 419 484 419 484 430.5 469 c 128,-1,50
 442 454 442 454 442 436 c 128,-1,51
 442 418 442 418 430.5 403 c 128,-1,52
 419 388 419 388 396 388 c 0,53,54
 377 388 377 388 324 404 c 128,-1,55
 271 420 271 420 249 421 c 1,56,57
 246 408 246 408 256.5 363 c 128,-1,58
 267 318 267 318 267 292 c 0,59,60
 267 270 267 270 257.5 225.5 c 128,-1,61
 248 181 248 181 249 162 c 1,62,63
 271 163 271 163 324 179 c 128,-1,64
 377 195 377 195 396 195 c 0,65,66
 419 195 419 195 430.5 180 c 128,-1,67
 442 165 442 165 442 147 c 128,-1,68
 442 129 442 129 430.5 114 c 128,-1,69
 419 99 419 99 396 99 c 0,70,71
 378 99 378 99 324.5 115 c 128,-1,72
 271 131 271 131 249 131 c 1,73,74
 250 95 250 95 269 24 c 128,-1,75
 288 -47 288 -47 288 -84 c 0,76,77
 288 -112 288 -112 273.5 -128 c 128,-1,0
 259 -144 259 -144 231 -144 c 128,-1,1
EndSplineSet
EndChar

StartChar: periodcentered
Encoding: 117 183 116
Width: 278
Flags: W
TeX: 368 -248
HStem: 248 120<97.0487 180.951>
VStem: 79 120<266.049 349.951>
LayerCount: 2
Fore
SplineSet
79 308 m 128,-1,1
 79 333 79 333 96.5 350.5 c 128,-1,2
 114 368 114 368 139 368 c 128,-1,3
 164 368 164 368 181.5 350.5 c 128,-1,4
 199 333 199 333 199 308 c 128,-1,5
 199 283 199 283 181.5 265.5 c 128,-1,6
 164 248 164 248 139 248 c 128,-1,7
 114 248 114 248 96.5 265.5 c 128,-1,0
 79 283 79 283 79 308 c 128,-1,1
EndSplineSet
EndChar

StartChar: paragraph
Encoding: 116 182 117
Width: 593
Flags: W
TeX: 712 184
HStem: -184 28<169.94 267.879> -184 14<200 252.946> 698 14<314 405 491 569>
VStem: 26 288<410.372 596.707> 81 83<-149.114 -67.0424> 299 15<-11.5889 290> 405 86<-3.99512 698>
LayerCount: 2
Fore
SplineSet
491 698 m 1,0,-1
 491 148 l 2,1,2
 491 -46 491 -46 387 -124 c 0,3,4
 304 -184 304 -184 199 -184 c 0,5,6
 161 -184 161 -184 135.5 -173.5 c 128,-1,7
 110 -163 110 -163 99 -146.5 c 128,-1,8
 88 -130 88 -130 84.5 -118 c 128,-1,9
 81 -106 81 -106 81 -96 c 0,10,11
 81 -72 81 -72 95.5 -58.5 c 128,-1,12
 110 -45 110 -45 134 -45 c 0,13,14
 153 -45 153 -45 164.5 -53 c 128,-1,15
 176 -61 176 -61 176 -75 c 0,16,17
 176 -80 176 -80 170 -102 c 128,-1,18
 164 -124 164 -124 164 -127 c 0,19,20
 164 -138 164 -138 171.5 -147 c 128,-1,21
 179 -156 179 -156 196 -156 c 0,22,23
 214 -156 214 -156 238 -138.5 c 128,-1,24
 262 -121 262 -121 278 -81 c 0,25,26
 299 -26 299 -26 299 148 c 2,27,-1
 299 290 l 1,28,29
 207 292 207 292 150 314 c 0,30,31
 97 335 97 335 61.5 387 c 128,-1,32
 26 439 26 439 26 504 c 0,33,34
 26 564 26 564 56 612 c 128,-1,35
 86 660 86 660 138 683 c 0,36,37
 202 712 202 712 314 712 c 2,38,-1
 569 712 l 1,39,-1
 569 698 l 1,40,-1
 491 698 l 1,0,-1
405 148 m 2,41,-1
 405 698 l 1,42,-1
 314 698 l 1,43,-1
 314 148 l 2,44,45
 314 -14 314 -14 293.5 -83 c 128,-1,46
 273 -152 273 -152 200 -170 c 1,47,48
 248 -168 248 -168 284.5 -153.5 c 128,-1,49
 321 -139 321 -139 342.5 -112 c 128,-1,50
 364 -85 364 -85 377.5 -58 c 128,-1,51
 391 -31 391 -31 396.5 10.5 c 128,-1,52
 402 52 402 52 403.5 79 c 128,-1,53
 405 106 405 106 405 148 c 2,41,-1
EndSplineSet
EndChar

StartChar: bullet
Encoding: 219 8226 118
Width: 500
Flags: W
TeX: 536 -179
HStem: 179 357<164.011 335.989>
VStem: 71 358<271.216 442.989>
LayerCount: 2
Fore
SplineSet
71 357 m 128,-1,1
 71 431 71 431 123.5 483.5 c 128,-1,2
 176 536 176 536 250 536 c 128,-1,3
 324 536 324 536 376.5 483.5 c 128,-1,4
 429 431 429 431 429 357 c 128,-1,5
 429 283 429 283 376.5 231 c 128,-1,6
 324 179 324 179 250 179 c 128,-1,7
 176 179 176 179 123.5 231 c 128,-1,0
 71 283 71 283 71 357 c 128,-1,1
EndSplineSet
EndChar

StartChar: quotesinglbase
Encoding: 213 8218 119
Width: 260
Flags: W
TeX: 132 192
HStem: -6 138<72.1425 158.468>
VStem: 161 48<-70.5687 34>
LayerCount: 2
Fore
SplineSet
62 -192 m 1,0,-1
 51 -172 l 1,1,2
 161 -95 161 -95 161 -13 c 0,3,4
 161 -4 161 -4 159 6 c 1,5,6
 142 -6 142 -6 120 -6 c 0,7,8
 92 -6 92 -6 71.5 14 c 128,-1,9
 51 34 51 34 51 62 c 128,-1,10
 51 90 51 90 71.5 111 c 128,-1,11
 92 132 92 132 120 132 c 0,12,13
 164 132 164 132 186.5 94.5 c 128,-1,14
 209 57 209 57 209 11 c 0,15,16
 209 -49 209 -49 164.5 -105.5 c 128,-1,17
 120 -162 120 -162 62 -192 c 1,0,-1
EndSplineSet
EndChar

StartChar: quotedblbase
Encoding: 216 8222 120
Width: 464
Flags: W
TeX: 132 192
HStem: -6 138<69.1425 155.468 279.142 365.468>
VStem: 158 48<-70.5687 34> 368 48<-70.5687 34>
LayerCount: 2
Fore
SplineSet
269 -192 m 1,0,-1
 258 -172 l 1,1,2
 368 -95 368 -95 368 -13 c 0,3,4
 368 -4 368 -4 366 6 c 1,5,6
 349 -6 349 -6 327 -6 c 0,7,8
 299 -6 299 -6 278.5 14 c 128,-1,9
 258 34 258 34 258 62 c 128,-1,10
 258 90 258 90 278.5 111 c 128,-1,11
 299 132 299 132 327 132 c 0,12,13
 371 132 371 132 393.5 94.5 c 128,-1,14
 416 57 416 57 416 11 c 0,15,16
 416 -49 416 -49 371.5 -105.5 c 128,-1,17
 327 -162 327 -162 269 -192 c 1,0,-1
59 -192 m 1,18,-1
 48 -172 l 1,19,20
 158 -95 158 -95 158 -13 c 0,21,22
 158 -4 158 -4 156 6 c 1,23,24
 139 -6 139 -6 117 -6 c 0,25,26
 89 -6 89 -6 68.5 14 c 128,-1,27
 48 34 48 34 48 62 c 128,-1,28
 48 90 48 90 68.5 111 c 128,-1,29
 89 132 89 132 117 132 c 0,30,31
 161 132 161 132 183.5 94.5 c 128,-1,32
 206 57 206 57 206 11 c 0,33,34
 206 -49 206 -49 161.5 -105.5 c 128,-1,35
 117 -162 117 -162 59 -192 c 1,18,-1
EndSplineSet
EndChar

StartChar: quotedblright
Encoding: 215 8221 121
Width: 464
Flags: W
TeX: 727 -403
HStem: 589 138<69.1425 155.468 279.142 365.468>
VStem: 158 48<524.431 629> 368 48<524.431 629>
LayerCount: 2
Fore
SplineSet
269 403 m 1,0,-1
 258 423 l 1,1,2
 368 500 368 500 368 582 c 0,3,4
 368 591 368 591 366 601 c 1,5,6
 349 589 349 589 327 589 c 0,7,8
 299 589 299 589 278.5 609 c 128,-1,9
 258 629 258 629 258 657 c 128,-1,10
 258 685 258 685 278.5 706 c 128,-1,11
 299 727 299 727 327 727 c 0,12,13
 371 727 371 727 393.5 689.5 c 128,-1,14
 416 652 416 652 416 606 c 0,15,16
 416 546 416 546 371.5 489.5 c 128,-1,17
 327 433 327 433 269 403 c 1,0,-1
59 403 m 1,18,-1
 48 423 l 1,19,20
 158 500 158 500 158 582 c 0,21,22
 158 591 158 591 156 601 c 1,23,24
 139 589 139 589 117 589 c 0,25,26
 89 589 89 589 68.5 609 c 128,-1,27
 48 629 48 629 48 657 c 128,-1,28
 48 685 48 685 68.5 706 c 128,-1,29
 89 727 89 727 117 727 c 0,30,31
 161 727 161 727 183.5 689.5 c 128,-1,32
 206 652 206 652 206 606 c 0,33,34
 206 546 206 546 161.5 489.5 c 128,-1,35
 117 433 117 433 59 403 c 1,18,-1
EndSplineSet
EndChar

StartChar: guillemotright
Encoding: 121 187 122
Width: 426
Flags: W
TeX: 408 -64
LayerCount: 2
Fore
SplineSet
221 408 m 1,0,-1
 394 251 l 1,1,-1
 394 217 l 1,2,-1
 227 64 l 1,3,-1
 204 85 l 1,4,-1
 298 238 l 1,5,-1
 198 387 l 1,6,-1
 221 408 l 1,0,-1
55 408 m 1,7,-1
 228 251 l 1,8,-1
 228 217 l 1,9,-1
 61 64 l 1,10,-1
 38 85 l 1,11,-1
 132 238 l 1,12,-1
 32 387 l 1,13,-1
 55 408 l 1,7,-1
EndSplineSet
EndChar

StartChar: ellipsis
Encoding: 220 8230 123
Width: 1000
Flags: W
TeX: 132 6
HStem: -6 138<119.142 214.858 452.142 547.858 785.142 880.858>
VStem: 98 138<14.627 112.292> 431 138<14.627 112.292> 764 138<14.627 112.292>
CounterMasks: 1 70
LayerCount: 2
Fore
SplineSet
236 62 m 128,-1,1
 236 34 236 34 215.5 14 c 128,-1,2
 195 -6 195 -6 167 -6 c 128,-1,3
 139 -6 139 -6 118.5 14 c 128,-1,4
 98 34 98 34 98 62 c 128,-1,5
 98 90 98 90 118.5 111 c 128,-1,6
 139 132 139 132 167 132 c 128,-1,7
 195 132 195 132 215.5 111 c 128,-1,0
 236 90 236 90 236 62 c 128,-1,1
569 62 m 128,-1,9
 569 34 569 34 548.5 14 c 128,-1,10
 528 -6 528 -6 500 -6 c 128,-1,11
 472 -6 472 -6 451.5 14 c 128,-1,12
 431 34 431 34 431 62 c 128,-1,13
 431 90 431 90 451.5 111 c 128,-1,14
 472 132 472 132 500 132 c 128,-1,15
 528 132 528 132 548.5 111 c 128,-1,8
 569 90 569 90 569 62 c 128,-1,9
902 62 m 128,-1,17
 902 34 902 34 881.5 14 c 128,-1,18
 861 -6 861 -6 833 -6 c 128,-1,19
 805 -6 805 -6 784.5 14 c 128,-1,20
 764 34 764 34 764 62 c 128,-1,21
 764 90 764 90 784.5 111 c 128,-1,22
 805 132 805 132 833 132 c 128,-1,23
 861 132 861 132 881.5 111 c 128,-1,16
 902 90 902 90 902 62 c 128,-1,17
EndSplineSet
EndChar

StartChar: perthousand
Encoding: 221 8240 124
Width: 1000
Flags: W
TeX: 715 21
HStem: -12 25<449.583 524.471 785.583 860.471> 287 25<447.828 530.686 783.828 866.686> 382 25<138.583 213.471> 681 25<137.151 219.686> 695 20G<517.853 576>
VStem: 32 60<453.12 630.774> 261 60<465.408 641.338> 343 60<59.1201 236.774> 572 60<71.4078 247.338> 679 60<59.1201 236.774> 908 60<71.4078 247.338>
LayerCount: 2
Fore
SplineSet
343 148 m 0,0,1
 343 218 343 218 384.5 265 c 128,-1,2
 426 312 426 312 494 312 c 0,3,4
 556 312 556 312 594 269.5 c 128,-1,5
 632 227 632 227 632 163 c 0,6,7
 632 94 632 94 591 41 c 128,-1,8
 550 -12 550 -12 480 -12 c 0,9,10
 417 -12 417 -12 380 36 c 128,-1,11
 343 84 343 84 343 148 c 0,0,1
403 145 m 0,12,13
 403 118 403 118 410 89.5 c 128,-1,14
 417 61 417 61 437 37 c 128,-1,15
 457 13 457 13 487 13 c 128,-1,16
 517 13 517 13 537 37.5 c 128,-1,17
 557 62 557 62 564.5 91 c 128,-1,18
 572 120 572 120 572 148 c 0,19,20
 572 287 572 287 489 287 c 0,21,22
 444 287 444 287 423.5 246 c 128,-1,23
 403 205 403 205 403 145 c 0,12,13
32 542 m 0,24,25
 32 612 32 612 73.5 659 c 128,-1,26
 115 706 115 706 183 706 c 0,27,28
 245 706 245 706 283 663.5 c 128,-1,29
 321 621 321 621 321 557 c 0,30,31
 321 488 321 488 280 435 c 128,-1,32
 239 382 239 382 169 382 c 0,33,34
 106 382 106 382 69 430 c 128,-1,35
 32 478 32 478 32 542 c 0,24,25
92 539 m 0,36,37
 92 512 92 512 99 483.5 c 128,-1,38
 106 455 106 455 126 431 c 128,-1,39
 146 407 146 407 176 407 c 128,-1,40
 206 407 206 407 226 431.5 c 128,-1,41
 246 456 246 456 253.5 485 c 128,-1,42
 261 514 261 514 261 542 c 0,43,44
 261 681 261 681 178 681 c 0,45,46
 134 681 134 681 113 640 c 128,-1,47
 92 599 92 599 92 539 c 0,36,37
679 148 m 0,48,49
 679 218 679 218 720.5 265 c 128,-1,50
 762 312 762 312 830 312 c 0,51,52
 892 312 892 312 930 269.5 c 128,-1,53
 968 227 968 227 968 163 c 0,54,55
 968 94 968 94 927 41 c 128,-1,56
 886 -12 886 -12 816 -12 c 0,57,58
 753 -12 753 -12 716 36 c 128,-1,59
 679 84 679 84 679 148 c 0,48,49
739 145 m 0,60,61
 739 118 739 118 746 89.5 c 128,-1,62
 753 61 753 61 773 37 c 128,-1,63
 793 13 793 13 823 13 c 128,-1,64
 853 13 853 13 873 37.5 c 128,-1,65
 893 62 893 62 900.5 91 c 128,-1,66
 908 120 908 120 908 148 c 0,67,68
 908 287 908 287 825 287 c 0,69,70
 780 287 780 287 759.5 246 c 128,-1,71
 739 205 739 205 739 145 c 0,60,61
83 -21 m 1,72,-1
 530 715 l 1,73,-1
 576 715 l 1,74,-1
 129 -21 l 1,75,-1
 83 -21 l 1,72,-1
EndSplineSet
EndChar

StartChar: questiondown
Encoding: 125 191 125
Width: 444
Flags: W
TeX: 508 220
HStem: -220 25<170.488 257.695> 370 138<209.142 304.858>
VStem: 28 102<-126.993 79.6389> 188 138<389.708 487.373> 242 30<208.284 316> 276 92<-158.938 -61.8217>
LayerCount: 2
Fore
SplineSet
242 238 m 2,0,-1
 242 316 l 1,1,-1
 272 316 l 1,2,-1
 272 237 l 2,3,4
 272 173 272 173 226 152 c 0,5,6
 167 126 167 126 148.5 91.5 c 128,-1,7
 130 57 130 57 130 -21 c 0,8,9
 130 -65 130 -65 133 -93 c 128,-1,10
 136 -121 136 -121 144.5 -146 c 128,-1,11
 153 -171 153 -171 170.5 -183 c 128,-1,12
 188 -195 188 -195 216 -195 c 0,13,14
 240 -195 240 -195 258 -182.5 c 128,-1,15
 276 -170 276 -170 276 -147 c 0,16,17
 276 -136 276 -136 265 -116 c 128,-1,18
 254 -96 254 -96 254 -78 c 0,19,20
 254 -57 254 -57 271 -41.5 c 128,-1,21
 288 -26 288 -26 309 -26 c 0,22,23
 336 -26 336 -26 352 -44.5 c 128,-1,24
 368 -63 368 -63 368 -91 c 0,25,26
 368 -151 368 -151 318 -185.5 c 128,-1,27
 268 -220 268 -220 206 -220 c 0,28,29
 122 -220 122 -220 75 -165.5 c 128,-1,30
 28 -111 28 -111 28 -25 c 0,31,32
 28 15 28 15 35.5 44 c 128,-1,33
 43 73 43 73 58.5 93 c 128,-1,34
 74 113 74 113 97 128.5 c 128,-1,35
 120 144 120 144 150.5 159 c 128,-1,36
 181 174 181 174 220 193 c 0,37,38
 233 199 233 199 237.5 208 c 128,-1,39
 242 217 242 217 242 238 c 2,0,-1
188 440 m 128,-1,41
 188 468 188 468 208.5 488 c 128,-1,42
 229 508 229 508 257 508 c 128,-1,43
 285 508 285 508 305.5 488 c 128,-1,44
 326 468 326 468 326 440 c 128,-1,45
 326 412 326 412 305.5 391 c 128,-1,46
 285 370 285 370 257 370 c 128,-1,47
 229 370 229 370 208.5 391 c 128,-1,40
 188 412 188 412 188 440 c 128,-1,41
EndSplineSet
EndChar

StartChar: grave
Encoding: 64 96 126
Width: 278
Flags: W
TeX: 738 -563
HStem: 563 175
VStem: -13 228
LayerCount: 2
Fore
SplineSet
215 563 m 1,0,-1
 169 563 l 1,1,-1
 13 660 l 2,2,3
 -13 677 -13 677 -13 697 c 0,4,5
 -13 714 -13 714 -0.5 726 c 128,-1,6
 12 738 12 738 27 738 c 0,7,8
 46 738 46 738 76 708 c 2,9,-1
 215 563 l 1,0,-1
EndSplineSet
EndChar

StartChar: acute
Encoding: 114 180 127
Width: 278
Flags: W
TeX: 738 -563
HStem: 563 175
VStem: 63 228
LayerCount: 2
Fore
SplineSet
109 563 m 1,0,-1
 63 563 l 1,1,-1
 202 708 l 2,2,3
 232 738 232 738 251 738 c 0,4,5
 266 738 266 738 278.5 726 c 128,-1,6
 291 714 291 714 291 697 c 0,7,8
 291 677 291 677 265 660 c 2,9,-1
 109 563 l 1,0,-1
EndSplineSet
EndChar

StartChar: circumflex
Encoding: 201 710 128
Width: 278
Flags: W
TeX: 733 -563
HStem: 563 170
VStem: -19 316
LayerCount: 2
Fore
SplineSet
-19 563 m 1,0,-1
 104 733 l 1,1,-1
 174 733 l 1,2,-1
 297 563 l 1,3,-1
 258 563 l 1,4,-1
 139 667 l 1,5,-1
 20 563 l 1,6,-1
 -19 563 l 1,0,-1
EndSplineSet
EndChar

StartChar: tilde
Encoding: 207 732 129
Width: 278
Flags: W
TeX: 700 -586
HStem: 587 66<158.462 264.29> 633 66<13.7104 119.538>
VStem: -30 32<586 617.973> 276 32<668.027 700>
LayerCount: 2
Fore
SplineSet
2 586 m 5,0,-1
 -30 586 l 5,1,2
 -22 633 -22 633 3.5 666 c 132,-1,3
 29 699 29 699 72 699 c 4,4,5
 101 699 101 699 155 676 c 132,-1,6
 209 653 209 653 228 653 c 4,7,8
 246 653 246 653 259 666.5 c 132,-1,9
 272 680 272 680 276 700 c 5,10,-1
 308 700 l 5,11,12
 300 653 300 653 274.5 620 c 132,-1,13
 249 587 249 587 206 587 c 4,14,15
 177 587 177 587 123 610 c 132,-1,16
 69 633 69 633 50 633 c 4,17,18
 32 633 32 633 19 619.5 c 132,-1,19
 6 606 6 606 2 586 c 5,0,-1
EndSplineSet
EndChar

StartChar: macron
Encoding: 109 175 130
Width: 278
Flags: W
TeX: 664 -604
HStem: 604 60<0 278>
VStem: 0 278<604 664>
LayerCount: 2
Fore
SplineSet
0 604 m 1,0,-1
 0 664 l 1,1,-1
 278 664 l 1,2,-1
 278 604 l 1,3,-1
 0 604 l 1,0,-1
EndSplineSet
EndChar

StartChar: breve
Encoding: 203 728 131
Width: 278
Flags: W
TeX: 721 -564
HStem: 564 66<64.5022 213.498> 701 20G<-10 28.5 249.5 288>
VStem: -10 36<672.079 721> 252 36<672.079 721>
LayerCount: 2
Fore
SplineSet
-10 721 m 1,0,-1
 26 721 l 1,1,2
 31 677 31 677 61 653.5 c 128,-1,3
 91 630 91 630 139 630 c 128,-1,4
 187 630 187 630 217 653.5 c 128,-1,5
 247 677 247 677 252 721 c 1,6,-1
 288 721 l 1,7,8
 277 564 277 564 139 564 c 128,-1,9
 1 564 1 564 -10 721 c 1,0,-1
EndSplineSet
EndChar

StartChar: dotaccent
Encoding: 204 729 132
Width: 278
Flags: W
TeX: 683 -575
HStem: 575 108<100.986 177.014>
VStem: 85 108<590.986 667.014>
LayerCount: 2
Fore
SplineSet
85 629 m 128,-1,1
 85 652 85 652 100.5 667.5 c 128,-1,2
 116 683 116 683 139 683 c 128,-1,3
 162 683 162 683 177.5 667.5 c 128,-1,4
 193 652 193 652 193 629 c 128,-1,5
 193 606 193 606 177.5 590.5 c 128,-1,6
 162 575 162 575 139 575 c 128,-1,7
 116 575 116 575 100.5 590.5 c 128,-1,0
 85 606 85 606 85 629 c 128,-1,1
EndSplineSet
EndChar

StartChar: dieresis
Encoding: 102 168 133
Width: 278
Flags: W
TeX: 683 -575
HStem: 575 108<0.986206 77.0138 200.986 277.014>
VStem: -15 108<590.986 667.014> 185 108<590.986 667.014>
LayerCount: 2
Fore
SplineSet
185 629 m 128,-1,1
 185 652 185 652 200.5 667.5 c 128,-1,2
 216 683 216 683 239 683 c 128,-1,3
 262 683 262 683 277.5 667.5 c 128,-1,4
 293 652 293 652 293 629 c 128,-1,5
 293 606 293 606 277.5 590.5 c 128,-1,6
 262 575 262 575 239 575 c 128,-1,7
 216 575 216 575 200.5 590.5 c 128,-1,0
 185 606 185 606 185 629 c 128,-1,1
-15 629 m 128,-1,9
 -15 652 -15 652 0.5 667.5 c 128,-1,10
 16 683 16 683 39 683 c 128,-1,11
 62 683 62 683 77.5 667.5 c 128,-1,12
 93 652 93 652 93 629 c 128,-1,13
 93 606 93 606 77.5 590.5 c 128,-1,14
 62 575 62 575 39 575 c 128,-1,15
 16 575 16 575 0.5 590.5 c 128,-1,8
 -15 606 -15 606 -15 629 c 128,-1,9
EndSplineSet
EndChar

StartChar: ring
Encoding: 205 730 134
Width: 278
Flags: W
TeX: 746 -546
HStem: 546 36<95.3159 182.684> 710 36<95.3159 182.684>
VStem: 39 36<602.316 689.684> 203 36<602.316 689.684>
LayerCount: 2
Fore
SplineSet
39 646 m 128,-1,1
 39 687 39 687 68.5 716.5 c 128,-1,2
 98 746 98 746 139 746 c 128,-1,3
 180 746 180 746 209.5 716.5 c 128,-1,4
 239 687 239 687 239 646 c 128,-1,5
 239 605 239 605 209.5 575.5 c 128,-1,6
 180 546 180 546 139 546 c 128,-1,7
 98 546 98 546 68.5 575.5 c 128,-1,0
 39 605 39 605 39 646 c 128,-1,1
75 646 m 128,-1,9
 75 620 75 620 94 601 c 128,-1,10
 113 582 113 582 139 582 c 128,-1,11
 165 582 165 582 184 601 c 128,-1,12
 203 620 203 620 203 646 c 128,-1,13
 203 672 203 672 184 691 c 128,-1,14
 165 710 165 710 139 710 c 128,-1,15
 113 710 113 710 94 691 c 128,-1,8
 75 672 75 672 75 646 c 128,-1,9
EndSplineSet
EndChar

StartChar: cedilla
Encoding: 118 184 135
Width: 278
Flags: W
TeX: 0 220
HStem: -220 36<52.6709 169.222> -101 42<123 191> -20 20G<122.134 168>
VStem: 177 78<-177.029 -105.688>
LayerCount: 2
Fore
SplineSet
88 -97 m 1,0,-1
 131 0 l 1,1,-1
 168 0 l 1,2,-1
 141 -64 l 1,3,4
 158 -59 158 -59 175 -59 c 0,5,6
 207 -59 207 -59 231 -77.5 c 128,-1,7
 255 -96 255 -96 255 -132 c 0,8,9
 255 -220 255 -220 128 -220 c 0,10,11
 90 -220 90 -220 45 -203 c 1,12,-1
 58 -173 l 1,13,14
 88 -184 88 -184 117 -184 c 0,15,16
 177 -184 177 -184 177 -145 c 0,17,18
 177 -101 177 -101 129 -101 c 0,19,20
 117 -101 117 -101 102 -106 c 1,21,-1
 88 -97 l 1,0,-1
EndSplineSet
EndChar

StartChar: hungarumlaut
Encoding: 208 733 136
Width: 278
Flags: W
TeX: 738 -563
HStem: 563 175<161 170>
LayerCount: 2
Fore
SplineSet
-33 563 m 1,0,-1
 103 704 l 2,1,2
 111 714 111 714 126.5 726 c 128,-1,3
 142 738 142 738 155 738 c 0,4,5
 170 738 170 738 182.5 726.5 c 128,-1,6
 195 715 195 715 195 700 c 0,7,8
 195 677 195 677 168 659 c 2,9,-1
 13 563 l 1,10,-1
 -33 563 l 1,0,-1
161 563 m 1,11,-1
 297 704 l 2,12,13
 305 714 305 714 320.5 726 c 128,-1,14
 336 738 336 738 349 738 c 0,15,16
 364 738 364 738 376.5 726.5 c 128,-1,17
 389 715 389 715 389 700 c 0,18,19
 389 677 389 677 362 659 c 2,20,-1
 207 563 l 1,21,-1
 161 563 l 1,11,-1
EndSplineSet
EndChar

StartChar: ogonek
Encoding: 206 731 137
Width: 278
Flags: W
TeX: 3 220
HStem: -220 42<114.382 225.064>
VStem: 28 78<-169.498 -84.7719>
LayerCount: 2
Fore
SplineSet
222 -166 m 1,0,-1
 231 -203 l 1,1,2
 173 -220 173 -220 127 -220 c 0,3,4
 87 -220 87 -220 57.5 -201.5 c 128,-1,5
 28 -183 28 -183 28 -146 c 0,6,7
 28 -100 28 -100 71 -61 c 128,-1,8
 114 -22 114 -22 167 3 c 1,9,-1
 212 3 l 1,10,11
 174 -21 174 -21 140 -59 c 128,-1,12
 106 -97 106 -97 106 -132 c 0,13,14
 106 -152 106 -152 121.5 -165 c 128,-1,15
 137 -178 137 -178 154 -178 c 0,16,17
 188 -178 188 -178 222 -166 c 1,0,-1
EndSplineSet
EndChar

StartChar: caron
Encoding: 202 711 138
Width: 278
Flags: W
TeX: 733 -563
HStem: 563 170
VStem: -19 316
LayerCount: 2
Fore
SplineSet
104 563 m 1,0,-1
 -19 733 l 1,1,-1
 20 733 l 1,2,-1
 139 629 l 1,3,-1
 258 733 l 1,4,-1
 297 733 l 1,5,-1
 174 563 l 1,6,-1
 104 563 l 1,0,-1
EndSplineSet
EndChar

StartChar: emdash
Encoding: 210 8212 139
Width: 1000
Flags: W
TeX: 263 -209
HStem: 209 54<130 870>
LayerCount: 2
Fore
SplineSet
130 263 m 1,0,-1
 870 263 l 1,1,-1
 870 209 l 1,2,-1
 130 209 l 1,3,-1
 130 263 l 1,0,-1
EndSplineSet
EndChar

StartChar: AE
Encoding: 132 198 140
Width: 1000
Flags: W
TeX: 715 0
HStem: 0 25<-21 57 92 191 334 430 538 780.517> 249 31<220 430> 349 31<538 677.148> 495 21G<879 908> 690 25<301 391 428 430 538 764.192>
VStem: 430 108<25 249 280 349 380 690> 715 30<191 312.031 420.866 531> 882 26<495 558.307> 913 27<182.689 245>
LayerCount: 2
Fore
SplineSet
430 280 m 1,0,-1
 430 690 l 1,1,-1
 428 690 l 1,2,-1
 220 280 l 1,3,-1
 430 280 l 1,0,-1
57 25 m 1,4,-1
 391 690 l 1,5,-1
 301 690 l 1,6,-1
 301 715 l 1,7,-1
 902 715 l 1,8,-1
 908 495 l 1,9,-1
 882 495 l 1,10,11
 876 530 876 530 870 554.5 c 128,-1,12
 864 579 864 579 854.5 600 c 128,-1,13
 845 621 845 621 835 634.5 c 128,-1,14
 825 648 825 648 807.5 659 c 128,-1,15
 790 670 790 670 772 675.5 c 128,-1,16
 754 681 754 681 724 684.5 c 128,-1,17
 694 688 694 688 663 689 c 128,-1,18
 632 690 632 690 586 690 c 2,19,-1
 538 690 l 1,20,-1
 538 380 l 1,21,-1
 592 380 l 2,22,23
 674 380 674 380 695 411 c 128,-1,24
 716 442 716 442 715 531 c 1,25,-1
 745 531 l 1,26,-1
 745 191 l 1,27,-1
 715 191 l 1,28,29
 715 227 715 227 714 246.5 c 128,-1,30
 713 266 713 266 708.5 287 c 128,-1,31
 704 308 704 308 696.5 317.5 c 128,-1,32
 689 327 689 327 675 335.5 c 128,-1,33
 661 344 661 344 641.5 346.5 c 128,-1,34
 622 349 622 349 592 349 c 2,35,-1
 538 349 l 1,36,-1
 538 25 l 1,37,-1
 689 25 l 2,38,39
 798 25 798 25 847 78 c 128,-1,40
 896 131 896 131 913 245 c 1,41,-1
 940 245 l 1,42,-1
 931 0 l 1,43,-1
 334 0 l 1,44,-1
 334 25 l 1,45,-1
 430 25 l 1,46,-1
 430 249 l 1,47,-1
 205 249 l 1,48,-1
 92 25 l 1,49,-1
 191 25 l 1,50,-1
 191 0 l 1,51,-1
 -21 0 l 1,52,-1
 -21 25 l 1,53,-1
 57 25 l 1,4,-1
EndSplineSet
Substitution2: "sous-table 'c2sc' Capitales vers petites capitales dans Latin lookup 0" ae.sc
EndChar

StartChar: ordfeminine
Encoding: 104 170 141
Width: 361
Flags: W
TeX: 706 -398
HStem: 398 25<89.7212 173.334 294.833 335> 611 78.5<59.1725 108.262> 687 19<129.451 196.425>
VStem: 26 78<426.285 534.677> 50 66<618.221 677.715> 212 72<450.195 571 590.031 667.914>
LayerCount: 2
Fore
SplineSet
284 629 m 2,0,-1
 284 476 l 2,1,2
 284 440 284 440 294.5 431 c 128,-1,3
 305 422 305 422 335 423 c 1,4,-1
 335 404 l 1,5,-1
 286 404 l 2,6,7
 254 404 254 404 237.5 411.5 c 128,-1,8
 221 419 221 419 214 444 c 1,9,10
 181 398 181 398 110 398 c 0,11,12
 65 398 65 398 45.5 420 c 128,-1,13
 26 442 26 442 26 485 c 0,14,15
 26 509 26 509 34 526 c 128,-1,16
 42 543 42 543 58.5 552 c 128,-1,17
 75 561 75 561 87 564.5 c 128,-1,18
 99 568 99 568 119 572 c 2,19,-1
 146 578 l 2,20,21
 185 587 185 587 212 598 c 1,22,23
 212 650 212 650 203.5 668.5 c 128,-1,24
 195 687 195 687 167 687 c 0,25,26
 141 687 141 687 129 678 c 128,-1,27
 117 669 117 669 116 643 c 0,28,29
 116 625 116 625 108.5 618 c 128,-1,30
 101 611 101 611 80 611 c 0,31,32
 50 611 50 611 50 634 c 0,33,34
 50 673 50 673 84.5 689.5 c 128,-1,35
 119 706 119 706 165 706 c 0,36,37
 284 706 284 706 284 629 c 2,0,-1
212 571 m 1,38,-1
 150 554 l 2,39,40
 125 546 125 546 114.5 528.5 c 128,-1,41
 104 511 104 511 104 477 c 0,42,43
 104 423 104 423 141 423 c 0,44,45
 175 423 175 423 193.5 455 c 128,-1,46
 212 487 212 487 212 523 c 2,47,-1
 212 571 l 1,38,-1
EndSplineSet
EndChar

StartChar: Lslash
Encoding: 191 321 142
Width: 667
Flags: W
TeX: 715 0
HStem: 0 25<34 128 242 488.125> 690 25<34 128 242 333>
VStem: 128 114<25 271 330 353 412 690> 617 24<206.715 264>
LayerCount: 2
Fore
SplineSet
128 25 m 1,0,-1
 128 271 l 1,1,-1
 34 204 l 1,2,-1
 34 263 l 1,3,-1
 128 330 l 1,4,-1
 128 690 l 1,5,-1
 34 690 l 1,6,-1
 34 715 l 1,7,-1
 333 715 l 1,8,-1
 333 690 l 1,9,-1
 242 690 l 1,10,-1
 242 412 l 1,11,-1
 472 577 l 1,12,-1
 472 518 l 1,13,-1
 242 353 l 1,14,-1
 242 25 l 1,15,-1
 408 25 l 2,16,17
 499 25 499 25 546.5 74 c 128,-1,18
 594 123 594 123 617 264 c 1,19,-1
 641 264 l 1,20,-1
 641 0 l 1,21,-1
 34 0 l 1,22,-1
 34 25 l 1,23,-1
 128 25 l 1,0,-1
EndSplineSet
EndChar

StartChar: Oslash
Encoding: 150 216 143
Width: 778
Flags: W
TeX: 727 12
HStem: -12 31<309.24 470.138> 696 31<310.375 468.474>
VStem: 60 132<213.138 496.818> 586 132<217.724 500.473>
LayerCount: 2
Fore
SplineSet
207 183 m 1,0,-1
 561 570 l 1,1,2
 519 696 519 696 389 696 c 0,3,4
 339 696 339 696 302 676.5 c 128,-1,5
 265 657 265 657 244.5 627.5 c 128,-1,6
 224 598 224 598 211.5 551 c 128,-1,7
 199 504 199 504 195.5 460 c 128,-1,8
 192 416 192 416 192 357 c 0,9,10
 192 248 192 248 207 183 c 1,0,-1
571 533 m 1,11,-1
 217 147 l 1,12,13
 257 19 257 19 389 19 c 0,14,15
 451 19 451 19 492.5 46 c 128,-1,16
 534 73 534 73 553 124.5 c 128,-1,17
 572 176 572 176 579 229 c 128,-1,18
 586 282 586 282 586 357 c 0,19,20
 586 467 586 467 571 533 c 1,11,-1
54 16 m 1,21,-1
 137 107 l 1,22,23
 60 209 60 209 60 357 c 0,24,25
 60 426 60 426 79.5 490 c 128,-1,26
 99 554 99 554 137.5 608 c 128,-1,27
 176 662 176 662 241 694.5 c 128,-1,28
 306 727 306 727 389 727 c 0,29,30
 532 727 532 727 619 633 c 1,31,-1
 700 721 l 1,32,-1
 724 700 l 1,33,-1
 640 609 l 1,34,35
 718 507 718 507 718 357 c 0,36,37
 718 288 718 288 698.5 224 c 128,-1,38
 679 160 679 160 640.5 106.5 c 128,-1,39
 602 53 602 53 537 20.5 c 128,-1,40
 472 -12 472 -12 389 -12 c 0,41,42
 247 -12 247 -12 158 82 c 1,43,-1
 77 -6 l 1,44,-1
 54 16 l 1,21,-1
EndSplineSet
Substitution2: "sous-table 'c2sc' Capitales vers petites capitales dans Latin lookup 0" oslash.sc
EndChar

StartChar: OE
Encoding: 193 338 144
Width: 1111
Flags: W
TeX: 721 6
HStem: 0 25<317.568 466.056 649 891.517> 349 31<649 788.148> 495 21G<990 1019> 690 31<310.249 472.033 649 885.809>
VStem: 60 132<218.266 494.738> 541 108<87.0449 349 380 629.25> 826 30<191 312.031 420.866 531> 993 26<495 558.307> 1024 27<182.689 245>
LayerCount: 2
Fore
SplineSet
60 357 m 0,0,1
 60 424 60 424 79 486.5 c 128,-1,2
 98 549 98 549 136 602.5 c 128,-1,3
 174 656 174 656 239.5 688.5 c 128,-1,4
 305 721 305 721 389 721 c 0,5,6
 437 721 437 721 491 718 c 0,7,8
 596 715 596 715 599 715 c 2,9,-1
 1013 715 l 1,10,-1
 1019 495 l 1,11,-1
 993 495 l 1,12,13
 987 530 987 530 981 554.5 c 128,-1,14
 975 579 975 579 965.5 600 c 128,-1,15
 956 621 956 621 946 634.5 c 128,-1,16
 936 648 936 648 918.5 659 c 128,-1,17
 901 670 901 670 883 675.5 c 128,-1,18
 865 681 865 681 835 684.5 c 128,-1,19
 805 688 805 688 774 689 c 128,-1,20
 743 690 743 690 697 690 c 2,21,-1
 649 690 l 1,22,-1
 649 380 l 1,23,-1
 703 380 l 2,24,25
 785 380 785 380 806 411 c 128,-1,26
 827 442 827 442 826 531 c 1,27,-1
 856 531 l 1,28,-1
 856 191 l 1,29,-1
 826 191 l 1,30,31
 826 227 826 227 825 246.5 c 128,-1,32
 824 266 824 266 819.5 287 c 128,-1,33
 815 308 815 308 807.5 317.5 c 128,-1,34
 800 327 800 327 786 335.5 c 128,-1,35
 772 344 772 344 752.5 346.5 c 128,-1,36
 733 349 733 349 703 349 c 2,37,-1
 649 349 l 1,38,-1
 649 25 l 1,39,-1
 800 25 l 2,40,41
 909 25 909 25 958 78 c 128,-1,42
 1007 131 1007 131 1024 245 c 1,43,-1
 1051 245 l 1,44,-1
 1042 0 l 1,45,-1
 594 0 l 2,46,47
 536 0 536 0 484 -3 c 2,48,-1
 382 -6 l 2,49,50
 301 -6 301 -6 237.5 25.5 c 128,-1,51
 174 57 174 57 136.5 109.5 c 128,-1,52
 99 162 99 162 79.5 225 c 128,-1,53
 60 288 60 288 60 357 c 0,0,1
541 219 m 2,54,-1
 541 503 l 2,55,56
 541 602 541 602 509 646 c 128,-1,57
 477 690 477 690 389 690 c 0,58,59
 339 690 339 690 302 671 c 128,-1,60
 265 652 265 652 244.5 622 c 128,-1,61
 224 592 224 592 211.5 546 c 128,-1,62
 199 500 199 500 195.5 457 c 128,-1,63
 192 414 192 414 192 357 c 128,-1,64
 192 300 192 300 195.5 257 c 128,-1,65
 199 214 199 214 211.5 168 c 128,-1,66
 224 122 224 122 244.5 92.5 c 128,-1,67
 265 63 265 63 302 44 c 128,-1,68
 339 25 339 25 389 25 c 0,69,70
 476 25 476 25 508.5 68.5 c 128,-1,71
 541 112 541 112 541 219 c 2,54,-1
EndSplineSet
Substitution2: "sous-table 'c2sc' Capitales vers petites capitales dans Latin lookup 0" oe.sc
EndChar

StartChar: ordmasculine
Encoding: 120 186 145
Width: 373
Flags: W
TeX: 706 -398
HStem: 398 19<150.267 222.362> 687 19<150.267 223.643>
VStem: 34 78<470.605 634.057> 261 78<470.605 634.05>
LayerCount: 2
Fore
SplineSet
187 398 m 128,-1,1
 118 398 118 398 76 443.5 c 128,-1,2
 34 489 34 489 34 552 c 0,3,4
 34 616 34 616 76 661 c 128,-1,5
 118 706 118 706 187 706 c 128,-1,6
 256 706 256 706 297.5 661 c 128,-1,7
 339 616 339 616 339 552 c 0,8,9
 339 489 339 489 297.5 443.5 c 128,-1,0
 256 398 256 398 187 398 c 128,-1,1
187 417 m 0,10,11
 227 417 227 417 244 450.5 c 128,-1,12
 261 484 261 484 261 552 c 0,13,14
 261 623 261 623 244.5 655 c 128,-1,15
 228 687 228 687 187 687 c 128,-1,16
 146 687 146 687 129 654 c 128,-1,17
 112 621 112 621 112 552 c 0,18,19
 112 484 112 484 129 450.5 c 128,-1,20
 146 417 146 417 187 417 c 0,10,11
EndSplineSet
EndChar

StartChar: ae
Encoding: 164 230 146
Width: 815
Flags: W
TeX: 502 12
HStem: -12 31<142.838 264.771 519.36 651.713> 276 31<440 654> 477 25<204.911 307.071 503.57 599.278>
VStem: 41 114<39.8096 215.013> 80 96<355.864 446.158> 338 102<99.8615 276 313.853 414.836> 654 120<307 382.365>
LayerCount: 2
Fore
SplineSet
774 276 m 1,0,-1
 440 276 l 1,1,-1
 440 268 l 2,2,3
 440 222 440 222 443 188 c 128,-1,4
 446 154 446 154 455 120.5 c 128,-1,5
 464 87 464 87 480 66 c 128,-1,6
 496 45 496 45 523 32 c 128,-1,7
 550 19 550 19 588 19 c 0,8,9
 705 19 705 19 751 147 c 1,10,-1
 773 139 l 1,11,12
 742 55 742 55 690 21.5 c 128,-1,13
 638 -12 638 -12 552 -12 c 0,14,15
 481 -10 481 -10 431 16 c 128,-1,16
 381 42 381 42 351 104 c 1,17,18
 328 43 328 43 287 15.5 c 128,-1,19
 246 -12 246 -12 182 -12 c 0,20,21
 104 -12 104 -12 72.5 24 c 128,-1,22
 41 60 41 60 41 133 c 0,23,24
 41 194 41 194 72 227 c 128,-1,25
 103 260 103 260 168 275 c 2,26,-1
 228 289 l 2,27,28
 285 303 285 303 338 321 c 1,29,-1
 338 363 l 2,30,31
 338 421 338 421 322 449 c 128,-1,32
 306 477 306 477 260 477 c 0,33,34
 219 477 219 477 197.5 459.5 c 128,-1,35
 176 442 176 442 176 396 c 0,36,37
 176 367 176 367 164.5 355.5 c 128,-1,38
 153 344 153 344 126 344 c 0,39,40
 80 344 80 344 80 381 c 0,41,42
 80 426 80 426 109 454.5 c 128,-1,43
 138 483 138 483 175 492.5 c 128,-1,44
 212 502 212 502 257 502 c 0,45,46
 365 502 365 502 404 438 c 1,47,48
 461 502 461 502 559 502 c 0,49,50
 655 502 655 502 714.5 439.5 c 128,-1,51
 774 377 774 377 774 276 c 1,0,-1
338 293 m 1,52,-1
 234 262 l 2,53,54
 188 248 188 248 171.5 223 c 128,-1,55
 155 198 155 198 155 134 c 0,56,57
 155 19 155 19 220 19 c 0,58,59
 260 19 260 19 288.5 50.5 c 128,-1,60
 317 82 317 82 327.5 120.5 c 128,-1,61
 338 159 338 159 338 197 c 2,62,-1
 338 293 l 1,52,-1
440 307 m 1,63,-1
 654 307 l 1,64,65
 654 335 654 335 653 353 c 128,-1,66
 652 371 652 371 646 397 c 128,-1,67
 640 423 640 423 629.5 438.5 c 128,-1,68
 619 454 619 454 598 465.5 c 128,-1,69
 577 477 577 477 548 477 c 0,70,71
 518 477 518 477 495.5 459.5 c 128,-1,72
 473 442 473 442 461.5 414.5 c 128,-1,73
 450 387 450 387 445 360 c 128,-1,74
 440 333 440 333 440 307 c 1,63,-1
EndSplineSet
Substitution2: "sous-table 'smcp' Bas-de-casse vers petites capitales dans Latin lookup 0" ae.sc
EndChar

StartChar: dotlessi
Encoding: 190 305 147
Width: 316
Flags: W
TeX: 490 0
HStem: 0 25<21 107 209 295> 465 25<21 107>
VStem: 107 102<25 465>
LayerCount: 2
Fore
SplineSet
107 25 m 1,0,-1
 107 465 l 1,1,-1
 21 465 l 1,2,-1
 21 490 l 1,3,-1
 209 490 l 1,4,-1
 209 25 l 1,5,-1
 295 25 l 1,6,-1
 295 0 l 1,7,-1
 21 0 l 1,8,-1
 21 25 l 1,9,-1
 107 25 l 1,0,-1
EndSplineSet
EndChar

StartChar: lslash
Encoding: 192 322 148
Width: 316
Flags: W
TeX: 715 0
HStem: 0 25<21 107 209 295> 690 25<21 107>
VStem: 107 102<25 338 390 414 466 690>
LayerCount: 2
Fore
SplineSet
107 390 m 1,0,-1
 107 690 l 1,1,-1
 21 690 l 1,2,-1
 21 715 l 1,3,-1
 209 715 l 1,4,-1
 209 466 l 1,5,-1
 287 524 l 1,6,-1
 287 472 l 1,7,-1
 209 414 l 1,8,-1
 209 25 l 1,9,-1
 295 25 l 1,10,-1
 295 0 l 1,11,-1
 21 0 l 1,12,-1
 21 25 l 1,13,-1
 107 25 l 1,14,-1
 107 338 l 1,15,-1
 27 278 l 1,16,-1
 27 330 l 1,17,-1
 107 390 l 1,0,-1
EndSplineSet
EndChar

StartChar: oslash
Encoding: 182 248 149
Width: 574
Flags: W
TeX: 502 12
HStem: -12 25<234.299 343.196> 477 25<230.804 339.499>
VStem: 54 114<144.04 356.698> 406 114<133.302 343.348>
LayerCount: 2
Fore
SplineSet
172 143 m 1,0,-1
 394 386 l 1,1,2
 372 477 372 477 287 477 c 0,3,4
 259 477 259 477 237.5 468 c 128,-1,5
 216 459 216 459 203.5 439.5 c 128,-1,6
 191 420 191 420 183.5 401.5 c 128,-1,7
 176 383 176 383 172.5 351 c 128,-1,8
 169 319 169 319 168.5 299.5 c 128,-1,9
 168 280 168 280 168 245 c 0,10,11
 168 176 168 176 172 143 c 1,0,-1
402 346 m 1,12,-1
 180 103 l 1,13,14
 202 13 202 13 287 13 c 0,15,16
 315 13 315 13 336.5 22 c 128,-1,17
 358 31 358 31 370.5 50.5 c 128,-1,18
 383 70 383 70 390.5 88.5 c 128,-1,19
 398 107 398 107 401.5 139 c 128,-1,20
 405 171 405 171 405.5 190.5 c 128,-1,21
 406 210 406 210 406 245 c 0,22,23
 406 313 406 313 402 346 c 1,12,-1
54 14 m 1,24,-1
 109 74 l 1,25,26
 54 144 54 144 54 245 c 0,27,28
 54 286 54 286 66 328 c 128,-1,29
 78 370 78 370 103 410.5 c 128,-1,30
 128 451 128 451 176 476.5 c 128,-1,31
 224 502 224 502 287 502 c 0,32,33
 385 502 385 502 444 441 c 1,34,-1
 497 499 l 1,35,-1
 520 476 l 1,36,-1
 466 417 l 1,37,38
 520 345 520 345 520 245 c 0,39,40
 520 204 520 204 508 162 c 128,-1,41
 496 120 496 120 471 79.5 c 128,-1,42
 446 39 446 39 398 13.5 c 128,-1,43
 350 -12 350 -12 287 -12 c 0,44,45
 188 -12 188 -12 130 49 c 1,46,-1
 77 -9 l 1,47,-1
 54 14 l 1,24,-1
EndSplineSet
Substitution2: "sous-table 'smcp' Bas-de-casse vers petites capitales dans Latin lookup 0" oslash.sc
EndChar

StartChar: oe
Encoding: 194 339 150
Width: 889
Flags: W
TeX: 502 12
HStem: -12 25<228.942 338.57 609.579 704.111> 276 31<508 722> 477 25<229.096 338.329 571.391 667.278>
VStem: 54 114<133.302 356.698> 399.5 108.5<99.8615 276 307 415.357> 722 120<307 382.365>
LayerCount: 2
Fore
SplineSet
168 245 m 128,-1,1
 168 210 168 210 168.5 190.5 c 128,-1,2
 169 171 169 171 172 139 c 128,-1,3
 175 107 175 107 183 88.5 c 128,-1,4
 191 70 191 70 203 50.5 c 128,-1,5
 215 31 215 31 235.5 22 c 128,-1,6
 256 13 256 13 284 13 c 128,-1,7
 312 13 312 13 332.5 22 c 128,-1,8
 353 31 353 31 365 50.5 c 128,-1,9
 377 70 377 70 385 88.5 c 128,-1,10
 393 107 393 107 396 139 c 128,-1,11
 399 171 399 171 399.5 190.5 c 128,-1,12
 400 210 400 210 400 245 c 128,-1,13
 400 280 400 280 399.5 299.5 c 128,-1,14
 399 319 399 319 396 351 c 128,-1,15
 393 383 393 383 385 401.5 c 128,-1,16
 377 420 377 420 365 439.5 c 128,-1,17
 353 459 353 459 332.5 468 c 128,-1,18
 312 477 312 477 284 477 c 128,-1,19
 256 477 256 477 235.5 468 c 128,-1,20
 215 459 215 459 203 439.5 c 128,-1,21
 191 420 191 420 183 401.5 c 128,-1,22
 175 383 175 383 172 351 c 128,-1,23
 169 319 169 319 168.5 299.5 c 128,-1,0
 168 280 168 280 168 245 c 128,-1,1
508 307 m 1,24,-1
 722 307 l 1,25,26
 722 335 722 335 721 353 c 128,-1,27
 720 371 720 371 714 397 c 128,-1,28
 708 423 708 423 697.5 438.5 c 128,-1,29
 687 454 687 454 666 465.5 c 128,-1,30
 645 477 645 477 616 477 c 0,31,32
 586 477 586 477 563.5 459.5 c 128,-1,33
 541 442 541 442 529.5 414.5 c 128,-1,34
 518 387 518 387 513 360 c 128,-1,35
 508 333 508 333 508 307 c 1,24,-1
842 276 m 1,36,-1
 508 276 l 1,37,-1
 508 268 l 2,38,39
 508 222 508 222 511 188 c 128,-1,40
 514 154 514 154 523 120.5 c 128,-1,41
 532 87 532 87 548 66 c 128,-1,42
 564 45 564 45 591 32 c 128,-1,43
 618 19 618 19 656 19 c 0,44,45
 773 19 773 19 819 147 c 1,46,-1
 841 139 l 1,47,48
 810 56 810 56 759 22 c 128,-1,49
 708 -12 708 -12 635 -12 c 0,50,51
 504 -12 504 -12 455 72 c 1,52,53
 398 -12 398 -12 279 -12 c 0,54,55
 219 -12 219 -12 173 13.5 c 128,-1,56
 127 39 127 39 102.5 79.5 c 128,-1,57
 78 120 78 120 66 162 c 128,-1,58
 54 204 54 204 54 245 c 128,-1,59
 54 286 54 286 66 328 c 128,-1,60
 78 370 78 370 103 410.5 c 128,-1,61
 128 451 128 451 176 476.5 c 128,-1,62
 224 502 224 502 287 502 c 0,63,64
 401 502 401 502 459 420 c 1,65,66
 524 502 524 502 627 502 c 0,67,68
 723 502 723 502 782.5 439.5 c 128,-1,69
 842 377 842 377 842 276 c 1,36,-1
EndSplineSet
Substitution2: "sous-table 'smcp' Bas-de-casse vers petites capitales dans Latin lookup 0" oe.sc
EndChar

StartChar: germandbls
Encoding: 157 223 151
Width: 593
Flags: W
TeX: 727 6
HStem: 0 25<29 103 205 272 331.732 393.857> 462 31<302 380.585> 702 25<256.524 365.159>
VStem: 103 102<25 649.206> 278 24<57.1226 159> 416 96<513.126 664.409> 431 108<87.9225 388.173>
LayerCount: 2
Fore
SplineSet
29 0 m 1,0,-1
 29 25 l 1,1,-1
 103 25 l 1,2,-1
 103 537 l 2,3,4
 103 585 103 585 111.5 617 c 128,-1,5
 120 649 120 649 143 675.5 c 128,-1,6
 166 702 166 702 210 714.5 c 128,-1,7
 254 727 254 727 321 727 c 0,8,9
 405 727 405 727 458.5 694 c 128,-1,10
 512 661 512 661 512 583 c 0,11,12
 512 480 512 480 392 474 c 1,13,-1
 392 472 l 1,14,15
 449 470 449 470 483 436.5 c 128,-1,16
 517 403 517 403 528 357 c 128,-1,17
 539 311 539 311 539 246 c 0,18,19
 539 206 539 206 536.5 175 c 128,-1,20
 534 144 534 144 524 108.5 c 128,-1,21
 514 73 514 73 497.5 49 c 128,-1,22
 481 25 481 25 451 9.5 c 128,-1,23
 421 -6 421 -6 380 -6 c 0,24,25
 321 -6 321 -6 299.5 23.5 c 128,-1,26
 278 53 278 53 278 114 c 2,27,-1
 278 159 l 1,28,-1
 302 159 l 1,29,-1
 302 136 l 2,30,31
 302 81 302 81 314.5 55.5 c 128,-1,32
 327 30 327 30 365 30 c 0,33,34
 405 30 405 30 418 71.5 c 128,-1,35
 431 113 431 113 431 244 c 0,36,37
 431 373 431 373 408 417.5 c 128,-1,38
 385 462 385 462 317 462 c 2,39,-1
 302 462 l 1,40,-1
 302 493 l 1,41,-1
 316 493 l 2,42,43
 370 493 370 493 393 510 c 128,-1,44
 416 527 416 527 416 583 c 0,45,46
 416 702 416 702 307 702 c 0,47,48
 258 702 258 702 231.5 668 c 128,-1,49
 205 634 205 634 205 548 c 2,50,-1
 205 25 l 1,51,-1
 272 25 l 1,52,-1
 272 0 l 1,53,-1
 29 0 l 1,0,-1
EndSplineSet
EndChar

StartChar: divide
Encoding: 181 247 152
Width: 600
Flags: W
TeX: 514 12
HStem: -12 138<252.142 347.858> 218 66<49 551> 376 138<252.142 347.858>
VStem: 231 138<8.62695 106.292 396.627 494.292>
CounterMasks: 1 e0
LayerCount: 2
Fore
SplineSet
551 218 m 1,0,-1
 49 218 l 1,1,-1
 49 284 l 1,2,-1
 551 284 l 1,3,-1
 551 218 l 1,0,-1
369 56 m 128,-1,5
 369 28 369 28 348.5 8 c 128,-1,6
 328 -12 328 -12 300 -12 c 128,-1,7
 272 -12 272 -12 251.5 8 c 128,-1,8
 231 28 231 28 231 56 c 128,-1,9
 231 84 231 84 251.5 105 c 128,-1,10
 272 126 272 126 300 126 c 128,-1,11
 328 126 328 126 348.5 105 c 128,-1,4
 369 84 369 84 369 56 c 128,-1,5
369 444 m 128,-1,13
 369 416 369 416 348.5 396 c 128,-1,14
 328 376 328 376 300 376 c 128,-1,15
 272 376 272 376 251.5 396 c 128,-1,16
 231 416 231 416 231 444 c 128,-1,17
 231 472 231 472 251.5 493 c 128,-1,18
 272 514 272 514 300 514 c 128,-1,19
 328 514 328 514 348.5 493 c 128,-1,12
 369 472 369 472 369 444 c 128,-1,13
EndSplineSet
EndChar

StartChar: threequarters
Encoding: 124 190 153
Width: 834
Flags: W
TeX: 715 21
HStem: 0 21G<647 719> 131 25<520 647 719 773> 275.564 20.7061<110.959 212.077> 494.323 19.8057<105.514 191.709> 683.375 19.8066<126.143 211.294> 695 20G<617.853 676>
VStem: 39.7959 55.8154<308.608 363.338> 65.0039 52.2139<615.978 672.567> 235.148 83.7246<557.613 661.648> 256.755 90.0254<336.923 457.017> 647 72<0 131 156 320> 773 24<78 131 156 206>
LayerCount: 2
Fore
SplineSet
214.444335938 509.62890625 m 1,0,1
 273.860351562 503.326171875 273.860351562 503.326171875 310.3203125 472.268554688 c 128,-1,2
 346.780273438 441.208984375 346.780273438 441.208984375 346.780273438 397.998046875 c 0,3,4
 346.780273438 348.485351562 346.780273438 348.485351562 299.966796875 312.024414062 c 128,-1,5
 253.153320312 275.564453125 253.153320312 275.564453125 173.932617188 275.564453125 c 0,6,7
 114.516601562 275.564453125 114.516601562 275.564453125 77.1572265625 297.62109375 c 128,-1,8
 39.7958984375 319.676757812 39.7958984375 319.676757812 39.7958984375 353.885742188 c 0,9,10
 39.7958984375 372.791015625 39.7958984375 372.791015625 51.5 384.043945312 c 128,-1,11
 63.2021484375 395.297851562 63.2021484375 395.297851562 82.1083984375 395.297851562 c 0,12,13
 99.212890625 395.297851562 99.212890625 395.297851562 111.365234375 385.845703125 c 128,-1,14
 123.51953125 376.392578125 123.51953125 376.392578125 123.51953125 361.98828125 c 0,15,16
 123.51953125 348.485351562 123.51953125 348.485351562 109.56640625 339.483398438 c 128,-1,17
 95.611328125 330.48046875 95.611328125 330.48046875 95.611328125 324.177734375 c 0,18,19
 95.611328125 310.673828125 95.611328125 310.673828125 118.568359375 303.47265625 c 128,-1,20
 141.524414062 296.270507812 141.524414062 296.270507812 166.73046875 296.270507812 c 0,21,22
 210.84375 296.270507812 210.84375 296.270507812 233.798828125 322.827148438 c 128,-1,23
 256.754882812 349.385742188 256.754882812 349.385742188 256.754882812 397.998046875 c 128,-1,24
 256.754882812 446.611328125 256.754882812 446.611328125 232.44921875 470.466796875 c 128,-1,25
 208.141601562 494.323242188 208.141601562 494.323242188 154.126953125 494.323242188 c 2,26,-1
 105.513671875 494.323242188 l 1,27,-1
 105.513671875 514.12890625 l 1,28,-1
 142.424804688 514.12890625 l 2,29,30
 236.049804688 514.12890625 236.049804688 514.12890625 235.1484375 610.456054688 c 0,31,32
 235.1484375 651.8671875 235.1484375 651.8671875 219.39453125 667.62109375 c 128,-1,33
 203.641601562 683.375 203.641601562 683.375 171.232421875 683.375 c 0,34,35
 148.725585938 683.375 148.725585938 683.375 132.971679688 677.075195312 c 128,-1,36
 117.217773438 670.771484375 117.217773438 670.771484375 117.217773438 659.970703125 c 0,37,38
 117.217773438 654.568359375 117.217773438 654.568359375 127.119140625 645.565429688 c 128,-1,39
 137.022460938 636.5625 137.022460938 636.5625 137.022460938 624.860351562 c 0,40,41
 137.022460938 610.456054688 137.022460938 610.456054688 127.119140625 603.25390625 c 128,-1,42
 117.217773438 596.051757812 117.217773438 596.051757812 102.813476562 596.051757812 c 0,43,44
 86.609375 596.051757812 86.609375 596.051757812 75.806640625 606.405273438 c 128,-1,45
 65.00390625 616.7578125 65.00390625 616.7578125 65.00390625 632.0625 c 0,46,47
 65.00390625 659.069335938 65.00390625 659.069335938 98.3134765625 681.125 c 128,-1,48
 131.62109375 703.181640625 131.62109375 703.181640625 185.635742188 703.181640625 c 0,49,50
 245.953125 703.181640625 245.953125 703.181640625 282.412109375 675.2734375 c 128,-1,51
 318.873046875 647.365234375 318.873046875 647.365234375 318.873046875 609.555664062 c 0,52,53
 318.873046875 576.24609375 318.873046875 576.24609375 290.96484375 549.689453125 c 128,-1,54
 263.056640625 523.131835938 263.056640625 523.131835938 214.444335938 511.4296875 c 1,55,-1
 214.444335938 509.62890625 l 1,0,1
686 424 m 1,56,-1
 719 424 l 1,57,-1
 719 156 l 1,58,-1
 773 156 l 1,59,-1
 773 206 l 1,60,-1
 797 206 l 1,61,-1
 797 78 l 1,62,-1
 773 78 l 1,63,-1
 773 131 l 1,64,-1
 719 131 l 1,65,-1
 719 0 l 1,66,-1
 647 0 l 1,67,-1
 647 131 l 1,68,-1
 478 131 l 1,69,-1
 478 151 l 1,70,-1
 631 348 l 2,71,72
 674 403 674 403 686 424 c 1,56,-1
647 320 m 1,73,-1
 645 320 l 1,74,-1
 520 156 l 1,75,-1
 647 156 l 1,76,-1
 647 320 l 1,73,-1
630 715 m 1,77,-1
 676 715 l 1,78,-1
 229 -21 l 1,79,-1
 183 -21 l 1,80,-1
 630 715 l 1,77,-1
EndSplineSet
EndChar

StartChar: onequarter
Encoding: 122 188 154
Width: 834
Flags: W
TeX: 715 21
HStem: 0 21G<617 689> 131 25<490 617 689 743> 282 19<69 137 215 285> 695 20G<587.853 646>
VStem: 137 78<301 611> 182 33<678.707 706> 617 72<0 131 156 320> 743 24<78 131 156 206>
LayerCount: 2
Fore
SplineSet
617 0 m 1,0,-1
 617 131 l 1,1,-1
 448 131 l 1,2,-1
 448 151 l 1,3,-1
 601 348 l 2,4,5
 644 403 644 403 656 424 c 1,6,-1
 689 424 l 1,7,-1
 689 156 l 1,8,-1
 743 156 l 1,9,-1
 743 206 l 1,10,-1
 767 206 l 1,11,-1
 767 78 l 1,12,-1
 743 78 l 1,13,-1
 743 131 l 1,14,-1
 689 131 l 1,15,-1
 689 0 l 1,16,-1
 617 0 l 1,0,-1
490 156 m 1,17,-1
 617 156 l 1,18,-1
 617 320 l 1,19,-1
 615 320 l 1,20,-1
 490 156 l 1,17,-1
153 -21 m 1,21,-1
 600 715 l 1,22,-1
 646 715 l 1,23,-1
 199 -21 l 1,24,-1
 153 -21 l 1,21,-1
69 282 m 1,25,-1
 69 301 l 1,26,-1
 137 301 l 1,27,-1
 137 611 l 1,28,-1
 136 611 l 1,29,30
 115 588 115 588 61 555 c 1,31,-1
 48 571 l 1,32,33
 147 632 147 632 182 706 c 1,34,-1
 215 706 l 1,35,-1
 215 301 l 1,36,-1
 285 301 l 1,37,-1
 285 282 l 1,38,-1
 69 282 l 1,25,-1
EndSplineSet
EndChar

StartChar: one.superior
Encoding: 119 185 155
Width: 381
Flags: W
TeX: 706 -282
HStem: 355 19<85 158 244 317>
VStem: 158 86<374 734> 207 37<799.954 832>
LayerCount: 2
Fore
SplineSet
77 669 m 1,0,-1
 64 683 l 1,1,2
 170 752 170 752 207 832 c 1,3,-1
 244 832 l 1,4,-1
 244 374 l 1,5,-1
 317 374 l 1,6,-1
 317 355 l 1,7,-1
 85 355 l 1,8,-1
 85 374 l 1,9,-1
 158 374 l 1,10,-1
 158 734 l 1,11,-1
 157 734 l 1,12,13
 134 706 134 706 77 669 c 1,0,-1
EndSplineSet
EndChar

StartChar: multiply
Encoding: 149 215 156
Width: 600
Flags: W
TeX: 479 -23
LayerCount: 2
Fore
SplineSet
254 251 m 1,0,-1
 72 433 l 1,1,-1
 118 479 l 1,2,-1
 300 296 l 1,3,-1
 482 479 l 1,4,-1
 528 433 l 1,5,-1
 345 251 l 1,6,-1
 528 69 l 1,7,-1
 482 23 l 1,8,-1
 300 206 l 1,9,-1
 118 23 l 1,10,-1
 72 69 l 1,11,-1
 254 251 l 1,0,-1
EndSplineSet
EndChar

StartChar: registered
Encoding: 108 174 157
Width: 490
Flags: W
TeX: 730 -358
HStem: 358 10<203.509 286.491> 446 4<317.5 342.272> 448 4<162 193 220 251> 551 4<220 257.41> 640 4<162 193 220 257.688> 720 10<203.509 286.491>
VStem: 59 10<502.509 585.491> 193 27<452 551 555 640> 279 31<568.435 630.761> 421 10<502.509 586.362>
LayerCount: 2
Fore
SplineSet
59 544 m 128,-1,1
 59 621 59 621 113.5 675.5 c 128,-1,2
 168 730 168 730 245 730 c 128,-1,3
 322 730 322 730 376.5 675 c 128,-1,4
 431 620 431 620 431 544 c 0,5,6
 431 467 431 467 376.5 412.5 c 128,-1,7
 322 358 322 358 245 358 c 128,-1,8
 168 358 168 358 113.5 412.5 c 128,-1,0
 59 467 59 467 59 544 c 128,-1,1
193 452 m 1,9,-1
 193 640 l 1,10,-1
 162 640 l 1,11,-1
 162 644 l 1,12,-1
 214 644 l 2,13,14
 218 644 218 644 227 644.5 c 128,-1,15
 236 645 236 645 241 645 c 0,16,17
 277 645 277 645 292 633 c 0,18,19
 310 619 310 619 310 598 c 0,20,21
 310 591 310 591 307 583.5 c 128,-1,22
 304 576 304 576 292.5 566.5 c 128,-1,23
 281 557 281 557 262 555 c 1,24,-1
 262 554 l 1,25,26
 306 546 306 546 313 522 c 0,27,28
 315 514 315 514 316.5 494.5 c 128,-1,29
 318 475 318 475 319 469 c 0,30,31
 323 450 323 450 335 450 c 0,32,33
 344 450 344 450 350 456 c 1,34,-1
 352 453 l 1,35,36
 343 446 343 446 328 446 c 0,37,38
 307 446 307 446 299 456 c 128,-1,39
 291 466 291 466 289 488 c 2,40,-1
 287 514 l 2,41,42
 284 551 284 551 248 551 c 2,43,-1
 220 551 l 1,44,-1
 220 452 l 1,45,-1
 251 452 l 1,46,-1
 251 448 l 1,47,-1
 162 448 l 1,48,-1
 162 452 l 1,49,-1
 193 452 l 1,9,-1
220 640 m 1,50,-1
 220 555 l 1,51,-1
 245 555 l 2,52,53
 279 555 279 555 279 598 c 0,54,55
 279 624 279 624 268 632.5 c 128,-1,56
 257 641 257 641 238 641 c 0,57,58
 224 641 224 641 220 640 c 1,50,-1
69 544 m 128,-1,60
 69 471 69 471 120.5 419.5 c 128,-1,61
 172 368 172 368 245 368 c 128,-1,62
 318 368 318 368 369.5 419.5 c 128,-1,63
 421 471 421 471 421 544 c 128,-1,64
 421 617 421 617 369.5 668.5 c 128,-1,65
 318 720 318 720 245 720 c 128,-1,66
 172 720 172 720 120.5 668.5 c 128,-1,59
 69 617 69 617 69 544 c 128,-1,60
EndSplineSet
EndChar

StartChar: Thorn
Encoding: 156 222 158
Width: 593
Flags: W
TeX: 715 0
HStem: 0 25<34 128 242 335> 175 31<242 401.703> 540 31<242 395.23> 690 25<34 128 242 335>
VStem: 128 114<25 175 206 540 571 690> 452 120<265.913 478.579>
LayerCount: 2
Fore
SplineSet
242 540 m 1,0,-1
 242 206 l 1,1,-1
 321 206 l 2,2,3
 404 206 404 206 428 245.5 c 128,-1,4
 452 285 452 285 452 381 c 0,5,6
 452 457 452 457 424 498.5 c 128,-1,7
 396 540 396 540 328 540 c 2,8,-1
 242 540 l 1,0,-1
128 25 m 1,9,-1
 128 690 l 1,10,-1
 34 690 l 1,11,-1
 34 715 l 1,12,-1
 335 715 l 1,13,-1
 335 690 l 1,14,-1
 242 690 l 1,15,-1
 242 571 l 1,16,-1
 364 571 l 2,17,18
 572 571 572 571 572 372 c 0,19,20
 572 274 572 274 519.5 224.5 c 128,-1,21
 467 175 467 175 384 175 c 2,22,-1
 242 175 l 1,23,-1
 242 25 l 1,24,-1
 335 25 l 1,25,-1
 335 0 l 1,26,-1
 34 0 l 1,27,-1
 34 25 l 1,28,-1
 128 25 l 1,9,-1
EndSplineSet
Substitution2: "sous-table 'c2sc' Capitales vers petites capitales dans Latin lookup 0" thorn.sc
EndChar

StartChar: brokenbar
Encoding: 100 166 159
Width: 222
Flags: W
TeX: 661 89
VStem: 78 66<-89 161 411 661>
LayerCount: 2
Fore
SplineSet
78 -89 m 1,0,-1
 78 161 l 1,1,-1
 144 161 l 1,2,-1
 144 -89 l 1,3,-1
 78 -89 l 1,0,-1
78 411 m 1,4,-1
 78 661 l 1,5,-1
 144 661 l 1,6,-1
 144 411 l 1,7,-1
 78 411 l 1,4,-1
EndSplineSet
EndChar

StartChar: Eth
Encoding: 142 208 160
Width: 796
Flags: W
TeX: 715 0
HStem: 0 25<26 118 232 468.625> 376 42<26 118 232 391> 690 25<26 118 232 474.668>
VStem: 118 114<25 376 418 690> 610 126<204.406 510.31>
LayerCount: 2
Fore
SplineSet
26 376 m 1,0,-1
 26 418 l 1,1,-1
 118 418 l 1,2,-1
 118 690 l 1,3,-1
 26 690 l 1,4,-1
 26 715 l 1,5,-1
 425 715 l 2,6,7
 578 715 578 715 657 619.5 c 128,-1,8
 736 524 736 524 736 357 c 0,9,10
 736 285 736 285 720 223.5 c 128,-1,11
 704 162 704 162 670 110.5 c 128,-1,12
 636 59 636 59 574 29.5 c 128,-1,13
 512 0 512 0 428 0 c 2,14,-1
 26 0 l 1,15,-1
 26 25 l 1,16,-1
 118 25 l 1,17,-1
 118 376 l 1,18,-1
 26 376 l 1,0,-1
232 376 m 1,19,-1
 232 25 l 1,20,-1
 401 25 l 2,21,22
 507 25 507 25 558.5 119.5 c 128,-1,23
 610 214 610 214 610 357 c 0,24,25
 610 690 610 690 405 690 c 2,26,-1
 232 690 l 1,27,-1
 232 418 l 1,28,-1
 391 418 l 1,29,-1
 391 376 l 1,30,-1
 232 376 l 1,19,-1
EndSplineSet
Substitution2: "sous-table 'c2sc' Capitales vers petites capitales dans Latin lookup 0" eth.sc
EndChar

StartChar: onehalf
Encoding: 123 189 161
Width: 834
Flags: W
TeX: 715 21
HStem: 0.364258 61.7305<558.166 732.214> 249.859 77.1641<536.973 588.681> 282 19<69 137 215 285> 376.752 27.4346<563.928 659.458> 695 20G<587.853 646>
VStem: 137 78<301 611> 182 33<678.707 706> 509.297 90.8809<260.03 314.026> 694.488 77.1641<227.491 349.178>
LayerCount: 2
Fore
SplineSet
531.586914062 326.166992188 m 5,0,1
 532.444335938 311.58984375 532.444335938 311.58984375 536.731445312 315.020507812 c 4,2,3
 544.447265625 321.879882812 544.447265625 321.879882812 553.021484375 324.451171875 c 132,-1,4
 561.594726562 327.0234375 561.594726562 327.0234375 568.454101562 327.0234375 c 4,5,6
 600.177734375 327.0234375 600.177734375 327.0234375 600.177734375 290.15625 c 4,7,8
 600.177734375 269.580078125 600.177734375 269.580078125 589.03125 259.719726562 c 132,-1,9
 577.885742188 249.859375 577.885742188 249.859375 559.880859375 249.859375 c 4,10,11
 534.16015625 249.859375 534.16015625 249.859375 522.157226562 267.864257812 c 4,12,13
 506.72265625 287.583984375 506.72265625 287.583984375 509.296875 313.305664062 c 4,14,15
 511.868164062 363.890625 511.868164062 363.890625 550.450195312 384.467773438 c 4,16,17
 588.174804688 404.186523438 588.174804688 404.186523438 647.33203125 404.186523438 c 4,18,19
 702.206054688 404.186523438 702.206054688 404.186523438 736.9296875 373.75 c 132,-1,20
 771.65234375 343.314453125 771.65234375 343.314453125 771.65234375 291.87109375 c 4,21,22
 771.65234375 256.71875 771.65234375 256.71875 746.788085938 223.28125 c 132,-1,23
 721.924804688 189.842773438 721.924804688 189.842773438 685.915039062 164.12109375 c 4,24,25
 593.318359375 98.9619140625 593.318359375 98.9619140625 558.166015625 62.0947265625 c 5,26,-1
 684.200195312 62.0947265625 l 6,27,28
 717.637695312 62.0947265625 717.637695312 62.0947265625 737.356445312 78.3837890625 c 132,-1,29
 757.078125 94.6748046875 757.078125 94.6748046875 765.651367188 116.966796875 c 5,30,-1
 779.369140625 111.823242188 l 5,31,-1
 732.213867188 0.3642578125 l 5,32,-1
 486.146484375 0.3642578125 l 5,33,-1
 484.431640625 15.7958984375 l 5,34,-1
 576.171875 97.24609375 l 6,35,36
 601.891601562 120.396484375 601.891601562 120.396484375 618.181640625 135.829101562 c 4,37,38
 633.616210938 151.260742188 633.616210938 151.260742188 653.763671875 176.125976562 c 132,-1,39
 673.912109375 200.989257812 673.912109375 200.989257812 684.200195312 226.7109375 c 132,-1,40
 694.48828125 252.432617188 694.48828125 252.432617188 694.48828125 279.8671875 c 4,41,42
 694.48828125 321.021484375 694.48828125 321.021484375 674.340820312 348.88671875 c 132,-1,43
 654.192382812 376.751953125 654.192382812 376.751953125 614.32421875 376.751953125 c 132,-1,44
 574.456054688 376.751953125 574.456054688 376.751953125 553.87890625 363.890625 c 4,45,46
 531.586914062 351.030273438 531.586914062 351.030273438 531.586914062 326.166992188 c 5,0,1
153 -21 m 1,47,-1
 600 715 l 1,48,-1
 646 715 l 1,49,-1
 199 -21 l 1,50,-1
 153 -21 l 1,47,-1
69 282 m 1,51,-1
 69 301 l 1,52,-1
 137 301 l 1,53,-1
 137 611 l 1,54,-1
 136 611 l 1,55,56
 115 588 115 588 61 555 c 1,57,-1
 48 571 l 1,58,59
 147 632 147 632 182 706 c 1,60,-1
 215 706 l 1,61,-1
 215 301 l 1,62,-1
 285 301 l 1,63,-1
 285 282 l 1,64,-1
 69 282 l 1,51,-1
EndSplineSet
EndChar

StartChar: minus
Encoding: 226 8722 162
Width: 600
Flags: W
TeX: 284 -218
HStem: 218 66<49 551>
LayerCount: 2
Fore
SplineSet
551 218 m 1,0,-1
 49 218 l 1,1,-1
 49 284 l 1,2,-1
 551 284 l 1,3,-1
 551 218 l 1,0,-1
EndSplineSet
EndChar

StartChar: ccedilla
Encoding: 165 231 163
Width: 519
Flags: W
TeX: 502 220
HStem: -220 36<173.671 290.222> -101 42<244 312> -12 31<284 374.5> 477 25<244.882 350.847>
VStem: 54 114<134.134 353.891> 298 78<-177.029 -105.688> 389 102<313.312 426.267>
LayerCount: 2
Fore
SplineSet
483 163 m 1,0,-1
 505 155 l 1,1,2
 472 62 472 62 417 25 c 128,-1,3
 362 -12 362 -12 287 -12 c 2,4,-1
 284 -12 l 1,5,-1
 262 -64 l 1,6,7
 279 -59 279 -59 296 -59 c 0,8,9
 328 -59 328 -59 352 -77.5 c 128,-1,10
 376 -96 376 -96 376 -132 c 0,11,12
 376 -220 376 -220 249 -220 c 0,13,14
 211 -220 211 -220 166 -203 c 1,15,-1
 179 -173 l 1,16,17
 209 -184 209 -184 238 -184 c 0,18,19
 298 -184 298 -184 298 -145 c 0,20,21
 298 -101 298 -101 250 -101 c 0,22,23
 238 -101 238 -101 223 -106 c 1,24,-1
 209 -97 l 1,25,-1
 248 -8 l 1,26,27
 159 5 159 5 106.5 77.5 c 128,-1,28
 54 150 54 150 54 245 c 0,29,30
 54 353 54 353 122 427.5 c 128,-1,31
 190 502 190 502 294 502 c 0,32,33
 369 502 369 502 430 462 c 128,-1,34
 491 422 491 422 491 361 c 0,35,36
 491 306 491 306 438 306 c 0,37,38
 389 306 389 306 389 358 c 0,39,40
 389 366 389 366 390 376 c 128,-1,41
 391 386 391 386 391 390 c 0,42,43
 391 431 391 431 366 454 c 128,-1,44
 341 477 341 477 295 477 c 0,45,46
 168 477 168 477 168 245 c 0,47,48
 168 19 168 19 316 19 c 0,49,50
 381 19 381 19 420 55.5 c 128,-1,51
 459 92 459 92 483 163 c 1,0,-1
EndSplineSet
Substitution2: "sous-table 'smcp' Bas-de-casse vers petites capitales dans Latin lookup 0" ccedilla.sc
EndChar

StartChar: eth
Encoding: 174 240 164
Width: 574
Flags: W
TeX: 774 12
HStem: -12 25<230.804 343.02> 477 25<230.804 343.221>
VStem: 54 114<133.302 356.698> 406 114<135.053 414.323>
LayerCount: 2
Fore
SplineSet
112 576 m 1,0,-1
 78 604 l 1,1,-1
 209 677 l 1,2,3
 179 700 179 700 84 742 c 1,4,-1
 104 774 l 1,5,6
 211 738 211 738 261 706 c 1,7,-1
 384 774 l 1,8,-1
 414 746 l 1,9,-1
 300 682 l 1,10,11
 417 603 417 603 468.5 503 c 128,-1,12
 520 403 520 403 520 258 c 0,13,14
 520 211 520 211 508.5 167 c 128,-1,15
 497 123 497 123 472.5 81 c 128,-1,16
 448 39 448 39 400 13.5 c 128,-1,17
 352 -12 352 -12 287 -12 c 0,18,19
 224 -12 224 -12 176 13.5 c 128,-1,20
 128 39 128 39 103 79.5 c 128,-1,21
 78 120 78 120 66 162 c 128,-1,22
 54 204 54 204 54 245 c 128,-1,23
 54 286 54 286 66 328 c 128,-1,24
 78 370 78 370 103 410.5 c 128,-1,25
 128 451 128 451 176 476.5 c 128,-1,26
 224 502 224 502 287 502 c 0,27,28
 330 502 330 502 366 478 c 1,29,-1
 370 478 l 1,30,31
 357 513 357 513 320.5 565 c 128,-1,32
 284 617 284 617 243 649 c 1,33,-1
 112 576 l 1,0,-1
168 245 m 128,-1,35
 168 210 168 210 168.5 190.5 c 128,-1,36
 169 171 169 171 172.5 139 c 128,-1,37
 176 107 176 107 183.5 88.5 c 128,-1,38
 191 70 191 70 203.5 50.5 c 128,-1,39
 216 31 216 31 237.5 22 c 128,-1,40
 259 13 259 13 287 13 c 128,-1,41
 315 13 315 13 336.5 22 c 128,-1,42
 358 31 358 31 370.5 50.5 c 128,-1,43
 383 70 383 70 390.5 88.5 c 128,-1,44
 398 107 398 107 401.5 139 c 128,-1,45
 405 171 405 171 405.5 190.5 c 128,-1,46
 406 210 406 210 406 245 c 128,-1,47
 406 280 406 280 405.5 299.5 c 128,-1,48
 405 319 405 319 401.5 351 c 128,-1,49
 398 383 398 383 390.5 401.5 c 128,-1,50
 383 420 383 420 370.5 439.5 c 128,-1,51
 358 459 358 459 336.5 468 c 128,-1,52
 315 477 315 477 287 477 c 128,-1,53
 259 477 259 477 237.5 468 c 128,-1,54
 216 459 216 459 203.5 439.5 c 128,-1,55
 191 420 191 420 183.5 401.5 c 128,-1,56
 176 383 176 383 172.5 351 c 128,-1,57
 169 319 169 319 168.5 299.5 c 128,-1,34
 168 280 168 280 168 245 c 128,-1,35
EndSplineSet
Substitution2: "sous-table 'smcp' Bas-de-casse vers petites capitales dans Latin lookup 0" eth.sc
EndChar

StartChar: plusminus
Encoding: 111 177 165
Width: 600
Flags: W
TeX: 502 0
HStem: 0 66<49 551> 268 66<49 267 333 551> 482 20G<267 333>
VStem: 267 66<99 268 334 502>
LayerCount: 2
Fore
SplineSet
267 334 m 1,0,-1
 267 502 l 1,1,-1
 333 502 l 1,2,-1
 333 334 l 1,3,-1
 551 334 l 1,4,-1
 551 268 l 1,5,-1
 333 268 l 1,6,-1
 333 99 l 1,7,-1
 267 99 l 1,8,-1
 267 268 l 1,9,-1
 49 268 l 1,10,-1
 49 334 l 1,11,-1
 267 334 l 1,0,-1
49 0 m 1,12,-1
 49 66 l 1,13,-1
 551 66 l 1,14,-1
 551 0 l 1,15,-1
 49 0 l 1,12,-1
EndSplineSet
EndChar

StartChar: Ccedilla
Encoding: 133 199 166
Width: 722
Flags: W
TeX: 727 220
HStem: -220 36<274.671 391.222> -101 42<345 413> -12 31<351.815 480.324> 696 31<328.66 500.214>
VStem: 60 132<210.293 498.714> 399 78<-177.029 -105.688> 615 30<176.989 257 481 555.801>
LayerCount: 2
Fore
SplineSet
646 669 m 1,0,-1
 646 481 l 1,1,-1
 616 481 l 1,2,3
 603 582 603 582 557.5 639 c 128,-1,4
 512 696 512 696 416 696 c 0,5,6
 359 696 359 696 317 676 c 128,-1,7
 275 656 275 656 251.5 625.5 c 128,-1,8
 228 595 228 595 214 548.5 c 128,-1,9
 200 502 200 502 196 458 c 128,-1,10
 192 414 192 414 192 358 c 0,11,12
 192 307 192 307 195 267.5 c 128,-1,13
 198 228 198 228 210 178.5 c 128,-1,14
 222 129 222 129 243.5 96.5 c 128,-1,15
 265 64 265 64 304.5 41.5 c 128,-1,16
 344 19 344 19 399 19 c 0,17,18
 497 19 497 19 552.5 87 c 128,-1,19
 608 155 608 155 615 257 c 1,20,-1
 645 257 l 1,21,-1
 645 59 l 1,22,23
 515 -12 515 -12 396 -12 c 0,24,25
 388 -12 388 -12 385 -11 c 2,26,-1
 363 -64 l 1,27,28
 380 -59 380 -59 397 -59 c 0,29,30
 429 -59 429 -59 453 -77.5 c 128,-1,31
 477 -96 477 -96 477 -132 c 0,32,33
 477 -220 477 -220 350 -220 c 0,34,35
 312 -220 312 -220 267 -203 c 1,36,-1
 280 -173 l 1,37,38
 310 -184 310 -184 339 -184 c 0,39,40
 399 -184 399 -184 399 -145 c 0,41,42
 399 -101 399 -101 351 -101 c 0,43,44
 339 -101 339 -101 324 -106 c 1,45,-1
 310 -97 l 1,46,-1
 349 -8 l 1,47,48
 211 7 211 7 135.5 106 c 128,-1,49
 60 205 60 205 60 358 c 0,50,51
 60 521 60 521 155 624 c 128,-1,52
 250 727 250 727 410 727 c 0,53,54
 521 727 521 727 646 669 c 1,0,-1
EndSplineSet
Substitution2: "sous-table 'c2sc' Capitales vers petites capitales dans Latin lookup 0" ccedilla.sc
EndChar

StartChar: thorn
Encoding: 188 254 167
Width: 593
Flags: W
TeX: 715 220
HStem: -220 25<12 101 203 289> -12 31<261.566 367.438> 471 31<272.667 373.002> 690 25<17 101>
VStem: 101 102<-195 57 76.1228 413.37 417 690> 431 108<111.261 384.713>
LayerCount: 2
Fore
SplineSet
101 -195 m 1,0,-1
 101 690 l 1,1,-1
 17 690 l 1,2,-1
 17 715 l 1,3,-1
 203 715 l 1,4,-1
 203 417 l 1,5,-1
 205 417 l 1,6,7
 245 502 245 502 350 502 c 0,8,9
 435 502 435 502 487 439 c 128,-1,10
 539 376 539 376 539 245 c 0,11,12
 539 131 539 131 490.5 59 c 128,-1,13
 442 -13 442 -13 334 -12 c 0,14,15
 237 -12 237 -12 205 57 c 1,16,-1
 203 57 l 1,17,-1
 203 -195 l 1,18,-1
 289 -195 l 1,19,-1
 289 -220 l 1,20,-1
 12 -220 l 1,21,-1
 12 -195 l 1,22,-1
 101 -195 l 1,0,-1
200 292 m 2,23,-1
 200 210 l 2,24,25
 200 19 200 19 318 19 c 0,26,27
 431 19 431 19 431 245 c 0,28,29
 431 354 431 354 407 412.5 c 128,-1,30
 383 471 383 471 318 471 c 0,31,32
 299 471 299 471 280.5 463.5 c 128,-1,33
 262 456 262 456 242.5 437.5 c 128,-1,34
 223 419 223 419 211.5 381.5 c 128,-1,35
 200 344 200 344 200 292 c 2,23,-1
EndSplineSet
Substitution2: "sous-table 'smcp' Bas-de-casse vers petites capitales dans Latin lookup 0" thorn.sc
EndChar

StartChar: copyright
Encoding: 103 169 168
Width: 800
Flags: W
TeX: 730 14
HStem: -12 60<287.431 510.935> 155 19<373.881 481.798> 554 19<370.811 478.283> 667 60<287.431 510.935>
VStem: 30 66<243.29 473.103> 195 84<262.229 456.722> 543 18<457 491.689> 704 66<243.29 473.251>
LayerCount: 2
Fore
SplineSet
431 174 m 0,0,1
 519.222222222 174 519.222222222 174 561 268 c 1,2,-1
 578 268 l 1,3,-1
 564 195 l 2,4,5
 562 187 562 187 554.5 183 c 128,-1,6
 547 179 547 179 537 175 c 128,-1,7
 527 171 527 171 513.5 167.5 c 128,-1,8
 500 164 500 164 484 161 c 0,9,10
 452 155 452 155 413 155 c 128,-1,11
 374 155 374 155 333 167 c 128,-1,12
 292 179 292 179 261.5 204.5 c 0,13,14
 195 260.098360656 195 260.098360656 195 367 c 0,15,16
 195 444.105263158 195 444.105263158 250.5 503.5 c 0,17,18
 315.442622951 573 315.442622951 573 428 573 c 0,19,20
 490.625 573 490.625 573 540.5 552 c 0,21,22
 558.08045977 544.597701149 558.08045977 544.597701149 559.540229885 537.298850575 c 128,-1,23
 561 530 561 530 561 523 c 2,24,-1
 561 457 l 1,25,-1
 543 457 l 1,26,27
 535.41011236 521.514044944 535.41011236 521.514044944 478 545 c 0,28,29
 456 554 456 554 421.5 554 c 128,-1,30
 387 554 387 554 359.5 540 c 128,-1,31
 332 526 332 526 314 501.5 c 0,32,33
 279 453.861111111 279 453.861111111 279 371 c 0,34,35
 279 231.413793103 279 231.413793103 361 189 c 0,36,37
 390 174 390 174 431 174 c 0,0,1
96 358 m 256,38,39
 96 294 96 294 120 237.5 c 128,-1,40
 144 181 144 181 185 139 c 128,-1,41
 226 97 226 97 281 72.5 c 128,-1,42
 336 48 336 48 399 48 c 256,43,44
 462 48 462 48 517.5 72.5 c 128,-1,45
 573 97 573 97 614.5 139 c 128,-1,46
 656 181 656 181 680 237.5 c 128,-1,47
 704 294 704 294 704 358 c 256,48,49
 704 485.421686747 704 485.421686747 614.5 576 c 0,50,51
 573 618 573 618 517.5 642.5 c 128,-1,52
 462 667 462 667 399 667 c 256,53,54
 336 667 336 667 281 642.5 c 128,-1,55
 226 618 226 618 185 576 c 0,56,57
 96 484.829268293 96 484.829268293 96 358 c 256,38,39
59 214 m 128,-1,59
 30 281 30 281 30 357.5 c 128,-1,60
 30 434 30 434 59 501.5 c 128,-1,61
 88 569 88 569 138 619 c 128,-1,62
 188 669 188 669 255 698 c 128,-1,63
 322 727 322 727 399 727 c 256,64,65
 476 727 476 727 543.5 698 c 128,-1,66
 611 669 611 669 661.5 619 c 128,-1,67
 712 569 712 569 741 501.5 c 128,-1,68
 770 434 770 434 770 357.5 c 128,-1,69
 770 281 770 281 741 214 c 128,-1,70
 712 147 712 147 661.5 96.5 c 128,-1,71
 611 46 611 46 543.5 17 c 128,-1,72
 476 -12 476 -12 399 -12 c 256,73,74
 322 -12 322 -12 255 17 c 128,-1,75
 188 46 188 46 138 96.5 c 128,-1,58
 88 147 88 147 59 214 c 128,-1,59
EndSplineSet
EndChar

StartChar: logicalnot
Encoding: 106 172 169
Width: 600
Flags: W
TeX: 384 -106
HStem: 318 66<49 485>
VStem: 485 66<106 318>
LayerCount: 2
Fore
SplineSet
485 106 m 1,0,-1
 485 318 l 1,1,-1
 49 318 l 1,2,-1
 49 384 l 1,3,-1
 551 384 l 1,4,-1
 551 106 l 1,5,-1
 485 106 l 1,0,-1
EndSplineSet
EndChar

StartChar: two.superior
Encoding: 112 178 170
Width: 390
Flags: W
TeX: 706 -282
HStem: 355 72<102 305> 471 20G<339 360> 646 90<77.2815 137.592> 794 32<108.72 220.143>
VStem: 45 106<658.986 720.841> 261 90<625.797 758.723>
LayerCount: 2
Fore
SplineSet
71 735 m 5,0,1
 72 718 72 718 77 722 c 4,2,3
 86 730 86 730 96 733 c 132,-1,4
 106 736 106 736 114 736 c 4,5,6
 151 736 151 736 151 693 c 4,7,8
 151 669 151 669 138 657.5 c 132,-1,9
 125 646 125 646 104 646 c 4,10,11
 74 646 74 646 60 667 c 4,12,13
 42 690 42 690 45 720 c 4,14,15
 48 779 48 779 93 803 c 4,16,17
 137 826 137 826 206 826 c 4,18,19
 270 826 270 826 310.5 790.5 c 132,-1,20
 351 755 351 755 351 695 c 4,21,22
 351 654 351 654 322 615 c 132,-1,23
 293 576 293 576 251 546 c 4,24,25
 143 470 143 470 102 427 c 5,26,-1
 249 427 l 6,27,28
 288 427 288 427 311 446 c 132,-1,29
 334 465 334 465 344 491 c 5,30,-1
 360 485 l 5,31,-1
 305 355 l 5,32,-1
 18 355 l 5,33,-1
 16 373 l 5,34,-1
 123 468 l 6,35,36
 153 495 153 495 172 513 c 4,37,38
 190 531 190 531 213.5 560 c 132,-1,39
 237 589 237 589 249 619 c 132,-1,40
 261 649 261 649 261 681 c 4,41,42
 261 729 261 729 237.5 761.5 c 132,-1,43
 214 794 214 794 167.5 794 c 132,-1,44
 121 794 121 794 97 779 c 4,45,46
 71 764 71 764 71 735 c 5,0,1
EndSplineSet
EndChar

StartChar: three.superior
Encoding: 113 179 171
Width: 401
Flags: W
TeX: 700 -276
HStem: 345 23<104.048 216.371> 588 22<98 193.746> 798 22<120.914 215.501>
VStem: 25 62<384.172 442.5> 53 58<723.133 783.816> 242 93<660.574 771.48> 266 100<416.257 544.319>
LayerCount: 2
Fore
SplineSet
219 605 m 1,0,1
 285 598 285 598 325.5 563.5 c 128,-1,2
 366 529 366 529 366 481 c 0,3,4
 366 426 366 426 314 385.5 c 128,-1,5
 262 345 262 345 174 345 c 0,6,7
 108 345 108 345 66.5 369.5 c 128,-1,8
 25 394 25 394 25 432 c 0,9,10
 25 453 25 453 38 465.5 c 128,-1,11
 51 478 51 478 72 478 c 0,12,13
 91 478 91 478 104.5 467.5 c 128,-1,14
 118 457 118 457 118 441 c 0,15,16
 118 426 118 426 102.5 416 c 128,-1,17
 87 406 87 406 87 399 c 0,18,19
 87 384 87 384 112.5 376 c 128,-1,20
 138 368 138 368 166 368 c 0,21,22
 215 368 215 368 240.5 397.5 c 128,-1,23
 266 427 266 427 266 481 c 128,-1,24
 266 535 266 535 239 561.5 c 128,-1,25
 212 588 212 588 152 588 c 2,26,-1
 98 588 l 1,27,-1
 98 610 l 1,28,-1
 139 610 l 2,29,30
 243 610 243 610 242 717 c 0,31,32
 242 763 242 763 224.5 780.5 c 128,-1,33
 207 798 207 798 171 798 c 0,34,35
 146 798 146 798 128.5 791 c 128,-1,36
 111 784 111 784 111 772 c 0,37,38
 111 766 111 766 122 756 c 128,-1,39
 133 746 133 746 133 733 c 0,40,41
 133 717 133 717 122 709 c 128,-1,42
 111 701 111 701 95 701 c 0,43,44
 77 701 77 701 65 712.5 c 128,-1,45
 53 724 53 724 53 741 c 0,46,47
 53 771 53 771 90 795.5 c 128,-1,48
 127 820 127 820 187 820 c 0,49,50
 254 820 254 820 294.5 789 c 128,-1,51
 335 758 335 758 335 716 c 0,52,53
 335 679 335 679 304 649.5 c 128,-1,54
 273 620 273 620 219 607 c 1,55,-1
 219 605 l 1,0,1
EndSplineSet
EndChar

StartChar: trademark
Encoding: 225 8482 172
Width: 990
Flags: W
TeX: 715 -311
HStem: 311 19<117 148.433 257.567 289 438 471.972 532.107 567 782 813.433 922.567 954> 627 88<30 54.9072 351.093 376> 696 19<84.5557 167 239 321.444 420 452.544 923.25 960>
VStem: 30 18<627 652.184> 167 72<337.863 696> 358 18<627 652.184> 490 24<345.346 613> 832 72<337.863 613>
LayerCount: 2
Fore
SplineSet
167 366 m 2,0,-1
 167 696 l 1,1,-1
 118 696 l 2,2,3
 65 696 65 696 48 627 c 1,4,-1
 30 627 l 1,5,-1
 30 715 l 1,6,-1
 376 715 l 1,7,-1
 376 627 l 1,8,-1
 358 627 l 1,9,10
 341 696 341 696 288 696 c 2,11,-1
 239 696 l 1,12,-1
 239 366 l 2,13,14
 239 338 239 338 289 330 c 1,15,-1
 289 311 l 1,16,-1
 117 311 l 1,17,-1
 117 330 l 1,18,19
 167 338 167 338 167 366 c 2,0,-1
666 311 m 1,20,-1
 516 613 l 1,21,-1
 514 613 l 1,22,-1
 514 377 l 2,23,24
 514 356 514 356 524.5 345 c 128,-1,25
 535 334 535 334 567 330 c 1,26,-1
 567 311 l 1,27,-1
 438 311 l 1,28,-1
 438 330 l 1,29,30
 469 334 469 334 479.5 345 c 128,-1,31
 490 356 490 356 490 376 c 2,32,-1
 490 645 l 1,33,34
 480 667 480 667 461 681 c 128,-1,35
 442 695 442 695 420 696 c 1,36,-1
 420 715 l 1,37,-1
 541 715 l 1,38,-1
 695 406 l 1,39,-1
 857 715 l 1,40,-1
 960 715 l 1,41,-1
 960 696 l 1,42,43
 928 694 928 694 916 681 c 128,-1,44
 904 668 904 668 904 641 c 2,45,-1
 904 366 l 2,46,47
 904 338 904 338 954 330 c 1,48,-1
 954 311 l 1,49,-1
 782 311 l 1,50,-1
 782 330 l 1,51,52
 832 338 832 338 832 366 c 2,53,-1
 832 613 l 1,54,-1
 829 613 l 1,55,-1
 677 311 l 1,56,-1
 666 311 l 1,20,-1
EndSplineSet
EndChar

StartChar: degree
Encoding: 110 176 173
Width: 400
Flags: W
TeX: 706 -420
HStem: 420 48<140.04 259.96> 658 48<140.04 259.96>
VStem: 57 48<503.04 622.96> 295 48<503.04 622.96>
LayerCount: 2
Fore
SplineSet
57 563 m 128,-1,1
 57 623 57 623 98.5 664.5 c 128,-1,2
 140 706 140 706 200 706 c 128,-1,3
 260 706 260 706 301.5 664.5 c 128,-1,4
 343 623 343 623 343 563 c 128,-1,5
 343 503 343 503 301.5 461.5 c 128,-1,6
 260 420 260 420 200 420 c 128,-1,7
 140 420 140 420 98.5 461.5 c 128,-1,0
 57 503 57 503 57 563 c 128,-1,1
105 563 m 128,-1,9
 105 524 105 524 133 496 c 128,-1,10
 161 468 161 468 200 468 c 128,-1,11
 239 468 239 468 267 496 c 128,-1,12
 295 524 295 524 295 563 c 128,-1,13
 295 602 295 602 267 630 c 128,-1,14
 239 658 239 658 200 658 c 128,-1,15
 161 658 161 658 133 630 c 128,-1,8
 105 602 105 602 105 563 c 128,-1,9
EndSplineSet
EndChar

StartChar: mu
Encoding: 115 181 174
Width: 630
Flags: W
TeX: 490 220
HStem: -220 21G<121.5 144.5> -12 36<230.749 338.856> 0 25<527 613> 465 25<24 103 334 425>
VStem: 83 100<-203.497 2.92871> 103 102<49.488 465> 425 102<25 94 103.052 465>
LayerCount: 2
Fore
SplineSet
425 0 m 1,0,-1
 425 94 l 1,1,-1
 423 94 l 1,2,3
 375 -12 375 -12 250 -12 c 0,4,5
 201 -12 201 -12 164 5 c 1,6,7
 165 -23 165 -23 174 -83.5 c 128,-1,8
 183 -144 183 -144 183 -161 c 0,9,10
 183 -188 183 -188 169.5 -204 c 128,-1,11
 156 -220 156 -220 133 -220 c 128,-1,12
 110 -220 110 -220 96.5 -204 c 128,-1,13
 83 -188 83 -188 83 -161 c 0,14,15
 83 -150 83 -150 93 -6 c 128,-1,16
 103 138 103 138 103 209 c 2,17,-1
 103 465 l 1,18,-1
 24 465 l 1,19,-1
 24 490 l 1,20,-1
 205 490 l 1,21,-1
 205 134 l 2,22,23
 205 84 205 84 221.5 54 c 128,-1,24
 238 24 238 24 285 24 c 0,25,26
 351 24 351 24 388 77 c 128,-1,27
 425 130 425 130 425 205 c 2,28,-1
 425 465 l 1,29,-1
 334 465 l 1,30,-1
 334 490 l 1,31,-1
 527 490 l 1,32,-1
 527 25 l 1,33,-1
 613 25 l 1,34,-1
 613 0 l 1,35,-1
 425 0 l 1,0,-1
EndSplineSet
EndChar

StartChar: Aacute
Encoding: 127 193 175
Width: 667
Flags: W
TeX: 929 0
HStem: 0 25<5 89 123 228 346 450 576 668> 249 31<206 373> 707 20G<318.276 351.581>
LayerCount: 2
Fore
SplineSet
89 25 m 1,0,-1
 325 727 l 1,1,-1
 345 727 l 1,2,-1
 576 25 l 1,3,-1
 668 25 l 1,4,-1
 668 0 l 1,5,-1
 346 0 l 1,6,-1
 346 25 l 1,7,-1
 450 25 l 1,8,-1
 382 249 l 1,9,-1
 196 249 l 1,10,-1
 123 25 l 1,11,-1
 228 25 l 1,12,-1
 228 0 l 1,13,-1
 5 0 l 1,14,-1
 5 25 l 1,15,-1
 89 25 l 1,0,-1
373 280 m 1,16,-1
 294 536 l 1,17,-1
 292 536 l 1,18,-1
 206 280 l 1,19,-1
 373 280 l 1,16,-1
304 754 m 1,20,-1
 258 754 l 1,21,-1
 397 899 l 2,22,23
 427 929 427 929 446 929 c 0,24,25
 461 929 461 929 473.5 917 c 128,-1,26
 486 905 486 905 486 888 c 0,27,28
 486 868 486 868 460 851 c 2,29,-1
 304 754 l 1,20,-1
EndSplineSet
Substitution2: "sous-table 'c2sc' Capitales vers petites capitales dans Latin lookup 0" aacute.sc
EndChar

StartChar: Acircumflex
Encoding: 128 194 176
Width: 667
Flags: W
TeX: 924 0
HStem: 0 25<5 89 123 228 346 450 576 668> 249 31<206 373> 707 20G<318.276 351.581>
LayerCount: 2
Fore
SplineSet
89 25 m 1,0,-1
 325 727 l 1,1,-1
 345 727 l 1,2,-1
 576 25 l 1,3,-1
 668 25 l 1,4,-1
 668 0 l 1,5,-1
 346 0 l 1,6,-1
 346 25 l 1,7,-1
 450 25 l 1,8,-1
 382 249 l 1,9,-1
 196 249 l 1,10,-1
 123 25 l 1,11,-1
 228 25 l 1,12,-1
 228 0 l 1,13,-1
 5 0 l 1,14,-1
 5 25 l 1,15,-1
 89 25 l 1,0,-1
373 280 m 1,16,-1
 294 536 l 1,17,-1
 292 536 l 1,18,-1
 206 280 l 1,19,-1
 373 280 l 1,16,-1
176 754 m 1,20,-1
 299 924 l 1,21,-1
 369 924 l 1,22,-1
 492 754 l 1,23,-1
 453 754 l 1,24,-1
 334 858 l 1,25,-1
 215 754 l 1,26,-1
 176 754 l 1,20,-1
EndSplineSet
Substitution2: "sous-table 'c2sc' Capitales vers petites capitales dans Latin lookup 0" acircumflex.sc
EndChar

StartChar: Adieresis
Encoding: 130 196 177
Width: 667
Flags: W
TeX: 874 0
HStem: 0 25<5 89 123 228 346 450 576 668> 249 31<206 373> 707 20G<318.276 351.581> 766 108<190.973 277.027 390.973 477.027>
VStem: 180 108<776.973 863.027> 380 108<776.973 863.027>
LayerCount: 2
Fore
SplineSet
89 25 m 1,0,-1
 325 727 l 1,1,-1
 345 727 l 1,2,-1
 576 25 l 1,3,-1
 668 25 l 1,4,-1
 668 0 l 1,5,-1
 346 0 l 1,6,-1
 346 25 l 1,7,-1
 450 25 l 1,8,-1
 382 249 l 1,9,-1
 196 249 l 1,10,-1
 123 25 l 1,11,-1
 228 25 l 1,12,-1
 228 0 l 1,13,-1
 5 0 l 1,14,-1
 5 25 l 1,15,-1
 89 25 l 1,0,-1
373 280 m 1,16,-1
 294 536 l 1,17,-1
 292 536 l 1,18,-1
 206 280 l 1,19,-1
 373 280 l 1,16,-1
380 820 m 128,-1,21
 380 842 380 842 396 858 c 128,-1,22
 412 874 412 874 434 874 c 128,-1,23
 456 874 456 874 472 858 c 128,-1,24
 488 842 488 842 488 820 c 128,-1,25
 488 798 488 798 472 782 c 128,-1,26
 456 766 456 766 434 766 c 128,-1,27
 412 766 412 766 396 782 c 128,-1,20
 380 798 380 798 380 820 c 128,-1,21
180 820 m 128,-1,29
 180 842 180 842 196 858 c 128,-1,30
 212 874 212 874 234 874 c 128,-1,31
 256 874 256 874 272 858 c 128,-1,32
 288 842 288 842 288 820 c 128,-1,33
 288 798 288 798 272 782 c 128,-1,34
 256 766 256 766 234 766 c 128,-1,35
 212 766 212 766 196 782 c 128,-1,28
 180 798 180 798 180 820 c 128,-1,29
EndSplineSet
Substitution2: "sous-table 'c2sc' Capitales vers petites capitales dans Latin lookup 0" adieresis.sc
EndChar

StartChar: Agrave
Encoding: 126 192 178
Width: 667
Flags: W
TeX: 929 0
HStem: 0 25<5 89 123 228 346 450 576 668> 249 31<206 373> 707 20G<318.276 351.581>
LayerCount: 2
Fore
SplineSet
89 25 m 1,0,-1
 325 727 l 1,1,-1
 345 727 l 1,2,-1
 576 25 l 1,3,-1
 668 25 l 1,4,-1
 668 0 l 1,5,-1
 346 0 l 1,6,-1
 346 25 l 1,7,-1
 450 25 l 1,8,-1
 382 249 l 1,9,-1
 196 249 l 1,10,-1
 123 25 l 1,11,-1
 228 25 l 1,12,-1
 228 0 l 1,13,-1
 5 0 l 1,14,-1
 5 25 l 1,15,-1
 89 25 l 1,0,-1
373 280 m 1,16,-1
 294 536 l 1,17,-1
 292 536 l 1,18,-1
 206 280 l 1,19,-1
 373 280 l 1,16,-1
410 754 m 1,20,-1
 364 754 l 1,21,-1
 208 851 l 2,22,23
 182 868 182 868 182 888 c 0,24,25
 182 905 182 905 194.5 917 c 128,-1,26
 207 929 207 929 222 929 c 0,27,28
 241 929 241 929 271 899 c 2,29,-1
 410 754 l 1,20,-1
EndSplineSet
Substitution2: "sous-table 'c2sc' Capitales vers petites capitales dans Latin lookup 0" agrave.sc
EndChar

StartChar: Aring
Encoding: 131 197 179
Width: 667
Flags: W
TeX: 951 0
HStem: 0 25<5 89 123 228 346 450 576 668> 249 31<206 373> 707 20G<318.276 351.581> 751 36<290.316 377.684> 915 36<290.316 377.684>
VStem: 234 36<807.316 894.684> 398 36<807.316 894.684>
LayerCount: 2
Fore
SplineSet
89 25 m 1,0,-1
 325 727 l 1,1,-1
 345 727 l 1,2,-1
 576 25 l 1,3,-1
 668 25 l 1,4,-1
 668 0 l 1,5,-1
 346 0 l 1,6,-1
 346 25 l 1,7,-1
 450 25 l 1,8,-1
 382 249 l 1,9,-1
 196 249 l 1,10,-1
 123 25 l 1,11,-1
 228 25 l 1,12,-1
 228 0 l 1,13,-1
 5 0 l 1,14,-1
 5 25 l 1,15,-1
 89 25 l 1,0,-1
373 280 m 1,16,-1
 294 536 l 1,17,-1
 292 536 l 1,18,-1
 206 280 l 1,19,-1
 373 280 l 1,16,-1
234 851 m 128,-1,21
 234 892 234 892 263.5 921.5 c 128,-1,22
 293 951 293 951 334 951 c 128,-1,23
 375 951 375 951 404.5 921.5 c 128,-1,24
 434 892 434 892 434 851 c 128,-1,25
 434 810 434 810 404.5 780.5 c 128,-1,26
 375 751 375 751 334 751 c 128,-1,27
 293 751 293 751 263.5 780.5 c 128,-1,20
 234 810 234 810 234 851 c 128,-1,21
270 851 m 128,-1,29
 270 825 270 825 289 806 c 128,-1,30
 308 787 308 787 334 787 c 128,-1,31
 360 787 360 787 379 806 c 128,-1,32
 398 825 398 825 398 851 c 128,-1,33
 398 877 398 877 379 896 c 128,-1,34
 360 915 360 915 334 915 c 128,-1,35
 308 915 308 915 289 896 c 128,-1,28
 270 877 270 877 270 851 c 128,-1,29
EndSplineSet
Substitution2: "sous-table 'c2sc' Capitales vers petites capitales dans Latin lookup 0" aring.sc
EndChar

StartChar: Atilde
Encoding: 129 195 180
Width: 667
Flags: W
TeX: 891 0
HStem: 0 25<5 89 123 228 346 450 576 668> 249 31<206 373> 707 20G<318.276 351.581> 778 66<353.462 459.29> 824 66<208.71 314.538>
VStem: 165 32<777 808.973> 471 32<859.027 891>
LayerCount: 2
Fore
SplineSet
89 25 m 1,0,-1
 325 727 l 1,1,-1
 345 727 l 1,2,-1
 576 25 l 1,3,-1
 668 25 l 1,4,-1
 668 0 l 1,5,-1
 346 0 l 1,6,-1
 346 25 l 1,7,-1
 450 25 l 1,8,-1
 382 249 l 1,9,-1
 196 249 l 1,10,-1
 123 25 l 1,11,-1
 228 25 l 1,12,-1
 228 0 l 1,13,-1
 5 0 l 1,14,-1
 5 25 l 1,15,-1
 89 25 l 1,0,-1
373 280 m 1,16,-1
 294 536 l 1,17,-1
 292 536 l 1,18,-1
 206 280 l 1,19,-1
 373 280 l 1,16,-1
197 777 m 1,20,-1
 165 777 l 1,21,22
 173 824 173 824 198.5 857 c 128,-1,23
 224 890 224 890 267 890 c 0,24,25
 296 890 296 890 350 867 c 128,-1,26
 404 844 404 844 423 844 c 0,27,28
 441 844 441 844 454 857.5 c 128,-1,29
 467 871 467 871 471 891 c 1,30,-1
 503 891 l 1,31,32
 495 844 495 844 469.5 811 c 128,-1,33
 444 778 444 778 401 778 c 0,34,35
 372 778 372 778 318 801 c 128,-1,36
 264 824 264 824 245 824 c 0,37,38
 227 824 227 824 214 810.5 c 128,-1,39
 201 797 201 797 197 777 c 1,20,-1
EndSplineSet
Substitution2: "sous-table 'c2sc' Capitales vers petites capitales dans Latin lookup 0" atilde.sc
EndChar

StartChar: Eacute
Encoding: 135 201 181
Width: 704
Flags: W
TeX: 929 0
HStem: 0 25<34 128 242 484.517> 349 31<242 381.148> 495 21G<583 612> 690 25<34 128 242 468.192>
VStem: 128 114<25 349 380 690> 419 30<191 312.031 420.866 531> 586 26<495 558.307> 617 27<182.689 245>
LayerCount: 2
Fore
SplineSet
128 25 m 1,0,-1
 128 690 l 1,1,-1
 34 690 l 1,2,-1
 34 715 l 1,3,-1
 606 715 l 1,4,-1
 612 495 l 1,5,-1
 586 495 l 1,6,7
 580 530 580 530 574 554.5 c 128,-1,8
 568 579 568 579 558.5 600 c 128,-1,9
 549 621 549 621 539 634.5 c 128,-1,10
 529 648 529 648 511.5 659 c 128,-1,11
 494 670 494 670 476 675.5 c 128,-1,12
 458 681 458 681 428 684.5 c 128,-1,13
 398 688 398 688 367 689 c 128,-1,14
 336 690 336 690 290 690 c 2,15,-1
 242 690 l 1,16,-1
 242 380 l 1,17,-1
 296 380 l 2,18,19
 378 380 378 380 399 411 c 128,-1,20
 420 442 420 442 419 531 c 1,21,-1
 449 531 l 1,22,-1
 449 191 l 1,23,-1
 419 191 l 1,24,25
 419 227 419 227 418 246.5 c 128,-1,26
 417 266 417 266 412.5 287 c 128,-1,27
 408 308 408 308 400.5 317.5 c 128,-1,28
 393 327 393 327 379 335.5 c 128,-1,29
 365 344 365 344 345.5 346.5 c 128,-1,30
 326 349 326 349 296 349 c 2,31,-1
 242 349 l 1,32,-1
 242 25 l 1,33,-1
 393 25 l 2,34,35
 502 25 502 25 551 78 c 128,-1,36
 600 131 600 131 617 245 c 1,37,-1
 644 245 l 1,38,-1
 635 0 l 1,39,-1
 34 0 l 1,40,-1
 34 25 l 1,41,-1
 128 25 l 1,0,-1
322 754 m 1,42,-1
 276 754 l 1,43,-1
 415 899 l 2,44,45
 445 929 445 929 464 929 c 0,46,47
 479 929 479 929 491.5 917 c 128,-1,48
 504 905 504 905 504 888 c 0,49,50
 504 868 504 868 478 851 c 2,51,-1
 322 754 l 1,42,-1
EndSplineSet
Substitution2: "sous-table 'c2sc' Capitales vers petites capitales dans Latin lookup 0" eacute.sc
EndChar

StartChar: Ecircumflex
Encoding: 136 202 182
Width: 704
Flags: W
TeX: 924 0
HStem: 0 25<34 128 242 484.517> 349 31<242 381.148> 495 21G<583 612> 690 25<34 128 242 468.192>
VStem: 128 114<25 349 380 690> 419 30<191 312.031 420.866 531> 586 26<495 558.307> 617 27<182.689 245>
LayerCount: 2
Fore
SplineSet
128 25 m 1,0,-1
 128 690 l 1,1,-1
 34 690 l 1,2,-1
 34 715 l 1,3,-1
 606 715 l 1,4,-1
 612 495 l 1,5,-1
 586 495 l 1,6,7
 580 530 580 530 574 554.5 c 128,-1,8
 568 579 568 579 558.5 600 c 128,-1,9
 549 621 549 621 539 634.5 c 128,-1,10
 529 648 529 648 511.5 659 c 128,-1,11
 494 670 494 670 476 675.5 c 128,-1,12
 458 681 458 681 428 684.5 c 128,-1,13
 398 688 398 688 367 689 c 128,-1,14
 336 690 336 690 290 690 c 2,15,-1
 242 690 l 1,16,-1
 242 380 l 1,17,-1
 296 380 l 2,18,19
 378 380 378 380 399 411 c 128,-1,20
 420 442 420 442 419 531 c 1,21,-1
 449 531 l 1,22,-1
 449 191 l 1,23,-1
 419 191 l 1,24,25
 419 227 419 227 418 246.5 c 128,-1,26
 417 266 417 266 412.5 287 c 128,-1,27
 408 308 408 308 400.5 317.5 c 128,-1,28
 393 327 393 327 379 335.5 c 128,-1,29
 365 344 365 344 345.5 346.5 c 128,-1,30
 326 349 326 349 296 349 c 2,31,-1
 242 349 l 1,32,-1
 242 25 l 1,33,-1
 393 25 l 2,34,35
 502 25 502 25 551 78 c 128,-1,36
 600 131 600 131 617 245 c 1,37,-1
 644 245 l 1,38,-1
 635 0 l 1,39,-1
 34 0 l 1,40,-1
 34 25 l 1,41,-1
 128 25 l 1,0,-1
194 754 m 1,42,-1
 317 924 l 1,43,-1
 387 924 l 1,44,-1
 510 754 l 1,45,-1
 471 754 l 1,46,-1
 352 858 l 1,47,-1
 233 754 l 1,48,-1
 194 754 l 1,42,-1
EndSplineSet
Substitution2: "sous-table 'c2sc' Capitales vers petites capitales dans Latin lookup 0" ecircumflex.sc
EndChar

StartChar: Edieresis
Encoding: 137 203 183
Width: 704
Flags: W
TeX: 883 0
HStem: 0 25<34 128 242 484.517> 349 31<242 381.148> 495 21G<583 612> 690 25<34 128 242 468.192> 775 108<214.501 289.499 414.501 489.499>
VStem: 128 114<25 349 380 690> 198 108<790.986 867.014> 398 108<790.986 867.014> 419 30<191 312.031 420.866 531> 586 26<495 558.307> 617 27<182.689 245>
LayerCount: 2
Fore
SplineSet
128 25 m 1,0,-1
 128 690 l 1,1,-1
 34 690 l 1,2,-1
 34 715 l 1,3,-1
 606 715 l 1,4,-1
 612 495 l 1,5,-1
 586 495 l 1,6,7
 580 530 580 530 574 554.5 c 128,-1,8
 568 579 568 579 558.5 600 c 128,-1,9
 549 621 549 621 539 634.5 c 128,-1,10
 529 648 529 648 511.5 659 c 128,-1,11
 494 670 494 670 476 675.5 c 128,-1,12
 458 681 458 681 428 684.5 c 128,-1,13
 398 688 398 688 367 689 c 128,-1,14
 336 690 336 690 290 690 c 2,15,-1
 242 690 l 1,16,-1
 242 380 l 1,17,-1
 296 380 l 2,18,19
 378 380 378 380 399 411 c 128,-1,20
 420 442 420 442 419 531 c 1,21,-1
 449 531 l 1,22,-1
 449 191 l 1,23,-1
 419 191 l 1,24,25
 419 227 419 227 418 246.5 c 128,-1,26
 417 266 417 266 412.5 287 c 128,-1,27
 408 308 408 308 400.5 317.5 c 128,-1,28
 393 327 393 327 379 335.5 c 128,-1,29
 365 344 365 344 345.5 346.5 c 128,-1,30
 326 349 326 349 296 349 c 2,31,-1
 242 349 l 1,32,-1
 242 25 l 1,33,-1
 393 25 l 2,34,35
 502 25 502 25 551 78 c 128,-1,36
 600 131 600 131 617 245 c 1,37,-1
 644 245 l 1,38,-1
 635 0 l 1,39,-1
 34 0 l 1,40,-1
 34 25 l 1,41,-1
 128 25 l 1,0,-1
398 829 m 128,-1,43
 398 852 398 852 414 867.5 c 128,-1,44
 430 883 430 883 452 883 c 128,-1,45
 474 883 474 883 490 867.5 c 128,-1,46
 506 852 506 852 506 829 c 128,-1,47
 506 806 506 806 490 790.5 c 128,-1,48
 474 775 474 775 452 775 c 128,-1,49
 430 775 430 775 414 790.5 c 128,-1,42
 398 806 398 806 398 829 c 128,-1,43
198 829 m 128,-1,51
 198 852 198 852 214 867.5 c 128,-1,52
 230 883 230 883 252 883 c 128,-1,53
 274 883 274 883 290 867.5 c 128,-1,54
 306 852 306 852 306 829 c 128,-1,55
 306 806 306 806 290 790.5 c 128,-1,56
 274 775 274 775 252 775 c 128,-1,57
 230 775 230 775 214 790.5 c 128,-1,50
 198 806 198 806 198 829 c 128,-1,51
EndSplineSet
Substitution2: "sous-table 'c2sc' Capitales vers petites capitales dans Latin lookup 0" edieresis.sc
EndChar

StartChar: Egrave
Encoding: 134 200 184
Width: 704
Flags: W
TeX: 929 0
HStem: 0 25<34 128 242 484.517> 349 31<242 381.148> 495 21G<583 612> 690 25<34 128 242 468.192>
VStem: 128 114<25 349 380 690> 419 30<191 312.031 420.866 531> 586 26<495 558.307> 617 27<182.689 245>
LayerCount: 2
Fore
SplineSet
128 25 m 1,0,-1
 128 690 l 1,1,-1
 34 690 l 1,2,-1
 34 715 l 1,3,-1
 606 715 l 1,4,-1
 612 495 l 1,5,-1
 586 495 l 1,6,7
 580 530 580 530 574 554.5 c 128,-1,8
 568 579 568 579 558.5 600 c 128,-1,9
 549 621 549 621 539 634.5 c 128,-1,10
 529 648 529 648 511.5 659 c 128,-1,11
 494 670 494 670 476 675.5 c 128,-1,12
 458 681 458 681 428 684.5 c 128,-1,13
 398 688 398 688 367 689 c 128,-1,14
 336 690 336 690 290 690 c 2,15,-1
 242 690 l 1,16,-1
 242 380 l 1,17,-1
 296 380 l 2,18,19
 378 380 378 380 399 411 c 128,-1,20
 420 442 420 442 419 531 c 1,21,-1
 449 531 l 1,22,-1
 449 191 l 1,23,-1
 419 191 l 1,24,25
 419 227 419 227 418 246.5 c 128,-1,26
 417 266 417 266 412.5 287 c 128,-1,27
 408 308 408 308 400.5 317.5 c 128,-1,28
 393 327 393 327 379 335.5 c 128,-1,29
 365 344 365 344 345.5 346.5 c 128,-1,30
 326 349 326 349 296 349 c 2,31,-1
 242 349 l 1,32,-1
 242 25 l 1,33,-1
 393 25 l 2,34,35
 502 25 502 25 551 78 c 128,-1,36
 600 131 600 131 617 245 c 1,37,-1
 644 245 l 1,38,-1
 635 0 l 1,39,-1
 34 0 l 1,40,-1
 34 25 l 1,41,-1
 128 25 l 1,0,-1
428 754 m 1,42,-1
 382 754 l 1,43,-1
 226 851 l 2,44,45
 200 868 200 868 200 888 c 0,46,47
 200 905 200 905 212.5 917 c 128,-1,48
 225 929 225 929 240 929 c 0,49,50
 259 929 259 929 289 899 c 2,51,-1
 428 754 l 1,42,-1
EndSplineSet
Substitution2: "sous-table 'c2sc' Capitales vers petites capitales dans Latin lookup 0" egrave.sc
EndChar

